QalamBadi-Madda.ufo
<glyph name="asterisk" format="2">
  <advance width="1228"/>
  <unicode hex="002A"/>
  <outline>
    <contour>
      <point x="1050.0" y="647.0" type="line" smooth="yes"/>
      <point x="1108.0" y="660.0"/>
      <point x="1135.0" y="701.0"/>
      <point x="1115.0" y="765.0" type="curve" smooth="yes"/>
      <point x="1094.0" y="829.0"/>
      <point x="1049.0" y="848.0"/>
      <point x="995.0" y="824.0" type="curve" smooth="yes"/>
      <point x="708.8199332641282" y="693.4616951453402" type="line" smooth="yes"/>
      <point x="685.6741375550387" y="682.9039614399895"/>
      <point x="667.7792940005368" y="695.9475393068516"/>
      <point x="670.7457980417837" y="721.2139884790892" type="curve" smooth="yes"/>
      <point x="707.0" y="1030.0" type="line" smooth="yes"/>
      <point x="713.0" y="1089.0"/>
      <point x="681.0" y="1127.0"/>
      <point x="614.0" y="1127.0" type="curve" smooth="yes"/>
      <point x="547.0" y="1127.0"/>
      <point x="514.0" y="1089.0"/>
      <point x="521.0" y="1030.0" type="curve" smooth="yes"/>
      <point x="556.6279851148684" y="721.2242171219318" type="line" smooth="yes"/>
      <point x="559.544023243246" y="695.9518938881282"/>
      <point x="541.6121998839716" y="682.9201290201466"/>
      <point x="518.4751694568378" y="693.4970578283538" type="curve" smooth="yes"/>
      <point x="233.0" y="824.0" type="line" smooth="yes"/>
      <point x="179.0" y="848.0"/>
      <point x="133.0" y="829.0"/>
      <point x="113.0" y="765.0" type="curve" smooth="yes"/>
      <point x="92.0" y="701.0"/>
      <point x="119.0" y="660.0"/>
      <point x="177.0" y="647.0" type="curve" smooth="yes"/>
      <point x="483.15819565761905" y="585.0170501408602" type="line" smooth="yes"/>
      <point x="508.0923316954091" y="579.9690346843684"/>
      <point x="515.0633213445193" y="558.7676170799709"/>
      <point x="497.99008852806634" y="539.9076509825679" type="curve" smooth="yes"/>
      <point x="279.0" y="298.0" type="line" smooth="yes"/>
      <point x="239.0" y="254.0"/>
      <point x="243.0" y="207.0"/>
      <point x="298.0" y="167.0" type="curve" smooth="yes"/>
      <point x="353.0" y="128.0"/>
      <point x="400.0" y="143.0"/>
      <point x="431.0" y="194.0" type="curve" smooth="yes"/>
      <point x="589.852122661279" y="472.46590327343046" type="line" smooth="yes"/>
      <point x="602.4576674506059" y="494.5632750756217"/>
      <point x="624.8482247373832" y="494.5824538293809"/>
      <point x="637.4916062501673" y="472.5067091324925" type="curve" smooth="yes"/>
      <point x="797.0" y="194.0" type="line" smooth="yes"/>
      <point x="827.0" y="143.0"/>
      <point x="875.0" y="127.0"/>
      <point x="930.0" y="167.0" type="curve" smooth="yes"/>
      <point x="984.0" y="206.0"/>
      <point x="988.0" y="254.0"/>
      <point x="948.0" y="298.0" type="curve" smooth="yes"/>
      <point x="729.1219714753535" y="539.7838711937229" type="line" smooth="yes"/>
      <point x="712.0487389469317" y="558.6438375518701"/>
      <point x="719.017943434241" y="579.8540652412285"/>
      <point x="743.950066129203" y="584.9120152136343" type="curve" smooth="yes"/>
    </contour>
  </outline>
</glyph>
<glyph name="L" format="2">
  <advance width="1228"/>
  <unicode hex="004C"/>
  <outline>
    <contour>
      <point x="319.0" y="1197.0" type="line" smooth="yes"/>
      <point x="263.0" y="1197.0"/>
      <point x="245.0" y="1178.0"/>
      <point x="245.0" y="1132.0" type="curve" smooth="yes"/>
      <point x="245.0" y="68.0" type="line" smooth="yes"/>
      <point x="245.0" y="18.0"/>
      <point x="262.0" y="0.0"/>
      <point x="308.0" y="0.0" type="curve" smooth="yes"/>
      <point x="883.2032558139534" y="0.0" type="line" smooth="yes"/>
      <point x="920.9509302325581" y="0.0"/>
      <point x="936.05" y="20.0"/>
      <point x="936.05" y="72.0" type="curve" smooth="yes"/>
      <point x="936.05" y="124.0"/>
      <point x="920.9509302325581" y="144.0"/>
      <point x="883.2032558139534" y="144.0" type="curve" smooth="yes"/>
      <point x="443.0" y="144.0" type="line" smooth="yes"/>
      <point x="417.56" y="144.0"/>
      <point x="395.0" y="166.56"/>
      <point x="395.0" y="192.0" type="curve" smooth="yes"/>
      <point x="395.0" y="1132.0" type="line" smooth="yes"/>
      <point x="395.0" y="1178.0"/>
      <point x="377.0" y="1197.0"/>
      <point x="321.0" y="1197.0" type="curve" smooth="yes"/>
    </contour>
  </outline>
</glyph>
<glyph name="l" format="2">
  <advance width="1228"/>
  <unicode hex="006C"/>
  <outline>
    <contour>
      <point x="475.26480263157896" y="144.0" type="line" smooth="yes"/>
      <point x="464.08881578947364" y="144.0"/>
      <point x="459.61842105263156" y="124.0"/>
      <point x="459.61842105263156" y="72.0" type="curve" smooth="yes"/>
      <point x="459.61842105263156" y="20.0"/>
      <point x="464.08881578947364" y="0.0"/>
      <point x="475.26480263157896" y="0.0" type="curve" smooth="yes"/>
      <point x="782.7220394736842" y="0.0" type="line" smooth="yes"/>
      <point x="793.8980263157895" y="0.0"/>
      <point x="798.3684210526316" y="20.0"/>
      <point x="798.3684210526316" y="72.0" type="curve" smooth="yes"/>
      <point x="798.3684210526316" y="124.0"/>
      <point x="793.8980263157895" y="144.0"/>
      <point x="782.7220394736842" y="144.0" type="curve" smooth="yes"/>
      <point x="736.4832565789474" y="144.0" type="line" smooth="yes"/>
      <point x="718.7371305921052" y="144.0"/>
      <point x="703.0" y="159.73713059210525"/>
      <point x="703.0" y="177.48325657894736" type="curve" smooth="yes"/>
      <point x="703.0" y="1244.0" type="line" smooth="yes"/>
      <point x="703.0" y="1294.0"/>
      <point x="685.0" y="1312.0"/>
      <point x="640.0" y="1312.0" type="curve" smooth="yes"/>
      <point x="485.19901315789474" y="1312.0" type="line" smooth="yes"/>
      <point x="474.0230263157895" y="1312.0"/>
      <point x="469.55263157894734" y="1292.0"/>
      <point x="469.55263157894734" y="1240.0" type="curve" smooth="yes"/>
      <point x="469.55263157894734" y="1188.0"/>
      <point x="474.0230263157895" y="1168.0"/>
      <point x="485.19901315789474" y="1168.0" type="curve" smooth="yes"/>
      <point x="524.5235855263157" y="1168.0" type="line" smooth="yes"/>
      <point x="539.6160851973684" y="1168.0"/>
      <point x="553.0" y="1154.6160851973684"/>
      <point x="553.0" y="1139.5235855263159" type="curve" smooth="yes"/>
      <point x="553.0" y="176.64878289473683" type="line" smooth="yes"/>
      <point x="553.0" y="159.34492796052632"/>
      <point x="537.6550720394737" y="144.0"/>
      <point x="520.3512171052631" y="144.0" type="curve" smooth="yes"/>
    </contour>
  </outline>
</glyph>
<glyph name="t" format="2">
  <advance width="1228"/>
  <unicode hex="0074"/>
  <outline>
    <contour>
      <point x="383.0" y="1144.0" type="curve" smooth="yes"/>
      <point x="383.0" y="880.119303334137" type="line" smooth="yes"/>
      <point x="383.0" y="860.9760725670444"/>
      <point x="366.0239274329556" y="844.0"/>
      <point x="346.88069666586296" y="844.0" type="curve" smooth="yes"/>
      <point x="297.00165872824516" y="844.0" type="line" smooth="yes"/>
      <point x="277.9379870177577" y="844.0"/>
      <point x="270.31251833356265" y="824.0"/>
      <point x="270.31251833356265" y="772.0" type="curve" smooth="yes"/>
      <point x="270.31251833356265" y="720.0"/>
      <point x="277.9379870177577" y="700.0"/>
      <point x="297.00165872824516" y="700.0" type="curve" smooth="yes"/>
      <point x="346.88069666586296" y="700.0" type="line" smooth="yes"/>
      <point x="366.0239274329556" y="700.0"/>
      <point x="383.0" y="683.0239274329556"/>
      <point x="383.0" y="663.880696665863" type="curve" smooth="yes"/>
      <point x="383.0" y="331.0" type="line" smooth="yes"/>
      <point x="383.0" y="102.0"/>
      <point x="478.0" y="-22.0"/>
      <point x="607.9837753945842" y="-22.0" type="curve" smooth="yes"/>
      <point x="656.7020475436079" y="-22.0"/>
      <point x="715.1639741224363" y="27.0"/>
      <point x="757.5276890346308" y="90.0" type="curve" smooth="yes"/>
      <point x="771.507714955655" y="111.0"/>
      <point x="776.5913607451183" y="139.0"/>
      <point x="766.0004320170697" y="187.0" type="curve" smooth="yes"/>
      <point x="755.4095032890211" y="235.0"/>
      <point x="741.0058402188749" y="243.0"/>
      <point x="728.2967257452167" y="223.0" type="curve" smooth="yes"/>
      <point x="691.4402937716075" y="166.0"/>
      <point x="647.3820302629251" y="124.0"/>
      <point x="607.9837753945842" y="124.0" type="curve" smooth="yes"/>
      <point x="551.6400345613656" y="124.0"/>
      <point x="533.0" y="197.0"/>
      <point x="533.0" y="344.0" type="curve" smooth="yes"/>
      <point x="533.0" y="652.0" type="line" smooth="yes"/>
      <point x="533.0" y="677.44"/>
      <point x="555.56" y="700.0"/>
      <point x="581.0" y="700.0" type="curve" smooth="yes"/>
      <point x="707.1148682891194" y="700.0" type="line" smooth="yes"/>
      <point x="726.1785399996069" y="700.0"/>
      <point x="733.8040086838018" y="720.0"/>
      <point x="733.8040086838018" y="772.0" type="curve" smooth="yes"/>
      <point x="733.8040086838018" y="824.0"/>
      <point x="726.1785399996069" y="844.0"/>
      <point x="707.1148682891194" y="844.0" type="curve" smooth="yes"/>
      <point x="581.0" y="844.0" type="line" smooth="yes"/>
      <point x="555.56" y="844.0"/>
      <point x="533.0" y="866.56"/>
      <point x="533.0" y="892.0" type="curve" smooth="yes"/>
      <point x="533.0" y="1144.0" type="line" smooth="yes"/>
      <point x="533.0" y="1190.0"/>
      <point x="514.0" y="1209.0"/>
      <point x="458.0" y="1209.0" type="curve" smooth="yes"/>
      <point x="402.0" y="1209.0"/>
      <point x="383.0" y="1190.0"/>
    </contour>
  </outline>
</glyph>
<glyph name="Lslash" format="2">
  <advance width="1228"/>
  <unicode hex="0141"/>
  <outline>
    <contour>
      <point x="92.0" y="468.0" type="line" smooth="yes"/>
      <point x="55.0" y="443.0"/>
      <point x="50.0" y="418.0"/>
      <point x="78.0" y="377.0" type="curve" smooth="yes"/>
      <point x="106.0" y="335.0"/>
      <point x="132.0" y="331.0"/>
      <point x="169.0" y="356.0" type="curve" smooth="yes"/>
      <point x="265.3101220104868" y="421.5044194894965" type="line" smooth="yes"/>
      <point x="286.3457573449288" y="435.81160810488757"/>
      <point x="305.0" y="425.9391149902344"/>
      <point x="305.0" y="400.4991149902344" type="curve" smooth="yes"/>
      <point x="305.0" y="68.0" type="line" smooth="yes"/>
      <point x="305.0" y="18.0"/>
      <point x="322.0" y="0.0"/>
      <point x="368.0" y="0.0" type="curve" smooth="yes"/>
      <point x="977.0" y="0.0" type="line" smooth="yes"/>
      <point x="1022.0" y="0.0"/>
      <point x="1040.0" y="20.0"/>
      <point x="1040.0" y="72.0" type="curve" smooth="yes"/>
      <point x="1040.0" y="124.0"/>
      <point x="1022.0" y="144.0"/>
      <point x="977.0" y="144.0" type="curve" smooth="yes"/>
      <point x="503.0" y="144.0" type="line" smooth="yes"/>
      <point x="477.56" y="144.0"/>
      <point x="455.0" y="166.56"/>
      <point x="455.0" y="192.0" type="curve" smooth="yes"/>
      <point x="455.0" y="502.52020263671875" type="line" smooth="yes"/>
      <point x="455.0" y="527.9602026367188"/>
      <point x="473.6542420016373" y="563.2077104827991"/>
      <point x="494.6898765992282" y="577.5149001815706" type="curve" smooth="yes"/>
      <point x="738.0" y="743.0" type="line" smooth="yes"/>
      <point x="775.0" y="768.0"/>
      <point x="780.0" y="793.0"/>
      <point x="752.0" y="834.0" type="curve" smooth="yes"/>
      <point x="724.0" y="876.0"/>
      <point x="698.0" y="880.0"/>
      <point x="661.0" y="855.0" type="curve" smooth="yes"/>
      <point x="494.68987851223756" y="741.8857469782781" type="line" smooth="yes"/>
      <point x="473.6542429007516" y="727.5785587702204"/>
      <point x="455.0" y="737.4510522460937"/>
      <point x="455.0" y="762.8910522460938" type="curve" smooth="yes"/>
      <point x="455.0" y="1132.0" type="line" smooth="yes"/>
      <point x="455.0" y="1178.0"/>
      <point x="437.0" y="1197.0"/>
      <point x="381.0" y="1197.0" type="curve" smooth="yes"/>
      <point x="379.0" y="1197.0" type="line" smooth="yes"/>
      <point x="323.0" y="1197.0"/>
      <point x="305.0" y="1178.0"/>
      <point x="305.0" y="1132.0" type="curve" smooth="yes"/>
      <point x="305.0" y="660.8699340820312" type="line" smooth="yes"/>
      <point x="305.0" y="635.4299340820312"/>
      <point x="286.3457572078482" y="600.182427398232"/>
      <point x="265.3101217188259" y="585.8752390101179" type="curve" smooth="yes"/>
    </contour>
  </outline>
</glyph>
<glyph name="uni018E" format="2">
  <advance width="1228"/>
  <unicode hex="018E"/>
  <outline>
    <contour>
      <point x="1028.0" y="61.0" type="curve" smooth="yes"/>
      <point x="1028.0" y="125.0"/>
      <point x="977.0" y="125.0"/>
      <point x="944.0" y="125.0" type="curve" smooth="yes"/>
      <point x="908.62" y="125.0" type="line" smooth="yes"/>
      <point x="895.0414" y="125.0"/>
      <point x="883.0" y="137.0414"/>
      <point x="883.0" y="150.62" type="curve" smooth="yes"/>
      <point x="883.0" y="1100.38" type="line" smooth="yes"/>
      <point x="883.0" y="1113.9586000000002"/>
      <point x="895.0414" y="1126.0"/>
      <point x="908.62" y="1126.0" type="curve" smooth="yes"/>
      <point x="944.0" y="1126.0" type="line" smooth="yes"/>
      <point x="975.0" y="1126.0"/>
      <point x="1028.0" y="1126.0"/>
      <point x="1028.0" y="1190.0" type="curve" smooth="yes"/>
      <point x="1028.0" y="1251.0"/>
      <point x="975.0" y="1251.0"/>
      <point x="944.0" y="1251.0" type="curve" smooth="yes"/>
      <point x="180.0" y="1251.0" type="line" smooth="yes"/>
      <point x="111.0" y="1251.0"/>
      <point x="98.0" y="1231.0"/>
      <point x="98.0" y="1167.0" type="curve" smooth="yes"/>
      <point x="98.0" y="1018.0" type="line" smooth="yes"/>
      <point x="98.0" y="977.0"/>
      <point x="98.0" y="934.0"/>
      <point x="170.0" y="934.0" type="curve" smooth="yes"/>
      <point x="240.0" y="934.0"/>
      <point x="240.0" y="979.0"/>
      <point x="240.0" y="1018.0" type="curve" smooth="yes"/>
      <point x="240.0" y="1080.64" type="line" smooth="yes"/>
      <point x="240.0" y="1104.6808"/>
      <point x="261.3192" y="1126.0"/>
      <point x="285.36" y="1126.0" type="curve" smooth="yes"/>
      <point x="693.0" y="1126.0" type="line" smooth="yes"/>
      <point x="718.44" y="1126.0"/>
      <point x="741.0" y="1103.44"/>
      <point x="741.0" y="1078.0" type="curve" smooth="yes"/>
      <point x="741.0" y="759.0" type="line" smooth="yes"/>
      <point x="741.0" y="733.56"/>
      <point x="718.44" y="711.0"/>
      <point x="693.0" y="711.0" type="curve" smooth="yes"/>
      <point x="508.28" y="711.0" type="line" smooth="yes"/>
      <point x="489.5816" y="711.0"/>
      <point x="473.0" y="727.5816"/>
      <point x="473.0" y="746.28" type="curve" smooth="yes"/>
      <point x="473.0" y="795.0"/>
      <point x="473.0" y="827.0"/>
      <point x="401.0" y="827.0" type="curve" smooth="yes"/>
      <point x="332.0" y="827.0"/>
      <point x="332.0" y="782.0"/>
      <point x="332.0" y="743.0" type="curve" smooth="yes"/>
      <point x="332.0" y="553.0" type="line" smooth="yes"/>
      <point x="332.0" y="514.0"/>
      <point x="332.0" y="469.0"/>
      <point x="401.0" y="469.0" type="curve" smooth="yes"/>
      <point x="473.0" y="469.0"/>
      <point x="473.0" y="502.0"/>
      <point x="473.0" y="550.72" type="curve" smooth="yes"/>
      <point x="473.0" y="569.4184"/>
      <point x="489.5816" y="586.0"/>
      <point x="508.28" y="586.0" type="curve" smooth="yes"/>
      <point x="693.0" y="586.0" type="line" smooth="yes"/>
      <point x="718.44" y="586.0"/>
      <point x="741.0" y="563.44"/>
      <point x="741.0" y="538.0" type="curve" smooth="yes"/>
      <point x="741.0" y="173.0" type="line" smooth="yes"/>
      <point x="741.0" y="147.56"/>
      <point x="718.44" y="125.0"/>
      <point x="693.0" y="125.0" type="curve" smooth="yes"/>
      <point x="243.0" y="125.0" type="line" smooth="yes"/>
      <point x="217.56" y="125.0"/>
      <point x="195.0" y="147.56"/>
      <point x="195.0" y="173.0" type="curve" smooth="yes"/>
      <point x="195.0" y="266.0" type="line" smooth="yes"/>
      <point x="195.0" y="307.0"/>
      <point x="195.0" y="350.0"/>
      <point x="123.0" y="350.0" type="curve" smooth="yes"/>
      <point x="53.0" y="350.0"/>
      <point x="53.0" y="305.0"/>
      <point x="53.0" y="266.0" type="curve" smooth="yes"/>
      <point x="53.0" y="84.0" type="line" smooth="yes"/>
      <point x="53.0" y="18.0"/>
      <point x="68.0" y="0.0"/>
      <point x="135.0" y="0.0" type="curve" smooth="yes"/>
      <point x="944.0" y="0.0" type="line" smooth="yes"/>
      <point x="975.0" y="0.0"/>
      <point x="1028.0" y="0.0"/>
    </contour>
  </outline>
</glyph>
<glyph name="uni01CF" format="2">
  <advance width="1228"/>
  <unicode hex="01CF"/>
  <outline>
    <contour>
      <point x="263.0" y="144.0" type="line" smooth="yes"/>
      <point x="218.0" y="144.0"/>
      <point x="200.0" y="124.0"/>
      <point x="200.0" y="72.0" type="curve" smooth="yes"/>
      <point x="200.0" y="20.0"/>
      <point x="218.0" y="0.0"/>
      <point x="263.0" y="0.0" type="curve" smooth="yes"/>
      <point x="965.0" y="0.0" type="line" smooth="yes"/>
      <point x="1010.0" y="0.0"/>
      <point x="1028.0" y="20.0"/>
      <point x="1028.0" y="72.0" type="curve" smooth="yes"/>
      <point x="1028.0" y="124.0"/>
      <point x="1010.0" y="144.0"/>
      <point x="965.0" y="144.0" type="curve" smooth="yes"/>
      <point x="737.0" y="144.0" type="line" smooth="yes"/>
      <point x="711.56" y="144.0"/>
      <point x="689.0" y="166.56"/>
      <point x="689.0" y="192.0" type="curve" smooth="yes"/>
      <point x="689.0" y="995.0" type="line" smooth="yes"/>
      <point x="689.0" y="1020.44"/>
      <point x="711.56" y="1043.0"/>
      <point x="737.0" y="1043.0" type="curve" smooth="yes"/>
      <point x="945.0" y="1043.0" type="line" smooth="yes"/>
      <point x="990.0" y="1043.0"/>
      <point x="1008.0" y="1063.0"/>
      <point x="1008.0" y="1115.0" type="curve" smooth="yes"/>
      <point x="1008.0" y="1167.0"/>
      <point x="990.0" y="1187.0"/>
      <point x="945.0" y="1187.0" type="curve" smooth="yes"/>
      <point x="283.0" y="1187.0" type="line" smooth="yes"/>
      <point x="238.0" y="1187.0"/>
      <point x="220.0" y="1167.0"/>
      <point x="220.0" y="1115.0" type="curve" smooth="yes"/>
      <point x="220.0" y="1063.0"/>
      <point x="238.0" y="1043.0"/>
      <point x="283.0" y="1043.0" type="curve" smooth="yes"/>
      <point x="491.0" y="1043.0" type="line" smooth="yes"/>
      <point x="516.44" y="1043.0"/>
      <point x="539.0" y="1020.44"/>
      <point x="539.0" y="995.0" type="curve" smooth="yes"/>
      <point x="539.0" y="192.0" type="line" smooth="yes"/>
      <point x="539.0" y="166.56"/>
      <point x="516.44" y="144.0"/>
      <point x="491.0" y="144.0" type="curve" smooth="yes"/>
    </contour>
    <contour>
      <point x="799.0" y="1450.0" type="line" smooth="yes"/>
      <point x="872.0" y="1477.0"/>
      <point x="836.0" y="1588.0"/>
      <point x="762.0" y="1565.0" type="curve" smooth="yes"/>
      <point x="584.9128593499661" y="1511.0003337928147" type="line" smooth="yes"/>
      <point x="560.579043894484" y="1503.580156882623"/>
      <point x="517.4127741909391" y="1503.5532649777506"/>
      <point x="493.06973232114694" y="1510.9431169739375" type="curve" smooth="yes"/>
      <point x="315.0" y="1565.0" type="line" smooth="yes"/>
      <point x="242.0" y="1588.0"/>
      <point x="205.0" y="1477.0"/>
      <point x="276.0" y="1450.0" type="curve" smooth="yes"/>
      <point x="518.0" y="1362.0" type="line" smooth="yes"/>
      <point x="530.0" y="1358.0"/>
      <point x="545.0" y="1358.0"/>
      <point x="557.0" y="1362.0" type="curve" smooth="yes"/>
    </contour>
  </outline>
</glyph>
<glyph name="uni01DD" format="2">
  <advance width="1228"/>
  <unicode hex="01DD"/>
  <outline>
    <contour>
      <point x="950.0" y="444.0" type="curve" smooth="yes"/>
      <point x="950.0" y="694.0"/>
      <point x="743.0" y="901.0"/>
      <point x="479.0" y="901.0" type="curve" smooth="yes"/>
      <point x="209.0" y="901.0"/>
      <point x="113.0" y="717.0"/>
      <point x="113.0" y="666.0" type="curve" smooth="yes"/>
      <point x="113.0" y="608.0"/>
      <point x="172.0" y="608.0"/>
      <point x="184.0" y="608.0" type="curve" smooth="yes"/>
      <point x="221.0" y="608.0"/>
      <point x="238.0" y="614.0"/>
      <point x="252.0" y="653.0" type="curve"/>
      <point x="297.0" y="758.0"/>
      <point x="408.0" y="776.0"/>
      <point x="465.0" y="776.0" type="curve" smooth="yes"/>
      <point x="618.0" y="776.0"/>
      <point x="772.0" y="674.0"/>
      <point x="796.1541503175911" y="545.1778649728475" type="curve" smooth="yes"/>
      <point x="800.8424506492678" y="520.1735965372383"/>
      <point x="782.44" y="498.0"/>
      <point x="757.0" y="498.0" type="curve" smooth="yes"/>
      <point x="195.0" y="498.0" type="line" smooth="yes"/>
      <point x="152.0" y="498.0"/>
      <point x="113.0" y="498.0"/>
      <point x="113.0" y="422.0" type="curve" smooth="yes"/>
      <point x="113.0" y="188.0"/>
      <point x="244.0" y="-12.0"/>
      <point x="510.0" y="-12.0" type="curve" smooth="yes"/>
      <point x="754.0" y="-12.0"/>
      <point x="950.0" y="193.0"/>
    </contour>
    <contour>
      <point x="755.0" y="375.0" type="line" smooth="yes"/>
      <point x="780.44" y="375.0"/>
      <point x="798.7176972881402" y="352.85015838693204"/>
      <point x="793.8887176343409" y="327.8726774190043" type="curve" smooth="yes"/>
      <point x="774.0" y="225.0"/>
      <point x="653.0" y="113.0"/>
      <point x="510.0" y="113.0" type="curve" smooth="yes"/>
      <point x="403.0" y="113.0"/>
      <point x="276.0" y="164.0"/>
      <point x="262.0799677318643" y="327.1737115875908" type="curve" smooth="yes"/>
      <point x="259.9175848339762" y="352.52164444616767"/>
      <point x="280.56" y="375.0"/>
      <point x="306.0" y="375.0" type="curve" smooth="yes"/>
    </contour>
  </outline>
</glyph>
<glyph name="Aringacute" format="2">
  <advance width="1228"/>
  <unicode hex="01FA"/>
  <outline>
    <contour>
      <point x="500.0" y="1144.0" type="curve" smooth="yes"/>
      <point x="106.0" y="84.0" type="line" smooth="yes"/>
      <point x="90.0" y="40.0"/>
      <point x="103.0" y="16.0"/>
      <point x="157.0" y="-2.0" type="curve" smooth="yes"/>
      <point x="210.0" y="-20.0"/>
      <point x="235.0" y="-8.0"/>
      <point x="251.0" y="36.0" type="curve" smooth="yes"/>
      <point x="343.3383049662116" y="284.99500583520427" type="line" smooth="yes"/>
      <point x="352.183916053846" y="308.847652742546"/>
      <point x="382.58813720703125" y="330.0"/>
      <point x="408.02813720703125" y="330.0" type="curve" smooth="yes"/>
      <point x="815.9718627929688" y="330.0" type="line" smooth="yes"/>
      <point x="841.4118627929688" y="330.0"/>
      <point x="871.816083946154" y="308.847652742546"/>
      <point x="880.6616950337884" y="284.99500583520427" type="curve" smooth="yes"/>
      <point x="973.0" y="36.0" type="line" smooth="yes"/>
      <point x="989.0" y="-8.0"/>
      <point x="1014.0" y="-20.0"/>
      <point x="1067.0" y="-2.0" type="curve" smooth="yes"/>
      <point x="1121.0" y="16.0"/>
      <point x="1134.0" y="40.0"/>
      <point x="1118.0" y="84.0" type="curve" smooth="yes"/>
      <point x="724.0" y="1144.0" type="line" smooth="yes"/>
      <point x="707.0" y="1191.0"/>
      <point x="675.0" y="1209.0"/>
      <point x="612.0" y="1209.0" type="curve" smooth="yes"/>
      <point x="549.0" y="1209.0"/>
      <point x="517.0" y="1191.0"/>
    </contour>
    <contour>
      <point x="368.0" y="1551.0" type="curve" smooth="yes"/>
      <point x="368.0" y="1411.0"/>
      <point x="474.0" y="1305.0"/>
      <point x="614.0" y="1305.0" type="curve" smooth="yes"/>
      <point x="754.0" y="1305.0"/>
      <point x="860.0" y="1411.0"/>
      <point x="860.0" y="1551.0" type="curve" smooth="yes"/>
      <point x="860.0" y="1653.8275146484375"/>
      <point x="802.81689453125" y="1738.313232421875"/>
      <point x="753.0308471679688" y="1760.1302807617187" type="curve" smooth="yes"/>
      <point x="733.9233055419922" y="1768.5035134521484"/>
      <point x="732.9432620721257" y="1785.2769573602395"/>
      <point x="750.9456482959123" y="1795.8184592895723" type="curve" smooth="yes"/>
      <point x="893.0" y="1879.0" type="line" smooth="yes"/>
      <point x="921.0" y="1895.0"/>
      <point x="927.0" y="1933.0"/>
      <point x="885.0" y="1986.0" type="curve" smooth="yes"/>
      <point x="848.0" y="2032.0"/>
      <point x="811.0" y="2036.0"/>
      <point x="781.0" y="2014.0" type="curve" smooth="yes"/>
      <point x="433.0" y="1758.0" type="line" smooth="yes"/>
      <point x="416.390625" y="1745.3768310546875"/>
      <point x="413.0230712890625" y="1727.015625"/>
      <point x="417.559560546875" y="1715.2491015625" type="curve" smooth="yes"/>
      <point x="419.30063383789064" y="1710.733191015625"/>
      <point x="418.17097260252757" y="1703.3709922990645"/>
      <point x="415.1560260035493" y="1699.5848489740736" type="curve" smooth="yes"/>
      <point x="387.5099792480469" y="1664.8671875"/>
      <point x="368.0" y="1611.0625"/>
    </contour>
    <contour>
      <point x="460.2555236816406" y="474.0" type="line" smooth="yes"/>
      <point x="434.8155236816406" y="474.0"/>
      <point x="419.66131699988546" y="495.3098058491259"/>
      <point x="428.01253074173604" y="519.3400124449487" type="curve" smooth="yes"/>
      <point x="610.0" y="1043.0" type="line"/>
      <point x="614.0" y="1043.0" type="line"/>
      <point x="795.6750538956734" y="519.3483178946525" type="line" smooth="yes"/>
      <point x="804.0135906385837" y="495.3137094104867"/>
      <point x="788.8481420898438" y="474.0"/>
      <point x="763.4081420898438" y="474.0" type="curve" smooth="yes"/>
    </contour>
    <contour>
      <point x="728.0" y="1551.0" type="curve" smooth="yes"/>
      <point x="728.0" y="1482.0"/>
      <point x="683.0" y="1437.0"/>
      <point x="614.0" y="1437.0" type="curve" smooth="yes"/>
      <point x="545.0" y="1437.0"/>
      <point x="500.0" y="1482.0"/>
      <point x="500.0" y="1551.0" type="curve" smooth="yes"/>
      <point x="500.0" y="1620.0"/>
      <point x="545.0" y="1665.0"/>
      <point x="614.0" y="1665.0" type="curve" smooth="yes"/>
      <point x="683.0" y="1665.0"/>
      <point x="728.0" y="1620.0"/>
    </contour>
  </outline>
</glyph>
<glyph name="oslashacute" format="2">
  <advance width="1228"/>
  <unicode hex="01FF"/>
  <outline>
    <contour>
      <point x="108.0" y="71.0" type="line" smooth="yes"/>
      <point x="75.0" y="39.0"/>
      <point x="76.0" y="11.0"/>
      <point x="110.0" y="-24.0" type="curve" smooth="yes"/>
      <point x="144.0" y="-59.0"/>
      <point x="172.0" y="-61.0"/>
      <point x="205.0" y="-29.0" type="curve" smooth="yes"/>
      <point x="283.08842233061597" y="46.26904736754944" type="line" smooth="yes"/>
      <point x="299.43770565115125" y="62.02804138933515"/>
      <point x="329.8793755432129" y="63.70192311897278"/>
      <point x="347.8579327392578" y="49.83049785614014" type="curve" smooth="yes"/>
      <point x="394.70233154296875" y="13.687520980834961"/>
      <point x="497.99102783203125" y="-22.0"/>
      <point x="614.0" y="-22.0" type="curve" smooth="yes"/>
      <point x="890.0" y="-22.0"/>
      <point x="1094.0" y="180.0"/>
      <point x="1094.0" y="462.0" type="curve" smooth="yes"/>
      <point x="1094.0" y="571.2860107421875"/>
      <point x="1063.3619384765625" y="668.5570678710938"/>
      <point x="1032.2778466796874" y="713.887197265625" type="curve" smooth="yes"/>
      <point x="1020.3479866210937" y="731.2845883056641"/>
      <point x="1023.237226216748" y="759.6947321302107"/>
      <point x="1038.4251649683135" y="774.334311785937" type="curve" smooth="yes"/>
      <point x="1119.0" y="852.0" type="line" smooth="yes"/>
      <point x="1153.0" y="884.0"/>
      <point x="1152.0" y="913.0"/>
      <point x="1118.0" y="948.0" type="curve" smooth="yes"/>
      <point x="1084.0" y="983.0"/>
      <point x="1055.0" y="985.0"/>
      <point x="1022.0" y="953.0" type="curve" smooth="yes"/>
      <point x="944.3472511968705" y="878.0659548409382" type="line" smooth="yes"/>
      <point x="928.0387408994432" y="862.3284224812957"/>
      <point x="897.6474512817383" y="860.6277435424805"/>
      <point x="879.6849328613281" y="874.4474890136719" type="curve" smooth="yes"/>
      <point x="832.88232421875" y="910.455810546875"/>
      <point x="729.7757568359375" y="946.0"/>
      <point x="614.0" y="946.0" type="curve" smooth="yes"/>
      <point x="338.0" y="946.0"/>
      <point x="134.0" y="744.0"/>
      <point x="134.0" y="462.0" type="curve" smooth="yes"/>
      <point x="134.0" y="352.7377014160156"/>
      <point x="164.624755859375" y="255.485107421875"/>
      <point x="195.69634246826172" y="210.1600048828125" type="curve" smooth="yes"/>
      <point x="207.62140312194825" y="192.76454311523437"/>
      <point x="204.7380151347815" y="164.35112939719218"/>
      <point x="189.56147441046016" y="149.70593314229717" type="curve" smooth="yes"/>
    </contour>
    <contour>
      <point x="940.0" y="462.0" type="curve" smooth="yes"/>
      <point x="940.0" y="265.0"/>
      <point x="810.0" y="126.0"/>
      <point x="614.0" y="126.0" type="curve" smooth="yes"/>
      <point x="539.7997436523438" y="126.0"/>
      <point x="475.0584411621094" y="145.9210968017578"/>
      <point x="445.008642578125" y="166.48063476562498" type="curve" smooth="yes"/>
      <point x="433.47573712158203" y="174.37124364624023"/>
      <point x="432.1704536989222" y="189.968455661062"/>
      <point x="442.23144380650837" y="199.66619224396916" type="curve" smooth="yes"/>
      <point x="880.5824678045456" y="622.1904881753651" type="line" smooth="yes"/>
      <point x="889.7416547655973" y="631.0189813467184"/>
      <point x="903.2461388183594" y="628.9335038452149"/>
      <point x="909.3154125976563" y="617.7533020019531" type="curve" smooth="yes"/>
      <point x="925.1293334960938" y="588.6224975585938"/>
      <point x="940.0" y="528.6285400390625"/>
    </contour>
    <contour>
      <point x="347.32031149803703" y="301.9414979638852" type="line" smooth="yes"/>
      <point x="338.17360670681177" y="293.11502784673695"/>
      <point x="324.6894508972168" y="295.19684147949215"/>
      <point x="318.6306182861328" y="306.370888671875" type="curve" smooth="yes"/>
      <point x="302.8439025878906" y="335.48565673828125"/>
      <point x="288.0" y="395.4314880371094"/>
      <point x="288.0" y="462.0" type="curve" smooth="yes"/>
      <point x="288.0" y="659.0"/>
      <point x="418.0" y="798.0"/>
      <point x="614.0" y="798.0" type="curve" smooth="yes"/>
      <point x="687.989990234375" y="798.0"/>
      <point x="752.5746459960938" y="778.191650390625"/>
      <point x="782.5816455078125" y="757.74126953125" type="curve" smooth="yes"/>
      <point x="794.098124975586" y="749.8925543945313"/>
      <point x="795.4174505476383" y="734.3503378332101"/>
      <point x="785.3887211930303" y="724.6727236560987" type="curve" smooth="yes"/>
    </contour>
    <contour>
      <point x="423.0" y="1146.0" type="line" smooth="yes"/>
      <point x="398.0" y="1127.0"/>
      <point x="403.0" y="1095.0"/>
      <point x="431.0" y="1063.0" type="curve" smooth="yes"/>
      <point x="457.0" y="1034.0"/>
      <point x="483.0" y="1033.0"/>
      <point x="509.0" y="1048.0" type="curve" smooth="yes"/>
      <point x="883.0" y="1267.0" type="line" smooth="yes"/>
      <point x="911.0" y="1283.0"/>
      <point x="917.0" y="1321.0"/>
      <point x="875.0" y="1374.0" type="curve" smooth="yes"/>
      <point x="838.0" y="1420.0"/>
      <point x="801.0" y="1424.0"/>
      <point x="771.0" y="1402.0" type="curve" smooth="yes"/>
    </contour>
  </outline>
</glyph>
<glyph name="uni0237" format="2">
  <advance width="1228"/>
  <unicode hex="0237"/>
  <outline>
    <contour>
      <point x="611.2780414431925" y="924.0" type="line" smooth="yes"/>
      <point x="596.2012373414044" y="924.0"/>
      <point x="590.1705157006892" y="904.0"/>
      <point x="590.1705157006892" y="852.0" type="curve" smooth="yes"/>
      <point x="590.1705157006892" y="800.0"/>
      <point x="596.2012373414044" y="780.0"/>
      <point x="611.2780414431925" y="780.0" type="curve" smooth="yes"/>
      <point x="705.0" y="780.0" type="line" smooth="yes"/>
      <point x="730.44" y="780.0"/>
      <point x="753.0" y="757.44"/>
      <point x="753.0" y="732.0" type="curve" smooth="yes"/>
      <point x="753.0" y="-44.0" type="line" smooth="yes"/>
      <point x="753.0" y="-191.0"/>
      <point x="738.5932760805136" y="-264.0"/>
      <point x="693.6979038663004" y="-264.0" type="curve" smooth="yes"/>
      <point x="662.5391753892718" y="-264.0"/>
      <point x="627.6950059095839" y="-222.0"/>
      <point x="598.5465179794603" y="-165.0" type="curve" smooth="yes"/>
      <point x="588.495315244935" y="-145.0"/>
      <point x="577.1039521458063" y="-153.0"/>
      <point x="568.7279498670351" y="-201.0" type="curve" smooth="yes"/>
      <point x="560.351947588264" y="-249.0"/>
      <point x="564.3724286820741" y="-277.0"/>
      <point x="575.428751690052" y="-298.0" type="curve" smooth="yes"/>
      <point x="608.9327608051365" y="-361.0"/>
      <point x="655.1682933839531" y="-410.0"/>
      <point x="693.6979038663004" y="-410.0" type="curve" smooth="yes"/>
      <point x="808.0" y="-410.0"/>
      <point x="903.0" y="-286.0"/>
      <point x="903.0" y="-57.0" type="curve" smooth="yes"/>
      <point x="903.0" y="856.0" type="line" smooth="yes"/>
      <point x="903.0" y="906.0"/>
      <point x="885.0" y="924.0"/>
      <point x="840.0" y="924.0" type="curve" smooth="yes"/>
    </contour>
  </outline>
</glyph>
<glyph name="ogonek" format="2">
  <advance width="1228"/>
  <unicode hex="02DB"/>
  <outline>
    <contour>
      <point x="647.0" y="28.0" type="line" smooth="yes"/>
      <point x="621.56" y="28.0"/>
      <point x="581.8180887070287" y="13.380303548962992"/>
      <point x="562.4427419298482" y="-3.105737129865979" type="curve" smooth="yes"/>
      <point x="485.0" y="-69.0"/>
      <point x="411.0" y="-168.0"/>
      <point x="411.0" y="-281.0" type="curve" smooth="yes"/>
      <point x="411.0" y="-397.0"/>
      <point x="487.0" y="-472.0"/>
      <point x="611.0" y="-472.0" type="curve" smooth="yes"/>
      <point x="673.0" y="-472.0"/>
      <point x="729.0" y="-462.0"/>
      <point x="775.0" y="-446.0" type="curve" smooth="yes"/>
      <point x="804.0" y="-436.0"/>
      <point x="814.0" y="-414.0"/>
      <point x="807.0" y="-368.0" type="curve" smooth="yes"/>
      <point x="800.0" y="-324.0"/>
      <point x="783.0" y="-309.0"/>
      <point x="757.0" y="-316.0" type="curve" smooth="yes"/>
      <point x="721.0" y="-326.0"/>
      <point x="683.0" y="-333.0"/>
      <point x="644.0" y="-333.0" type="curve" smooth="yes"/>
      <point x="598.0" y="-333.0"/>
      <point x="567.0" y="-307.0"/>
      <point x="567.0" y="-260.0" type="curve" smooth="yes"/>
      <point x="567.0" y="-181.0"/>
      <point x="622.0" y="-98.0"/>
      <point x="728.096466650311" y="-3.8580648032451776" type="curve" smooth="yes"/>
      <point x="747.1253393256461" y="13.026709542474766"/>
      <point x="741.44" y="28.0"/>
      <point x="716.0" y="28.0" type="curve" smooth="yes"/>
    </contour>
  </outline>
</glyph>
<glyph name="Gamma" format="2">
  <advance width="1228"/>
  <unicode hex="0393"/>
  <outline>
    <contour>
      <point x="1004.0" y="1018.0" type="curve" smooth="yes"/>
      <point x="1004.0" y="1167.0" type="line" smooth="yes"/>
      <point x="1004.0" y="1231.0"/>
      <point x="991.0" y="1251.0"/>
      <point x="922.0" y="1251.0" type="curve" smooth="yes"/>
      <point x="152.0" y="1251.0" type="line" smooth="yes"/>
      <point x="119.0" y="1251.0"/>
      <point x="70.0" y="1251.0"/>
      <point x="70.0" y="1188.0" type="curve" smooth="yes"/>
      <point x="70.0" y="1126.0"/>
      <point x="123.0" y="1126.0"/>
      <point x="152.0" y="1126.0" type="curve" smooth="yes"/>
      <point x="196.66" y="1126.0" type="line" smooth="yes"/>
      <point x="213.8002" y="1126.0"/>
      <point x="229.0" y="1110.8002000000001"/>
      <point x="229.0" y="1093.66" type="curve" smooth="yes"/>
      <point x="229.0" y="157.34" type="line" smooth="yes"/>
      <point x="229.0" y="140.1998"/>
      <point x="213.8002" y="125.0"/>
      <point x="196.66" y="125.0" type="curve" smooth="yes"/>
      <point x="152.0" y="125.0" type="line" smooth="yes"/>
      <point x="119.0" y="125.0"/>
      <point x="70.0" y="125.0"/>
      <point x="70.0" y="61.0" type="curve" smooth="yes"/>
      <point x="70.0" y="0.0"/>
      <point x="123.0" y="0.0"/>
      <point x="152.0" y="0.0" type="curve" smooth="yes"/>
      <point x="483.0" y="0.0" type="line" smooth="yes"/>
      <point x="512.0" y="0.0"/>
      <point x="569.0" y="0.0"/>
      <point x="569.0" y="61.0" type="curve" smooth="yes"/>
      <point x="569.0" y="125.0"/>
      <point x="516.0" y="125.0"/>
      <point x="483.0" y="125.0" type="curve" smooth="yes"/>
      <point x="416.88" y="125.0" type="line" smooth="yes"/>
      <point x="391.5036" y="125.0"/>
      <point x="369.0" y="147.5036"/>
      <point x="369.0" y="172.88" type="curve" smooth="yes"/>
      <point x="369.0" y="1078.0" type="line" smooth="yes"/>
      <point x="369.0" y="1103.44"/>
      <point x="391.56" y="1126.0"/>
      <point x="417.0" y="1126.0" type="curve" smooth="yes"/>
      <point x="818.64" y="1126.0" type="line" smooth="yes"/>
      <point x="842.6808" y="1126.0"/>
      <point x="864.0" y="1104.6808"/>
      <point x="864.0" y="1080.64" type="curve" smooth="yes"/>
      <point x="864.0" y="1018.0" type="line" smooth="yes"/>
      <point x="864.0" y="979.0"/>
      <point x="864.0" y="934.0"/>
      <point x="934.0" y="934.0" type="curve" smooth="yes"/>
      <point x="1004.0" y="934.0"/>
      <point x="1004.0" y="977.0"/>
    </contour>
  </outline>
</glyph>
<glyph name="Epsilon" format="2">
  <advance width="1228"/>
  <unicode hex="0395"/>
  <outline>
    <contour>
      <point x="1024.0" y="84.0" type="curve" smooth="yes"/>
      <point x="1024.0" y="266.0" type="line" smooth="yes"/>
      <point x="1024.0" y="305.0"/>
      <point x="1024.0" y="350.0"/>
      <point x="954.0" y="350.0" type="curve" smooth="yes"/>
      <point x="885.0" y="350.0"/>
      <point x="885.0" y="307.0"/>
      <point x="885.0" y="266.0" type="curve" smooth="yes"/>
      <point x="885.0" y="173.0" type="line" smooth="yes"/>
      <point x="885.0" y="147.56"/>
      <point x="862.44" y="125.0"/>
      <point x="837.0" y="125.0" type="curve" smooth="yes"/>
      <point x="384.0" y="125.0" type="line" smooth="yes"/>
      <point x="358.56" y="125.0"/>
      <point x="336.0" y="147.56"/>
      <point x="336.0" y="173.0" type="curve" smooth="yes"/>
      <point x="336.0" y="538.0" type="line" smooth="yes"/>
      <point x="336.0" y="563.44"/>
      <point x="358.56" y="586.0"/>
      <point x="384.0" y="586.0" type="curve" smooth="yes"/>
      <point x="570.72" y="586.0" type="line" smooth="yes"/>
      <point x="589.4184" y="586.0"/>
      <point x="606.0" y="569.4184"/>
      <point x="606.0" y="550.72" type="curve" smooth="yes"/>
      <point x="606.0" y="502.0"/>
      <point x="606.0" y="469.0"/>
      <point x="676.0" y="469.0" type="curve" smooth="yes"/>
      <point x="745.0" y="469.0"/>
      <point x="745.0" y="514.0"/>
      <point x="745.0" y="553.0" type="curve" smooth="yes"/>
      <point x="745.0" y="743.0" type="line" smooth="yes"/>
      <point x="745.0" y="782.0"/>
      <point x="745.0" y="827.0"/>
      <point x="676.0" y="827.0" type="curve" smooth="yes"/>
      <point x="606.0" y="827.0"/>
      <point x="606.0" y="795.0"/>
      <point x="606.0" y="746.28" type="curve" smooth="yes"/>
      <point x="606.0" y="727.5816"/>
      <point x="589.4184" y="711.0"/>
      <point x="570.72" y="711.0" type="curve" smooth="yes"/>
      <point x="384.0" y="711.0" type="line" smooth="yes"/>
      <point x="358.56" y="711.0"/>
      <point x="336.0" y="733.56"/>
      <point x="336.0" y="759.0" type="curve" smooth="yes"/>
      <point x="336.0" y="1078.0" type="line" smooth="yes"/>
      <point x="336.0" y="1103.44"/>
      <point x="358.56" y="1126.0"/>
      <point x="384.0" y="1126.0" type="curve" smooth="yes"/>
      <point x="794.64" y="1126.0" type="line" smooth="yes"/>
      <point x="818.6808" y="1126.0"/>
      <point x="840.0" y="1104.6808"/>
      <point x="840.0" y="1080.64" type="curve" smooth="yes"/>
      <point x="840.0" y="1018.0" type="line" smooth="yes"/>
      <point x="840.0" y="979.0"/>
      <point x="840.0" y="934.0"/>
      <point x="909.0" y="934.0" type="curve" smooth="yes"/>
      <point x="979.0" y="934.0"/>
      <point x="979.0" y="977.0"/>
      <point x="979.0" y="1018.0" type="curve" smooth="yes"/>
      <point x="979.0" y="1167.0" type="line" smooth="yes"/>
      <point x="979.0" y="1231.0"/>
      <point x="967.0" y="1251.0"/>
      <point x="897.0" y="1251.0" type="curve" smooth="yes"/>
      <point x="135.0" y="1251.0" type="line" smooth="yes"/>
      <point x="102.0" y="1251.0"/>
      <point x="49.0" y="1251.0"/>
      <point x="49.0" y="1190.0" type="curve" smooth="yes"/>
      <point x="49.0" y="1126.0"/>
      <point x="102.0" y="1126.0"/>
      <point x="135.0" y="1126.0" type="curve" smooth="yes"/>
      <point x="170.96" y="1126.0" type="line" smooth="yes"/>
      <point x="184.7612" y="1126.0"/>
      <point x="197.0" y="1113.7612"/>
      <point x="197.0" y="1099.96" type="curve" smooth="yes"/>
      <point x="197.0" y="151.04" type="line" smooth="yes"/>
      <point x="197.0" y="137.2388"/>
      <point x="184.7612" y="125.0"/>
      <point x="170.96" y="125.0" type="curve" smooth="yes"/>
      <point x="135.0" y="125.0" type="line" smooth="yes"/>
      <point x="102.0" y="125.0"/>
      <point x="49.0" y="125.0"/>
      <point x="49.0" y="61.0" type="curve" smooth="yes"/>
      <point x="49.0" y="0.0"/>
      <point x="102.0" y="0.0"/>
      <point x="135.0" y="0.0" type="curve" smooth="yes"/>
      <point x="942.0" y="0.0" type="line" smooth="yes"/>
      <point x="1012.0" y="0.0"/>
      <point x="1024.0" y="18.0"/>
    </contour>
  </outline>
</glyph>
<glyph name="Kappa" format="2">
  <advance width="1228"/>
  <unicode hex="039A"/>
  <outline>
    <contour>
      <point x="293.0" y="1197.0" type="line" smooth="yes"/>
      <point x="237.0" y="1197.0"/>
      <point x="219.0" y="1178.0"/>
      <point x="219.0" y="1132.0" type="curve" smooth="yes"/>
      <point x="219.0" y="55.0" type="line" smooth="yes"/>
      <point x="219.0" y="9.0"/>
      <point x="237.0" y="-10.0"/>
      <point x="293.0" y="-10.0" type="curve" smooth="yes"/>
      <point x="295.0" y="-10.0" type="line" smooth="yes"/>
      <point x="351.0" y="-10.0"/>
      <point x="369.0" y="9.0"/>
      <point x="369.0" y="55.0" type="curve" smooth="yes"/>
      <point x="369.0" y="317.58740234375" type="line" smooth="yes"/>
      <point x="369.0" y="343.02740234375"/>
      <point x="384.490879322917" y="381.9882028669813"/>
      <point x="401.9593177083341" y="400.48272260594416" type="curve" smooth="yes"/>
      <point x="509.9985680338534" y="514.8681074721809" type="line" smooth="yes"/>
      <point x="527.4670064192704" y="533.3626272111437"/>
      <point x="556.6249188151701" y="531.8144498531138"/>
      <point x="572.0366795144909" y="511.5741130933939" type="curve" smooth="yes"/>
      <point x="957.0" y="6.0" type="line" smooth="yes"/>
      <point x="982.0" y="-27.0"/>
      <point x="1012.0" y="-25.0"/>
      <point x="1056.0" y="0.0" type="curve" smooth="yes"/>
      <point x="1105.0" y="28.0"/>
      <point x="1110.0" y="55.0"/>
      <point x="1082.0" y="92.0" type="curve" smooth="yes"/>
      <point x="677.0883536992268" y="622.7863640119109" type="line" smooth="yes"/>
      <point x="661.6584897396132" y="643.0129034635278"/>
      <point x="663.4662822191746" y="677.350446458662"/>
      <point x="680.9347206770169" y="695.8449661292177" type="curve" smooth="yes"/>
      <point x="1057.0" y="1094.0" type="line" smooth="yes"/>
      <point x="1089.0" y="1127.0"/>
      <point x="1087.0" y="1156.0"/>
      <point x="1040.0" y="1187.0" type="curve" smooth="yes"/>
      <point x="1000.0" y="1213.0"/>
      <point x="963.0" y="1216.0"/>
      <point x="940.0" y="1191.0" type="curve" smooth="yes"/>
      <point x="401.8857124940109" y="618.8669779624969" type="line" smooth="yes"/>
      <point x="384.4562848721851" y="600.3356894812407"/>
      <point x="369.0" y="606.4622827148437"/>
      <point x="369.0" y="631.9022827148438" type="curve" smooth="yes"/>
      <point x="369.0" y="1132.0" type="line" smooth="yes"/>
      <point x="369.0" y="1178.0"/>
      <point x="351.0" y="1197.0"/>
      <point x="295.0" y="1197.0" type="curve" smooth="yes"/>
    </contour>
  </outline>
</glyph>
<glyph name="alphatonos" format="2">
  <advance width="1228"/>
  <unicode hex="03AC"/>
  <outline>
    <contour>
      <point x="785.4513311954577" y="280.55490824865376" type="curve" smooth="yes"/>
      <point x="777.2621256618651" y="304.64080687686726"/>
      <point x="779.9388396492176" y="346.25272985123587"/>
      <point x="791.1464673387609" y="369.0909145770976" type="curve" smooth="yes"/>
      <point x="823.0" y="434.0"/>
      <point x="967.0" y="805.0"/>
      <point x="967.0" y="842.0" type="curve"/>
      <point x="958.0" y="889.0"/>
      <point x="926.0" y="891.0"/>
      <point x="901.0" y="893.0" type="curve"/>
      <point x="899.4030151367188" y="893.0"/>
      <point x="897.6366577148438" y="893.0398559570312"/>
      <point x="895.7347412109375" y="893.082763671875" type="curve" smooth="yes"/>
      <point x="878.581787109375" y="893.4697265625"/>
      <point x="850.4030151367188" y="894.10546875"/>
      <point x="836.0" y="868.0" type="curve"/>
      <point x="823.0" y="854.0"/>
      <point x="729.0" y="551.0"/>
      <point x="713.0" y="535.0" type="curve"/>
      <point x="713.0" y="530.0" type="line"/>
      <point x="672.0" y="657.0"/>
      <point x="590.0" y="893.0"/>
      <point x="369.0" y="893.0" type="curve" smooth="yes"/>
      <point x="217.0" y="893.0"/>
      <point x="41.0" y="729.0"/>
      <point x="41.0" y="440.0" type="curve" smooth="yes"/>
      <point x="41.0" y="197.0"/>
      <point x="176.0" y="-10.0"/>
      <point x="377.0" y="-10.0" type="curve" smooth="yes"/>
      <point x="410.0" y="-10.0"/>
      <point x="557.0" y="16.0"/>
      <point x="650.5142572754364" y="136.12400528064188" type="curve" smooth="yes"/>
      <point x="666.1417009194552" y="156.19828248190169"/>
      <point x="689.991542523905" y="153.77321879307044"/>
      <point x="701.2586011146914" y="130.9642953044052" type="curve" smooth="yes"/>
      <point x="762.0" y="8.0"/>
      <point x="856.0" y="-12.0"/>
      <point x="901.0" y="-12.0" type="curve" smooth="yes"/>
      <point x="1008.0" y="-12.0"/>
      <point x="1032.0" y="80.0"/>
      <point x="1032.0" y="111.0" type="curve" smooth="yes"/>
      <point x="1032.0" y="160.0"/>
      <point x="1004.0" y="170.0"/>
      <point x="963.0" y="170.0" type="curve" smooth="yes"/>
      <point x="897.0" y="170.0"/>
      <point x="901.0" y="127.0"/>
      <point x="893.0" y="127.0" type="curve" smooth="yes"/>
      <point x="870.0" y="127.0"/>
      <point x="821.0" y="176.0"/>
    </contour>
    <contour>
      <point x="373.0" y="125.0" type="curve"/>
      <point x="279.0" y="111.0"/>
      <point x="143.0" y="256.0"/>
      <point x="193.0" y="557.0" type="curve"/>
      <point x="205.0" y="600.0"/>
      <point x="258.0" y="756.0"/>
      <point x="373.0" y="756.0" type="curve" smooth="yes"/>
      <point x="508.0" y="756.0"/>
      <point x="582.0" y="477.0"/>
      <point x="609.4201564359639" y="384.03898183904926" type="curve" smooth="yes"/>
      <point x="616.6174735249031" y="359.63832146435317"/>
      <point x="611.1122410704806" y="318.8261952749687"/>
      <point x="597.7068958946396" y="297.20467079780576" type="curve" smooth="yes"/>
      <point x="561.0" y="238.0"/>
      <point x="463.0" y="125.0"/>
    </contour>
    <contour>
      <point x="623.0" y="1253.0" type="curve" smooth="yes"/>
      <point x="582.0" y="1253.0"/>
      <point x="500.0" y="1124.0"/>
      <point x="442.0" y="1047.0" type="curve"/>
      <point x="416.0" y="993.0"/>
      <point x="483.0" y="946.0"/>
      <point x="524.0" y="977.0" type="curve"/>
      <point x="537.0" y="983.0"/>
      <point x="696.0" y="1163.0"/>
      <point x="696.0" y="1184.0" type="curve" smooth="yes"/>
      <point x="696.0" y="1198.0"/>
      <point x="684.0" y="1253.0"/>
    </contour>
  </outline>
</glyph>
<glyph name="beta" format="2">
  <advance width="1228"/>
  <unicode hex="03B2"/>
  <outline>
    <contour>
      <point x="516.0" y="1321.0" type="curve" smooth="yes"/>
      <point x="365.0" y="1321.0"/>
      <point x="135.0" y="1204.0"/>
      <point x="94.0" y="967.0" type="curve"/>
      <point x="94.0" y="-414.2040008166599" type="line" smooth="yes"/>
      <point x="94.0" y="-419.39588038383016"/>
      <point x="96.3688" y="-427.948"/>
      <point x="99.03999999999999" y="-432.4" type="curve" smooth="yes"/>
      <point x="106.0" y="-444.0"/>
      <point x="102.0" y="-475.0"/>
      <point x="160.0" y="-475.0" type="curve" smooth="yes"/>
      <point x="201.0" y="-475.0"/>
      <point x="217.0" y="-455.0"/>
      <point x="229.0" y="-424.0" type="curve"/>
      <point x="229.0" y="36.0" type="line" smooth="yes"/>
      <point x="229.0" y="61.44"/>
      <point x="247.67054710843507" y="71.33649848297449"/>
      <point x="268.7245683158193" y="57.056379751009544" type="curve" smooth="yes"/>
      <point x="344.0" y="6.0"/>
      <point x="471.0" y="-12.0"/>
      <point x="537.0" y="-12.0" type="curve" smooth="yes"/>
      <point x="803.0" y="-12.0"/>
      <point x="983.0" y="199.0"/>
      <point x="983.0" y="403.0" type="curve" smooth="yes"/>
      <point x="983.0" y="674.0"/>
      <point x="778.0" y="786.0"/>
      <point x="737.98" y="809.78" type="curve" smooth="yes"/>
      <point x="722.6206" y="818.9066"/>
      <point x="722.8397018552705" y="834.7127505130934"/>
      <point x="738.4461741601499" y="843.4101074746669" type="curve" smooth="yes"/>
      <point x="901.0" y="934.0"/>
      <point x="852.0" y="1321.0"/>
    </contour>
    <contour>
      <point x="676.0" y="1059.0" type="curve" smooth="yes"/>
      <point x="676.0" y="987.0"/>
      <point x="592.0" y="883.0"/>
      <point x="479.0" y="883.0" type="curve" smooth="yes"/>
      <point x="434.0" y="883.0"/>
      <point x="418.0" y="848.0"/>
      <point x="418.0" y="807.0" type="curve" smooth="yes"/>
      <point x="418.0" y="744.8750610351562"/>
      <point x="451.3825988769531" y="742.0969848632812"/>
      <point x="505.2044677734375" y="737.617919921875" type="curve" smooth="yes"/>
      <point x="566.6069946289062" y="732.5079956054688"/>
      <point x="654.6117553710938" y="725.1842651367188"/>
      <point x="750.0" y="625.0" type="curve" smooth="yes"/>
      <point x="811.0" y="561.0"/>
      <point x="840.0" y="489.0"/>
      <point x="840.0" y="408.0" type="curve" smooth="yes"/>
      <point x="840.0" y="236.0"/>
      <point x="692.0" y="125.0"/>
      <point x="537.0" y="125.0" type="curve" smooth="yes"/>
      <point x="414.0" y="125.0"/>
      <point x="328.0" y="178.0"/>
      <point x="271.25454893816766" y="221.00707869949397" type="curve" smooth="yes"/>
      <point x="250.9796380009388" y="236.37332698876216"/>
      <point x="233.0" y="272.56"/>
      <point x="233.0" y="298.0" type="curve" smooth="yes"/>
      <point x="233.0" y="954.0" type="line"/>
      <point x="270.0" y="1102.0"/>
      <point x="406.0" y="1180.0"/>
      <point x="520.0" y="1180.0" type="curve" smooth="yes"/>
      <point x="643.0" y="1180.0"/>
      <point x="676.0" y="1108.0"/>
    </contour>
  </outline>
</glyph>
<glyph name="uni03D8" format="2">
  <advance width="1228"/>
  <unicode hex="03D8"/>
  <outline>
    <contour>
      <point x="315.0" y="2.0" type="curve"/>
      <point x="752.6085144945009" y="2.0" type="line" smooth="yes"/>
      <point x="757.5860018124155" y="2.0"/>
      <point x="765.948" y="3.9739999999999998"/>
      <point x="770.4" y="6.2" type="curve" smooth="yes"/>
      <point x="782.0" y="12.0"/>
      <point x="815.0" y="33.0"/>
      <point x="799.0" y="90.0" type="curve"/>
      <point x="791.0" y="111.0"/>
      <point x="778.0" y="117.0"/>
      <point x="768.72" y="122.8" type="curve" smooth="yes"/>
      <point x="765.1584" y="125.026"/>
      <point x="758.275464249064" y="127.0"/>
      <point x="754.0754558490725" y="127.0" type="curve" smooth="yes"/>
      <point x="658.0" y="127.0" type="line" smooth="yes"/>
      <point x="632.56" y="127.0"/>
      <point x="610.0" y="149.56"/>
      <point x="610.0" y="175.0" type="curve" smooth="yes"/>
      <point x="610.0" y="460.0" type="line" smooth="yes"/>
      <point x="610.0" y="485.44"/>
      <point x="632.194727463669" y="512.0432255457072"/>
      <point x="657.222824390785" y="516.6026075440577" type="curve" smooth="yes"/>
      <point x="868.0" y="555.0"/>
      <point x="1004.0" y="752.0"/>
      <point x="1004.0" y="911.0" type="curve" smooth="yes"/>
      <point x="1004.0" y="1040.0"/>
      <point x="934.0" y="1163.0"/>
      <point x="815.0" y="1239.0" type="curve" smooth="yes"/>
      <point x="721.0" y="1303.0"/>
      <point x="631.0" y="1319.0"/>
      <point x="524.0" y="1319.0" type="curve" smooth="yes"/>
      <point x="434.0" y="1319.0"/>
      <point x="74.0" y="1227.0"/>
      <point x="74.0" y="913.0" type="curve" smooth="yes"/>
      <point x="74.0" y="752.0"/>
      <point x="205.0" y="561.0"/>
      <point x="419.952961059856" y="517.5171490985788" type="curve" smooth="yes"/>
      <point x="444.8878916981323" y="512.473060076332"/>
      <point x="467.0" y="485.44"/>
      <point x="467.0" y="460.0" type="curve" smooth="yes"/>
      <point x="467.0" y="175.0" type="line" smooth="yes"/>
      <point x="467.0" y="149.56"/>
      <point x="444.44" y="127.0"/>
      <point x="419.0" y="127.0" type="curve" smooth="yes"/>
      <point x="319.2" y="127.0" type="line" smooth="yes"/>
      <point x="316.974" y="127.0"/>
      <point x="313.4208" y="125.8156"/>
      <point x="311.64" y="124.48" type="curve" smooth="yes"/>
      <point x="307.0" y="121.0"/>
      <point x="291.0" y="119.0"/>
      <point x="274.0" y="90.0" type="curve"/>
      <point x="263.0781555175781" y="30.8399658203125"/>
      <point x="286.1199035644531" y="18.06926727294922"/>
      <point x="308.4433898925781" y="5.696673393249512" type="curve" smooth="yes"/>
      <point x="310.64703369140625" y="4.475316524505615"/>
      <point x="312.8437194824219" y="3.257838726043701"/>
    </contour>
    <contour>
      <point x="217.0" y="915.0" type="curve" smooth="yes"/>
      <point x="217.0" y="1120.0"/>
      <point x="455.0" y="1200.0"/>
      <point x="573.0" y="1180.0" type="curve" smooth="yes"/>
      <point x="705.0" y="1159.0"/>
      <point x="860.0" y="1073.0"/>
      <point x="860.0" y="913.0" type="curve" smooth="yes"/>
      <point x="860.0" y="768.0"/>
      <point x="729.0" y="643.0"/>
      <point x="537.0" y="643.0" type="curve"/>
      <point x="467.0" y="641.0"/>
      <point x="217.0" y="698.0"/>
    </contour>
  </outline>
</glyph>
<glyph name="uni03D9" format="2">
  <advance width="1228"/>
  <unicode hex="03D9"/>
  <outline>
    <contour>
      <point x="504.0" y="-113.0" type="curve" smooth="yes"/>
      <point x="610.0" y="-113.0"/>
      <point x="655.0" y="-29.0"/>
      <point x="664.0" y="-2.0" type="curve"/>
      <point x="668.0" y="8.0"/>
      <point x="668.0" y="37.0"/>
      <point x="668.0" y="238.0" type="curve" smooth="yes"/>
      <point x="668.0" y="419.0" type="line" smooth="yes"/>
      <point x="668.0" y="444.44"/>
      <point x="689.2264200117585" y="474.64151120423304"/>
      <point x="713.1625957696989" y="483.2585344770916" type="curve" smooth="yes"/>
      <point x="868.0" y="539.0"/>
      <point x="958.0" y="702.0"/>
      <point x="958.0" y="866.0" type="curve" smooth="yes"/>
      <point x="958.0" y="1092.0"/>
      <point x="799.0" y="1241.0"/>
      <point x="561.0" y="1241.0" type="curve" smooth="yes"/>
      <point x="360.0" y="1241.0"/>
      <point x="119.0" y="1090.0"/>
      <point x="119.0" y="813.0" type="curve" smooth="yes"/>
      <point x="119.0" y="594.0"/>
      <point x="270.0" y="473.0"/>
      <point x="358.91885984677685" y="455.34699105983105" type="curve" smooth="yes"/>
      <point x="383.87186412798513" y="450.3930857981206"/>
      <point x="406.0" y="423.44"/>
      <point x="406.0" y="398.0" type="curve" smooth="yes"/>
      <point x="406.0" y="203.0" type="line" smooth="yes"/>
      <point x="406.0" y="171.3994598388672"/>
      <point x="405.57830810546875" y="142.40940856933594"/>
      <point x="405.19305419921875" y="115.92456817626953" type="curve" smooth="yes"/>
      <point x="402.859619140625" y="-44.48989486694336"/>
      <point x="401.8630676269531" y="-113.0"/>
    </contour>
    <contour>
      <point x="492.0" y="1151.0" type="curve" smooth="yes"/>
      <point x="504.0" y="1151.0" type="line" smooth="yes"/>
      <point x="680.0" y="1151.0"/>
      <point x="836.0" y="1022.0"/>
      <point x="836.0" y="817.0" type="curve" smooth="yes"/>
      <point x="836.0" y="645.0"/>
      <point x="737.0" y="526.0"/>
      <point x="578.0" y="526.0" type="curve" smooth="yes"/>
      <point x="389.0" y="526.0"/>
      <point x="242.0" y="662.0"/>
      <point x="242.0" y="864.0" type="curve" smooth="yes"/>
      <point x="242.0" y="971.0"/>
      <point x="287.0" y="1143.0"/>
    </contour>
  </outline>
</glyph>
<glyph name="uni03DC" format="2">
  <advance width="1228"/>
  <unicode hex="03DC"/>
  <outline>
    <contour>
      <point x="1012.0" y="1018.0" type="curve" smooth="yes"/>
      <point x="1012.0" y="1167.0" type="line" smooth="yes"/>
      <point x="1012.0" y="1231.0"/>
      <point x="999.0" y="1251.0"/>
      <point x="930.0" y="1251.0" type="curve" smooth="yes"/>
      <point x="147.0" y="1251.0" type="line" smooth="yes"/>
      <point x="115.0" y="1251.0"/>
      <point x="66.0" y="1251.0"/>
      <point x="66.0" y="1188.0" type="curve" smooth="yes"/>
      <point x="66.0" y="1126.0"/>
      <point x="119.0" y="1126.0"/>
      <point x="147.0" y="1126.0" type="curve" smooth="yes"/>
      <point x="187.6" y="1126.0" type="line" smooth="yes"/>
      <point x="203.182" y="1126.0"/>
      <point x="217.0" y="1112.182"/>
      <point x="217.0" y="1096.6" type="curve" smooth="yes"/>
      <point x="217.0" y="154.4" type="line" smooth="yes"/>
      <point x="217.0" y="138.818"/>
      <point x="203.182" y="125.0"/>
      <point x="187.6" y="125.0" type="curve" smooth="yes"/>
      <point x="147.0" y="125.0" type="line" smooth="yes"/>
      <point x="115.0" y="125.0"/>
      <point x="66.0" y="125.0"/>
      <point x="66.0" y="61.0" type="curve" smooth="yes"/>
      <point x="66.0" y="0.0"/>
      <point x="119.0" y="0.0"/>
      <point x="147.0" y="0.0" type="curve" smooth="yes"/>
      <point x="463.0" y="0.0" type="line" smooth="yes"/>
      <point x="496.0" y="0.0"/>
      <point x="545.0" y="0.0"/>
      <point x="545.0" y="61.0" type="curve" smooth="yes"/>
      <point x="545.0" y="125.0"/>
      <point x="496.0" y="125.0"/>
      <point x="463.0" y="125.0" type="curve" smooth="yes"/>
      <point x="400.94" y="125.0" type="line" smooth="yes"/>
      <point x="377.1218" y="125.0"/>
      <point x="356.0" y="146.1218"/>
      <point x="356.0" y="169.94" type="curve" smooth="yes"/>
      <point x="356.0" y="515.0" type="line" smooth="yes"/>
      <point x="356.0" y="540.44"/>
      <point x="378.56" y="563.0"/>
      <point x="404.0" y="563.0" type="curve" smooth="yes"/>
      <point x="599.72" y="563.0" type="line" smooth="yes"/>
      <point x="618.4184" y="563.0"/>
      <point x="635.0" y="546.4184"/>
      <point x="635.0" y="527.72" type="curve" smooth="yes"/>
      <point x="635.0" y="479.0"/>
      <point x="635.0" y="446.0"/>
      <point x="709.0" y="446.0" type="curve" smooth="yes"/>
      <point x="778.0" y="446.0"/>
      <point x="778.0" y="492.0"/>
      <point x="778.0" y="530.0" type="curve" smooth="yes"/>
      <point x="778.0" y="721.0" type="line" smooth="yes"/>
      <point x="778.0" y="760.0"/>
      <point x="778.0" y="805.0"/>
      <point x="709.0" y="805.0" type="curve" smooth="yes"/>
      <point x="635.0" y="805.0"/>
      <point x="635.0" y="772.0"/>
      <point x="635.0" y="723.28" type="curve" smooth="yes"/>
      <point x="635.0" y="704.5816"/>
      <point x="618.4184" y="688.0"/>
      <point x="599.72" y="688.0" type="curve" smooth="yes"/>
      <point x="404.0" y="688.0" type="line" smooth="yes"/>
      <point x="378.56" y="688.0"/>
      <point x="356.0" y="710.56"/>
      <point x="356.0" y="736.0" type="curve" smooth="yes"/>
      <point x="356.0" y="1078.0" type="line" smooth="yes"/>
      <point x="356.0" y="1103.44"/>
      <point x="378.56" y="1126.0"/>
      <point x="404.0" y="1126.0" type="curve" smooth="yes"/>
      <point x="822.64" y="1126.0" type="line" smooth="yes"/>
      <point x="846.6808" y="1126.0"/>
      <point x="868.0" y="1104.6808"/>
      <point x="868.0" y="1080.64" type="curve" smooth="yes"/>
      <point x="868.0" y="1018.0" type="line" smooth="yes"/>
      <point x="868.0" y="979.0"/>
      <point x="868.0" y="934.0"/>
      <point x="938.0" y="934.0" type="curve" smooth="yes"/>
      <point x="1012.0" y="934.0"/>
      <point x="1012.0" y="977.0"/>
    </contour>
  </outline>
</glyph>
<glyph name="uni0445" format="2">
  <advance width="1228"/>
  <unicode hex="0445"/>
  <outline>
    <contour>
      <point x="197.4883234567739" y="151.20159476541508" type="line" smooth="yes"/>
      <point x="189.80951202468373" y="143.14474953974508"/>
      <point x="173.13" y="136.0"/>
      <point x="162.0" y="136.0" type="curve" smooth="yes"/>
      <point x="133.0" y="136.0" type="line" smooth="yes"/>
      <point x="110.33300018310547" y="136.0"/>
      <point x="94.16670227050781" y="131.0"/>
      <point x="84.5" y="121.0" type="curve" smooth="yes"/>
      <point x="74.83329772949219" y="111.0"/>
      <point x="70.0" y="93.33329772949219"/>
      <point x="70.0" y="68.0" type="curve" smooth="yes"/>
      <point x="70.0" y="42.66669845581055"/>
      <point x="74.83329772949219" y="25.0"/>
      <point x="84.5" y="15.0" type="curve" smooth="yes"/>
      <point x="94.16670227050781" y="5.0"/>
      <point x="110.33300018310547" y="0.0"/>
      <point x="133.0" y="0.0" type="curve" smooth="yes"/>
      <point x="447.0" y="0.0" type="line" smooth="yes"/>
      <point x="469.6669921875" y="0.0"/>
      <point x="485.8330078125" y="5.0"/>
      <point x="495.5" y="15.0" type="curve" smooth="yes"/>
      <point x="505.1669921875" y="25.0"/>
      <point x="510.0" y="42.66669845581055"/>
      <point x="510.0" y="68.0" type="curve" smooth="yes"/>
      <point x="510.0" y="93.33329772949219"/>
      <point x="505.1669921875" y="111.0"/>
      <point x="495.5" y="121.0" type="curve" smooth="yes"/>
      <point x="485.8330078125" y="131.0"/>
      <point x="469.6669921875" y="136.0"/>
      <point x="447.0" y="136.0" type="curve" smooth="yes"/>
      <point x="401.18" y="136.0" type="line" smooth="yes"/>
      <point x="383.5946" y="136.0"/>
      <point x="378.597748866293" y="147.44024773014056"/>
      <point x="390.5484018431766" y="160.3409526173203" type="curve" smooth="yes"/>
      <point x="574.3802504981171" y="358.78704865487117" type="line" smooth="yes"/>
      <point x="591.668717734115" y="377.44991286778946"/>
      <point x="622.3657049422876" y="377.48186718704085"/>
      <point x="639.6929892389098" y="358.85503656817195" type="curve" smooth="yes"/>
      <point x="819.5378890393158" y="165.52176928273553" type="line" smooth="yes"/>
      <point x="834.0928078484784" y="149.8752315628857"/>
      <point x="828.0495999999999" y="136.0"/>
      <point x="806.68" y="136.0" type="curve" smooth="yes"/>
      <point x="751.0" y="136.0" type="line" smooth="yes"/>
      <point x="728.3330078125" y="136.0"/>
      <point x="712.1669921875" y="131.0"/>
      <point x="702.5" y="121.0" type="curve" smooth="yes"/>
      <point x="692.8330078125" y="111.0"/>
      <point x="688.0" y="93.33329772949219"/>
      <point x="688.0" y="68.0" type="curve" smooth="yes"/>
      <point x="688.0" y="42.66669845581055"/>
      <point x="692.8330078125" y="25.0"/>
      <point x="702.5" y="15.0" type="curve" smooth="yes"/>
      <point x="712.1669921875" y="5.0"/>
      <point x="728.3330078125" y="0.0"/>
      <point x="751.0" y="0.0" type="curve" smooth="yes"/>
      <point x="1095.0" y="0.0" type="line" smooth="yes"/>
      <point x="1117.6700439453125" y="0.0"/>
      <point x="1133.8299560546875" y="5.0"/>
      <point x="1143.5" y="15.0" type="curve" smooth="yes"/>
      <point x="1153.1700439453125" y="25.0"/>
      <point x="1158.0" y="42.66669845581055"/>
      <point x="1158.0" y="68.0" type="curve" smooth="yes"/>
      <point x="1158.0" y="93.33329772949219"/>
      <point x="1153.1700439453125" y="111.0"/>
      <point x="1143.5" y="121.0" type="curve" smooth="yes"/>
      <point x="1133.8299560546875" y="131.0"/>
      <point x="1117.6700439453125" y="136.0"/>
      <point x="1095.0" y="136.0" type="curve" smooth="yes"/>
      <point x="1065.42" y="136.0" type="line" smooth="yes"/>
      <point x="1054.0674000000001" y="136.0"/>
      <point x="1037.0779941070693" y="143.3101557560857"/>
      <point x="1029.2723278873816" y="151.5535228852887" type="curve" smooth="yes"/>
      <point x="756.0031868069882" y="440.14616720383486" type="line" smooth="yes"/>
      <point x="738.5114977992845" y="458.6186985858024"/>
      <point x="738.5285664314861" y="491.3651221988388"/>
      <point x="756.0395030457149" y="509.81940893369955" type="curve" smooth="yes"/>
      <point x="1001.2087826427496" y="768.1964611689584" type="line" smooth="yes"/>
      <point x="1011.1681278420923" y="778.6923367494105"/>
      <point x="1032.831" y="788.0"/>
      <point x="1047.3" y="788.0" type="curve" smooth="yes"/>
      <point x="1085.0" y="788.0" type="line" smooth="yes"/>
      <point x="1107.6700439453125" y="788.0"/>
      <point x="1123.8299560546875" y="793.0"/>
      <point x="1133.5" y="803.0" type="curve" smooth="yes"/>
      <point x="1143.1700439453125" y="813.0"/>
      <point x="1148.0" y="830.6669921875"/>
      <point x="1148.0" y="856.0" type="curve" smooth="yes"/>
      <point x="1148.0" y="881.3330078125"/>
      <point x="1143.1700439453125" y="899.0"/>
      <point x="1133.5" y="909.0" type="curve" smooth="yes"/>
      <point x="1123.8299560546875" y="919.0"/>
      <point x="1107.6700439453125" y="924.0"/>
      <point x="1085.0" y="924.0" type="curve" smooth="yes"/>
      <point x="781.0" y="924.0" type="line" smooth="yes"/>
      <point x="758.3330078125" y="924.0"/>
      <point x="742.1669921875" y="919.0"/>
      <point x="732.5" y="909.0" type="curve" smooth="yes"/>
      <point x="722.8330078125" y="899.0"/>
      <point x="718.0" y="881.3330078125"/>
      <point x="718.0" y="856.0" type="curve" smooth="yes"/>
      <point x="718.0" y="830.6669921875"/>
      <point x="722.8330078125" y="813.0"/>
      <point x="732.5" y="803.0" type="curve" smooth="yes"/>
      <point x="742.1669921875" y="793.0"/>
      <point x="758.3330078125" y="788.0"/>
      <point x="781.0" y="788.0" type="curve" smooth="yes"/>
      <point x="812.9" y="788.0" type="line" smooth="yes"/>
      <point x="825.143" y="788.0"/>
      <point x="828.6229763977861" y="780.034199866154"/>
      <point x="820.3042051016727" y="771.0514890769235" type="curve" smooth="yes"/>
      <point x="655.6146387497711" y="593.217685034964" type="line" smooth="yes"/>
      <point x="638.3288802123924" y="574.5523119664331"/>
      <point x="607.7099869261115" y="574.5882217311054"/>
      <point x="590.468057289599" y="593.294088789586" type="curve" smooth="yes"/>
      <point x="432.6337419024167" y="764.5294309549253" type="line" smooth="yes"/>
      <point x="421.1678586941359" y="776.9688325488148"/>
      <point x="426.0024" y="788.0"/>
      <point x="442.92" y="788.0" type="curve" smooth="yes"/>
      <point x="487.0" y="788.0" type="line" smooth="yes"/>
      <point x="509.6669921875" y="788.0"/>
      <point x="525.8330078125" y="793.0"/>
      <point x="535.5" y="803.0" type="curve" smooth="yes"/>
      <point x="545.1669921875" y="813.0"/>
      <point x="550.0" y="830.6669921875"/>
      <point x="550.0" y="856.0" type="curve" smooth="yes"/>
      <point x="550.0" y="881.3330078125"/>
      <point x="545.1669921875" y="899.0"/>
      <point x="535.5" y="909.0" type="curve" smooth="yes"/>
      <point x="525.8330078125" y="919.0"/>
      <point x="509.6669921875" y="924.0"/>
      <point x="487.0" y="924.0" type="curve" smooth="yes"/>
      <point x="143.0" y="924.0" type="line" smooth="yes"/>
      <point x="120.33300018310547" y="924.0"/>
      <point x="104.16699981689453" y="919.0"/>
      <point x="94.5" y="909.0" type="curve" smooth="yes"/>
      <point x="84.83329772949219" y="899.0"/>
      <point x="80.0" y="881.3330078125"/>
      <point x="80.0" y="856.0" type="curve" smooth="yes"/>
      <point x="80.0" y="830.6669921875"/>
      <point x="84.83329772949219" y="813.0"/>
      <point x="94.5" y="803.0" type="curve" smooth="yes"/>
      <point x="104.16699981689453" y="793.0"/>
      <point x="120.33300018310547" y="788.0"/>
      <point x="143.0" y="788.0" type="curve" smooth="yes"/>
      <point x="184.18" y="788.0" type="line" smooth="yes"/>
      <point x="199.9846" y="788.0"/>
      <point x="223.62811051774094" y="777.815162003342"/>
      <point x="234.48534152710835" y="766.3301319220044" type="curve" smooth="yes"/>
      <point x="475.02560719982563" y="511.8810753770552" type="line" smooth="yes"/>
      <point x="492.50203538391804" y="493.39410542721595"/>
      <point x="492.4354010864372" y="460.66914390915406"/>
      <point x="474.8838320988025" y="442.25349767905124" type="curve" smooth="yes"/>
    </contour>
  </outline>
</glyph>
<glyph name="uni0462" format="2">
  <advance width="1228"/>
  <unicode hex="0462"/>
  <outline>
    <contour>
      <point x="47.0" y="1036.0" type="line" smooth="yes"/>
      <point x="47.0" y="1035.02001953125"/>
      <point x="46.97749328613281" y="1033.8450927734375"/>
      <point x="46.951778411865234" y="1032.5025634765625" type="curve" smooth="yes"/>
      <point x="46.5576286315918" y="1011.925537109375"/>
      <point x="45.40977096557617" y="952.0"/>
      <point x="113.0" y="952.0" type="curve" smooth="yes"/>
      <point x="115.0" y="952.0" type="line" smooth="yes"/>
      <point x="188.0" y="952.0"/>
      <point x="190.0" y="993.0"/>
      <point x="190.0" y="1038.0" type="curve" smooth="yes"/>
      <point x="190.0" y="1062.94" type="line" smooth="yes"/>
      <point x="190.0" y="1072.5118"/>
      <point x="198.4882" y="1081.0"/>
      <point x="208.06" y="1081.0" type="curve" smooth="yes"/>
      <point x="252.06" y="1081.0" type="line" smooth="yes"/>
      <point x="275.8782" y="1081.0"/>
      <point x="297.0" y="1059.8781999999999"/>
      <point x="297.0" y="1036.06" type="curve" smooth="yes"/>
      <point x="297.0" y="145.9" type="line" smooth="yes"/>
      <point x="297.0" y="135.883"/>
      <point x="288.117" y="127.0"/>
      <point x="278.1" y="127.0" type="curve" smooth="yes"/>
      <point x="252.0" y="127.0" type="line" smooth="yes"/>
      <point x="186.0" y="127.0"/>
      <point x="178.0" y="88.0"/>
      <point x="178.0" y="63.0" type="curve" smooth="yes"/>
      <point x="178.0" y="41.0"/>
      <point x="186.0" y="0.0"/>
      <point x="250.0" y="0.0" type="curve" smooth="yes"/>
      <point x="680.0" y="0.0" type="line" smooth="yes"/>
      <point x="934.0" y="0.0"/>
      <point x="999.0" y="236.0"/>
      <point x="999.0" y="356.0" type="curve" smooth="yes"/>
      <point x="999.0" y="518.0"/>
      <point x="903.0" y="713.0"/>
      <point x="684.0" y="713.0" type="curve" smooth="yes"/>
      <point x="488.0" y="713.0" type="line" smooth="yes"/>
      <point x="462.56" y="713.0"/>
      <point x="440.0" y="735.56"/>
      <point x="440.0" y="761.0" type="curve" smooth="yes"/>
      <point x="440.0" y="1033.0" type="line" smooth="yes"/>
      <point x="440.0" y="1058.44"/>
      <point x="462.56" y="1081.0"/>
      <point x="488.0" y="1081.0" type="curve" smooth="yes"/>
      <point x="711.58" y="1081.0" type="line" smooth="yes"/>
      <point x="722.9326" y="1081.0"/>
      <point x="733.0" y="1070.9325999999999"/>
      <point x="733.0" y="1059.58" type="curve" smooth="yes"/>
      <point x="733.0" y="1030.0" type="line" smooth="yes"/>
      <point x="733.0" y="977.0"/>
      <point x="748.0" y="952.0"/>
      <point x="809.0" y="952.0" type="curve" smooth="yes"/>
      <point x="877.14404296875" y="952.0"/>
      <point x="877.055419921875" y="1003.1744384765625"/>
      <point x="877.0028686523438" y="1033.5645751953125" type="curve" smooth="yes"/>
      <point x="877.0014038085938" y="1034.392333984375"/>
      <point x="877.0" y="1035.20458984375"/>
      <point x="877.0" y="1036.0" type="curve" smooth="yes"/>
      <point x="877.0" y="1139.0" type="line" smooth="yes"/>
      <point x="879.0" y="1204.0"/>
      <point x="831.0" y="1208.0"/>
      <point x="793.0" y="1208.0" type="curve" smooth="yes"/>
      <point x="476.12" y="1208.0" type="line" smooth="yes"/>
      <point x="456.9764" y="1208.0"/>
      <point x="440.0" y="1224.9764"/>
      <point x="440.0" y="1244.12" type="curve" smooth="yes"/>
      <point x="440.0" y="1275.1" type="line" smooth="yes"/>
      <point x="440.0" y="1285.117"/>
      <point x="448.883" y="1294.0"/>
      <point x="458.9" y="1294.0" type="curve" smooth="yes"/>
      <point x="485.0" y="1294.0" type="line" smooth="yes"/>
      <point x="551.0" y="1294.0"/>
      <point x="561.0" y="1333.0"/>
      <point x="561.0" y="1358.0" type="curve" smooth="yes"/>
      <point x="561.0" y="1384.0"/>
      <point x="549.0" y="1421.0"/>
      <point x="487.0" y="1421.0" type="curve" smooth="yes"/>
      <point x="252.0" y="1421.0" type="line" smooth="yes"/>
      <point x="193.0" y="1421.0"/>
      <point x="178.0" y="1389.0"/>
      <point x="178.0" y="1358.0" type="curve" smooth="yes"/>
      <point x="178.0" y="1296.0"/>
      <point x="231.0" y="1294.0"/>
      <point x="252.0" y="1294.0" type="curve" smooth="yes"/>
      <point x="278.1" y="1294.0" type="line" smooth="yes"/>
      <point x="288.117" y="1294.0"/>
      <point x="297.0" y="1285.117"/>
      <point x="297.0" y="1275.1" type="curve" smooth="yes"/>
      <point x="297.0" y="1244.12" type="line" smooth="yes"/>
      <point x="297.0" y="1224.9764"/>
      <point x="280.0236" y="1208.0"/>
      <point x="260.88" y="1208.0" type="curve" smooth="yes"/>
      <point x="119.0" y="1208.0" type="line" smooth="yes"/>
      <point x="57.0" y="1208.0"/>
      <point x="47.0" y="1174.0"/>
      <point x="47.0" y="1137.0" type="curve" smooth="yes"/>
    </contour>
    <contour>
      <point x="488.0" y="127.0" type="line" smooth="yes"/>
      <point x="462.56" y="127.0"/>
      <point x="440.0" y="149.56"/>
      <point x="440.0" y="175.0" type="curve" smooth="yes"/>
      <point x="440.0" y="540.0" type="line" smooth="yes"/>
      <point x="440.0" y="565.44"/>
      <point x="462.56" y="588.0"/>
      <point x="488.0" y="588.0" type="curve" smooth="yes"/>
      <point x="657.0" y="588.0" type="line" smooth="yes"/>
      <point x="776.0" y="588.0"/>
      <point x="856.0" y="479.0"/>
      <point x="856.0" y="356.0" type="curve" smooth="yes"/>
      <point x="856.0" y="233.0"/>
      <point x="776.0" y="127.0"/>
      <point x="657.0" y="127.0" type="curve" smooth="yes"/>
    </contour>
  </outline>
</glyph>
<glyph name="uni0467" format="2">
  <advance width="1228"/>
  <unicode hex="0467"/>
  <outline>
    <contour>
      <point x="45.0" y="63.0" type="curve" smooth="yes"/>
      <point x="45.0" y="8.0"/>
      <point x="96.0" y="0.0"/>
      <point x="119.0" y="0.0" type="curve" smooth="yes"/>
      <point x="285.0" y="0.0" type="line" smooth="yes"/>
      <point x="346.0" y="0.0"/>
      <point x="358.0" y="39.0"/>
      <point x="358.0" y="63.0" type="curve" smooth="yes"/>
      <point x="358.0" y="76.0"/>
      <point x="352.0" y="119.0"/>
      <point x="322.42" y="123.64" type="curve" smooth="yes"/>
      <point x="311.0674" y="125.4208"/>
      <point x="304.5101513638561" y="136.56688312894116"/>
      <point x="308.46840715714063" y="147.35507048710886" type="curve" smooth="yes"/>
      <point x="335.4662515147186" y="220.93743059893885" type="line" smooth="yes"/>
      <point x="344.22913821191776" y="244.82059238150126"/>
      <point x="374.56" y="266.0"/>
      <point x="400.0" y="266.0" type="curve" smooth="yes"/>
      <point x="421.0" y="266.0" type="line" smooth="yes"/>
      <point x="446.44" y="266.0"/>
      <point x="469.0" y="243.44"/>
      <point x="469.0" y="218.0" type="curve" smooth="yes"/>
      <point x="469.0" y="131.2" type="line" smooth="yes"/>
      <point x="469.0" y="128.974"/>
      <point x="467.026" y="127.0"/>
      <point x="464.8" y="127.0" type="curve" smooth="yes"/>
      <point x="459.0" y="127.0" type="line" smooth="yes"/>
      <point x="432.0" y="127.0"/>
      <point x="385.0" y="123.0"/>
      <point x="385.0" y="63.0" type="curve" smooth="yes"/>
      <point x="385.0" y="31.0"/>
      <point x="399.0" y="0.0"/>
      <point x="455.0" y="0.0" type="curve" smooth="yes"/>
      <point x="614.0" y="0.0" type="line" smooth="yes"/>
      <point x="674.0" y="0.0"/>
      <point x="688.0" y="33.0"/>
      <point x="688.0" y="66.0" type="curve" smooth="yes"/>
      <point x="688.0" y="125.0"/>
      <point x="641.0" y="127.0"/>
      <point x="610.0" y="127.0" type="curve" smooth="yes"/>
      <point x="604.0" y="127.0" type="line"/>
      <point x="604.0" y="218.0" type="line" smooth="yes"/>
      <point x="604.0" y="243.44"/>
      <point x="626.56" y="266.0"/>
      <point x="652.0" y="266.0" type="curve" smooth="yes"/>
      <point x="673.0" y="266.0" type="line" smooth="yes"/>
      <point x="698.44" y="266.0"/>
      <point x="728.500414602296" y="244.72331367920123"/>
      <point x="736.9583289410552" y="220.73045463659838" type="curve" smooth="yes"/>
      <point x="765.5909700910457" y="139.50724810907445" type="line" smooth="yes"/>
      <point x="767.9277559427915" y="132.878406611265"/>
      <point x="763.8806" y="125.8156"/>
      <point x="756.98" y="124.48" type="curve" smooth="yes"/>
      <point x="739.0" y="121.0"/>
      <point x="715.0" y="98.0"/>
      <point x="715.0" y="63.0" type="curve" smooth="yes"/>
      <point x="715.0" y="31.0"/>
      <point x="733.0" y="0.0"/>
      <point x="786.0" y="0.0" type="curve" smooth="yes"/>
      <point x="948.0" y="0.0" type="line" smooth="yes"/>
      <point x="977.0" y="0.0"/>
      <point x="1026.0" y="2.0"/>
      <point x="1026.0" y="63.0" type="curve" smooth="yes"/>
      <point x="1026.0" y="119.0"/>
      <point x="983.0" y="127.0"/>
      <point x="946.0" y="127.0" type="curve" smooth="yes"/>
      <point x="916.42" y="127.0" type="line" smooth="yes"/>
      <point x="905.0674" y="127.0"/>
      <point x="891.5909651234903" y="136.47264609128518"/>
      <point x="887.7467343052984" y="147.1545661516706" type="curve" smooth="yes"/>
      <point x="651.0" y="805.0" type="line" smooth="yes"/>
      <point x="627.0" y="872.0"/>
      <point x="608.0" y="895.0"/>
      <point x="535.0" y="895.0" type="curve" smooth="yes"/>
      <point x="528.0" y="895.0" type="line" smooth="yes"/>
      <point x="477.0" y="895.0"/>
      <point x="449.0" y="877.0"/>
      <point x="428.0" y="823.0" type="curve" smooth="yes"/>
      <point x="186.66081615166286" y="151.1117121662294" type="line" smooth="yes"/>
      <point x="182.07058359128155" y="138.33250471812784"/>
      <point x="165.9586" y="127.0"/>
      <point x="152.38" y="127.0" type="curve" smooth="yes"/>
      <point x="117.0" y="127.0" type="line" smooth="yes"/>
      <point x="96.0" y="127.0"/>
      <point x="45.0" y="121.0"/>
    </contour>
    <contour>
      <point x="445.0" y="389.0" type="line" smooth="yes"/>
      <point x="419.56" y="389.0"/>
      <point x="404.604952402721" y="410.2395456390279"/>
      <point x="413.1807497930234" y="434.19052263622956" type="curve" smooth="yes"/>
      <point x="520.8192502069767" y="734.8094773637705" type="line" smooth="yes"/>
      <point x="529.395047597279" y="758.7604543609722"/>
      <point x="544.5567455681556" y="758.7432552723104"/>
      <point x="553.0781820599057" y="734.7728835581072" type="curve" smooth="yes"/>
      <point x="659.9218179400943" y="434.2271164418928" type="line" smooth="yes"/>
      <point x="668.4432544318444" y="410.25674472768964"/>
      <point x="653.44" y="389.0"/>
      <point x="628.0" y="389.0" type="curve" smooth="yes"/>
    </contour>
  </outline>
</glyph>
<glyph name="uni046B" format="2">
  <advance width="1228"/>
  <unicode hex="046B"/>
  <outline>
    <contour>
      <point x="20.0" y="63.0" type="curve" smooth="yes"/>
      <point x="20.0" y="39.0"/>
      <point x="31.0" y="0.0"/>
      <point x="96.0" y="0.0" type="curve" smooth="yes"/>
      <point x="195.0" y="0.0" type="line" smooth="yes"/>
      <point x="254.0" y="0.0"/>
      <point x="268.0" y="37.0"/>
      <point x="268.0" y="61.0" type="curve" smooth="yes"/>
      <point x="268.0" y="80.0"/>
      <point x="260.0" y="98.0"/>
      <point x="249.56" y="107.86" type="curve" smooth="yes"/>
      <point x="245.5532" y="111.6442"/>
      <point x="244.19835244887764" y="119.36507392726786"/>
      <point x="246.6773456359099" y="124.28739133461247" type="curve" smooth="yes"/>
      <point x="381.0" y="391.0"/>
      <point x="362.0" y="406.0"/>
      <point x="431.44262886092866" y="415.4964278784176" type="curve" smooth="yes"/>
      <point x="456.6480355646365" y="418.94332110285626"/>
      <point x="479.0" y="399.44"/>
      <point x="479.0" y="374.0" type="curve" smooth="yes"/>
      <point x="479.0" y="131.2" type="line" smooth="yes"/>
      <point x="479.0" y="128.974"/>
      <point x="477.026" y="127.0"/>
      <point x="474.8" y="127.0" type="curve" smooth="yes"/>
      <point x="469.0" y="127.0" type="line" smooth="yes"/>
      <point x="442.0" y="127.0"/>
      <point x="391.0" y="123.0"/>
      <point x="391.0" y="63.0" type="curve" smooth="yes"/>
      <point x="391.0" y="33.0"/>
      <point x="408.0" y="0.0"/>
      <point x="465.0" y="0.0" type="curve" smooth="yes"/>
      <point x="608.0" y="0.0" type="line" smooth="yes"/>
      <point x="666.0" y="0.0"/>
      <point x="682.0" y="33.0"/>
      <point x="682.0" y="66.0" type="curve" smooth="yes"/>
      <point x="682.0" y="121.0"/>
      <point x="635.0" y="127.0"/>
      <point x="602.0" y="127.0" type="curve" smooth="yes"/>
      <point x="594.0" y="127.0" type="line"/>
      <point x="594.0" y="374.06660871584404" type="line" smooth="yes"/>
      <point x="594.0" y="399.4713060964467"/>
      <point x="616.3062" y="418.84159999999997"/>
      <point x="641.46" y="415.28" type="curve" smooth="yes"/>
      <point x="707.0" y="406.0"/>
      <point x="688.0" y="403.0"/>
      <point x="826.2545396196232" y="120.60774886204626" type="curve" smooth="yes"/>
      <point x="827.7096336212229" y="117.63564196516174"/>
      <point x="827.026" y="112.8286"/>
      <point x="824.8" y="110.38" type="curve" smooth="yes"/>
      <point x="819.0" y="104.0"/>
      <point x="807.0" y="94.0"/>
      <point x="807.0" y="63.0" type="curve" smooth="yes"/>
      <point x="807.0" y="27.0"/>
      <point x="827.0" y="0.0"/>
      <point x="879.0" y="0.0" type="curve" smooth="yes"/>
      <point x="977.0" y="0.0" type="line" smooth="yes"/>
      <point x="1042.0" y="0.0"/>
      <point x="1053.0" y="41.0"/>
      <point x="1053.0" y="63.0" type="curve" smooth="yes"/>
      <point x="1053.0" y="86.0"/>
      <point x="1042.0" y="127.0"/>
      <point x="977.0" y="127.0" type="curve" smooth="yes"/>
      <point x="965.98" y="127.0" type="line" smooth="yes"/>
      <point x="961.7506" y="127.0"/>
      <point x="956.6070621292663" y="130.48234467683426"/>
      <point x="955.0363024026942" y="134.40924399326437" type="curve" smooth="yes"/>
      <point x="950.0" y="147.0"/>
      <point x="940.0" y="170.0"/>
      <point x="930.0" y="190.0" type="curve" smooth="yes"/>
      <point x="844.0" y="383.0"/>
      <point x="819.0" y="485.0"/>
      <point x="675.2973987277447" y="524.3291329797752" type="curve" smooth="yes"/>
      <point x="650.7597774020401" y="531.0446925004943"/>
      <point x="643.3559278077616" y="554.4029002404294"/>
      <point x="659.5445272505566" y="574.0274473200625" type="curve" smooth="yes"/>
      <point x="874.0" y="834.0"/>
      <point x="879.0" y="827.0"/>
      <point x="879.0" y="852.0" type="curve" smooth="yes"/>
      <point x="879.0" y="868.0"/>
      <point x="870.0" y="881.0"/>
      <point x="840.0" y="881.0" type="curve" smooth="yes"/>
      <point x="231.0" y="881.0" type="line" smooth="yes"/>
      <point x="207.0" y="881.0"/>
      <point x="193.0" y="870.0"/>
      <point x="193.0" y="854.0" type="curve" smooth="yes"/>
      <point x="193.0" y="848.0"/>
      <point x="197.0" y="838.0"/>
      <point x="201.0" y="829.0" type="curve"/>
      <point x="211.0" y="813.0"/>
      <point x="201.0" y="827.0"/>
      <point x="420.82172636490515" y="566.802854506847" type="curve" smooth="yes"/>
      <point x="434.16621139150544" y="551.0073416182181"/>
      <point x="428.234" y="532.4598"/>
      <point x="408.2" y="527.34" type="curve" smooth="yes"/>
      <point x="356.0" y="514.0"/>
      <point x="279.0" y="467.0"/>
      <point x="231.0" y="385.0" type="curve" smooth="yes"/>
      <point x="217.0" y="360.0"/>
      <point x="125.0" y="154.0"/>
      <point x="117.77156855947229" y="134.48323511057515" type="curve" smooth="yes"/>
      <point x="116.30263722295197" y="130.5171205019703"/>
      <point x="111.2494" y="127.0"/>
      <point x="107.02" y="127.0" type="curve" smooth="yes"/>
      <point x="96.0" y="127.0" type="line" smooth="yes"/>
      <point x="29.0" y="127.0"/>
      <point x="20.0" y="86.0"/>
    </contour>
    <contour>
      <point x="408.6430823558714" y="718.2470177543147" type="line" smooth="yes"/>
      <point x="392.93224870725953" y="738.2560983445279"/>
      <point x="401.56" y="756.0"/>
      <point x="427.0" y="756.0" type="curve" smooth="yes"/>
      <point x="659.6292158948912" y="756.0" type="line" smooth="yes"/>
      <point x="677.8457314705988" y="756.0"/>
      <point x="683.9326" y="743.3664"/>
      <point x="672.58" y="729.12" type="curve" smooth="yes"/>
      <point x="643.0" y="692.0"/>
      <point x="592.0" y="631.0"/>
      <point x="545.0" y="563.0" type="curve"/>
      <point x="540.36" y="553.72" type="line" smooth="yes"/>
      <point x="538.5792" y="550.1584"/>
      <point x="535.2687902214551" y="550.0777062729687"/>
      <point x="533.3165749392663" y="553.5483112190823" type="curve" smooth="yes"/>
      <point x="528.0" y="563.0" type="line"/>
      <point x="485.0" y="621.0" type="line"/>
    </contour>
  </outline>
</glyph>
<glyph name="uni046D" format="2">
  <advance width="1228"/>
  <unicode hex="046D"/>
  <outline>
    <contour>
      <point x="-23.0" y="63.0" type="curve" smooth="yes"/>
      <point x="-23.0" y="35.0"/>
      <point x="-8.0" y="0.0"/>
      <point x="47.0" y="0.0" type="curve" smooth="yes"/>
      <point x="223.0" y="0.0" type="line" smooth="yes"/>
      <point x="262.0" y="0.0"/>
      <point x="272.0" y="12.0"/>
      <point x="280.7" y="19.54" type="curve" smooth="yes"/>
      <point x="284.039" y="22.433799999999998"/>
      <point x="289.6947748073135" y="22.155515481169108"/>
      <point x="292.73356341981594" y="18.94790527908321" type="curve" smooth="yes"/>
      <point x="305.0" y="6.0"/>
      <point x="315.0" y="0.0"/>
      <point x="350.0" y="0.0" type="curve" smooth="yes"/>
      <point x="381.0" y="0.0" type="line" smooth="yes"/>
      <point x="444.0" y="0.0"/>
      <point x="428.0" y="0.0"/>
      <point x="553.0" y="338.0" type="curve" smooth="yes"/>
      <point x="567.0" y="377.0"/>
      <point x="575.0" y="389.0"/>
      <point x="595.3" y="401.18" type="curve" smooth="yes"/>
      <point x="603.091" y="405.8546"/>
      <point x="610.0" y="401.94279067170277"/>
      <point x="610.0" y="392.8570014291548" type="curve" smooth="yes"/>
      <point x="610.0" y="146.75786425704965" type="line" smooth="yes"/>
      <point x="610.0" y="136.28619620081332"/>
      <point x="600.7222" y="126.6052"/>
      <point x="590.26" y="126.16" type="curve" smooth="yes"/>
      <point x="563.0" y="125.0"/>
      <point x="545.0" y="96.0"/>
      <point x="545.0" y="63.0" type="curve" smooth="yes"/>
      <point x="545.0" y="12.0"/>
      <point x="582.0" y="0.0"/>
      <point x="618.0" y="0.0" type="curve" smooth="yes"/>
      <point x="719.0" y="0.0" type="line" smooth="yes"/>
      <point x="782.0" y="0.0"/>
      <point x="791.0" y="41.0"/>
      <point x="791.0" y="61.0" type="curve" smooth="yes"/>
      <point x="791.0" y="96.0"/>
      <point x="772.0" y="125.0"/>
      <point x="744.74" y="126.16" type="curve" smooth="yes"/>
      <point x="734.2778" y="126.6052"/>
      <point x="725.0" y="136.28619620081332"/>
      <point x="725.0" y="146.75786425704965" type="curve" smooth="yes"/>
      <point x="725.0" y="384.933352836887" type="line" smooth="yes"/>
      <point x="725.0" y="398.2186758333369"/>
      <point x="735.0674" y="403.8806"/>
      <point x="746.42" y="396.98" type="curve" smooth="yes"/>
      <point x="776.0" y="379.0"/>
      <point x="756.0" y="406.0"/>
      <point x="889.0" y="49.0" type="curve" smooth="yes"/>
      <point x="901.0" y="16.0"/>
      <point x="911.0" y="0.0"/>
      <point x="952.0" y="0.0" type="curve" smooth="yes"/>
      <point x="983.0" y="0.0" type="line" smooth="yes"/>
      <point x="1051.0" y="0.0"/>
      <point x="1059.0" y="41.0"/>
      <point x="1059.0" y="63.0" type="curve" smooth="yes"/>
      <point x="1059.0" y="100.0"/>
      <point x="1032.0" y="127.0"/>
      <point x="993.0" y="127.0" type="curve" smooth="yes"/>
      <point x="991.0" y="127.0" type="line"/>
      <point x="915.0" y="350.0"/>
      <point x="911.0" y="477.0"/>
      <point x="795.4226883583735" y="516.4829325483817" type="curve" smooth="yes"/>
      <point x="771.3486635284355" y="524.7069782977394"/>
      <point x="761.2400229420545" y="551.5605594056532"/>
      <point x="773.9149424299031" y="573.6182115013899" type="curve" smooth="yes"/>
      <point x="827.0" y="666.0"/>
      <point x="940.0" y="813.0"/>
      <point x="940.0" y="848.0" type="curve" smooth="yes"/>
      <point x="940.0" y="864.0"/>
      <point x="930.0" y="881.0"/>
      <point x="901.0" y="881.0" type="curve" smooth="yes"/>
      <point x="436.0" y="881.0" type="line" smooth="yes"/>
      <point x="408.0" y="881.0"/>
      <point x="395.0" y="864.0"/>
      <point x="395.0" y="848.0" type="curve" smooth="yes"/>
      <point x="395.0" y="827.0"/>
      <point x="414.0" y="805.0"/>
      <point x="552.2502986082688" y="587.5086765796746" type="curve" smooth="yes"/>
      <point x="565.8976403458863" y="566.039077992447"/>
      <point x="555.44" y="547.0"/>
      <point x="530.0" y="547.0" type="curve" smooth="yes"/>
      <point x="257.0" y="547.0" type="line" smooth="yes"/>
      <point x="231.56" y="547.0"/>
      <point x="209.0" y="569.56"/>
      <point x="209.0" y="595.0" type="curve" smooth="yes"/>
      <point x="209.0" y="750.96" type="line" smooth="yes"/>
      <point x="209.0" y="753.6312"/>
      <point x="211.3688" y="756.0"/>
      <point x="214.04" y="756.0" type="curve" smooth="yes"/>
      <point x="221.0" y="756.0" type="line" smooth="yes"/>
      <point x="283.0" y="756.0"/>
      <point x="297.0" y="788.0"/>
      <point x="297.0" y="821.0" type="curve" smooth="yes"/>
      <point x="297.0" y="852.0"/>
      <point x="276.0" y="881.0"/>
      <point x="223.0" y="881.0" type="curve" smooth="yes"/>
      <point x="49.0" y="881.0" type="line" smooth="yes"/>
      <point x="-10.0" y="881.0"/>
      <point x="-23.0" y="844.0"/>
      <point x="-23.0" y="819.0" type="curve" smooth="yes"/>
      <point x="-23.0" y="756.0"/>
      <point x="27.0" y="756.0"/>
      <point x="63.0" y="756.0" type="curve" smooth="yes"/>
      <point x="66.0" y="756.0" type="line"/>
      <point x="66.0" y="127.0" type="line"/>
      <point x="57.0" y="127.0" type="line" smooth="yes"/>
      <point x="25.0" y="127.0"/>
      <point x="-23.0" y="123.0"/>
    </contour>
    <contour>
      <point x="209.0" y="127.0" type="line"/>
      <point x="209.0" y="376.0" type="line" smooth="yes"/>
      <point x="209.0" y="401.44"/>
      <point x="231.56" y="424.0"/>
      <point x="257.0" y="424.0" type="curve" smooth="yes"/>
      <point x="425.31739861622816" y="424.0" type="line" smooth="yes"/>
      <point x="436.2791773496272" y="424.0"/>
      <point x="442.052" y="415.117"/>
      <point x="437.6" y="405.1" type="curve" smooth="yes"/>
      <point x="426.0" y="379.0" type="line"/>
      <point x="412.0" y="338.0" type="line"/>
      <point x="348.5201804465133" y="135.05694051839853" type="line" smooth="yes"/>
      <point x="347.18448480986126" y="130.78676204364731"/>
      <point x="342.052" y="126.6052"/>
      <point x="337.6" y="126.16" type="curve" smooth="yes"/>
      <point x="326.0" y="125.0" type="line"/>
      <point x="314.98" y="121.52" type="line" smooth="yes"/>
      <point x="310.7506" y="120.1844"/>
      <point x="304.0031653157342" y="116.45269051837406"/>
      <point x="300.6237559909238" y="113.58019259228523" type="curve" smooth="yes"/>
      <point x="295.4" y="109.14" type="line" smooth="yes"/>
      <point x="290.948" y="105.3558"/>
      <point x="283.05560678664136" y="105.36003866323145"/>
      <point x="278.6076740141305" y="109.14901843240733" type="curve" smooth="yes"/>
      <point x="260.0" y="125.0"/>
      <point x="250.0" y="127.0"/>
      <point x="217.0" y="127.0" type="curve" smooth="yes"/>
    </contour>
    <contour>
      <point x="574.86" y="729.96" type="curve" smooth="yes"/>
      <point x="567.5142" y="743.7612"/>
      <point x="574.8644519213707" y="756.0"/>
      <point x="590.4988338752569" y="756.0" type="curve" smooth="yes"/>
      <point x="726.0" y="756.0" type="line" smooth="yes"/>
      <point x="751.44" y="756.0"/>
      <point x="762.4637411078927" y="736.6126760285418"/>
      <point x="749.4547683146653" y="714.7503745288125" type="curve" smooth="yes"/>
      <point x="702.0" y="635.0"/>
      <point x="676.0" y="590.0"/>
      <point x="670.0" y="547.0" type="curve"/>
      <point x="668.0" y="547.0" type="line"/>
      <point x="657.0" y="610.0"/>
      <point x="594.0" y="694.0"/>
    </contour>
  </outline>
</glyph>
<glyph name="uni046E" format="2">
  <advance width="1228"/>
  <unicode hex="046E"/>
  <outline>
    <contour>
      <point x="25.0" y="-279.0" type="curve" smooth="yes"/>
      <point x="25.0" y="-391.0"/>
      <point x="117.0" y="-465.0"/>
      <point x="209.0" y="-465.0" type="curve" smooth="yes"/>
      <point x="246.0" y="-465.0"/>
      <point x="272.0" y="-440.0"/>
      <point x="272.0" y="-401.0" type="curve" smooth="yes"/>
      <point x="272.0" y="-311.0"/>
      <point x="164.0" y="-367.0"/>
      <point x="164.0" y="-287.0" type="curve" smooth="yes"/>
      <point x="164.0" y="-209.0"/>
      <point x="274.0" y="-197.0"/>
      <point x="639.0" y="-55.0" type="curve" smooth="yes"/>
      <point x="756.0" y="-10.0"/>
      <point x="993.0" y="51.0"/>
      <point x="993.0" y="326.0" type="curve" smooth="yes"/>
      <point x="993.0" y="418.0"/>
      <point x="963.0" y="575.0"/>
      <point x="799.5955854125565" y="647.2229456740082" type="curve" smooth="yes"/>
      <point x="790.2699251439016" y="651.3447844667838"/>
      <point x="789.3038" y="660.3298"/>
      <point x="797.54" y="666.34" type="curve" smooth="yes"/>
      <point x="819.0" y="682.0"/>
      <point x="940.0" y="766.0"/>
      <point x="940.0" y="934.0" type="curve" smooth="yes"/>
      <point x="940.0" y="995.0"/>
      <point x="920.0" y="1219.0"/>
      <point x="665.2839030830247" y="1261.6104994842524" type="curve" smooth="yes"/>
      <point x="657.7134344490216" y="1262.8769347575985"/>
      <point x="654.3558" y="1269.922"/>
      <point x="658.14" y="1276.6" type="curve" smooth="yes"/>
      <point x="668.0" y="1294.0"/>
      <point x="680.0" y="1325.0"/>
      <point x="696.0" y="1354.0" type="curve" smooth="yes"/>
      <point x="736.92236328125" y="1423.7196044921875"/>
      <point x="762.9130859375" y="1427.3953857421875"/>
      <point x="786.5933227539062" y="1430.7445068359375" type="curve" smooth="yes"/>
      <point x="794.160888671875" y="1431.8148193359375"/>
      <point x="801.492431640625" y="1432.8516845703125"/>
      <point x="809.0" y="1436.0" type="curve" smooth="yes"/>
      <point x="834.0" y="1446.0"/>
      <point x="844.0" y="1466.0"/>
      <point x="844.0" y="1487.0" type="curve" smooth="yes"/>
      <point x="844.0" y="1522.0"/>
      <point x="817.0" y="1556.0"/>
      <point x="772.0" y="1556.0" type="curve" smooth="yes"/>
      <point x="662.0" y="1556.0"/>
      <point x="569.0" y="1450.0"/>
      <point x="552.76" y="1430.86" type="curve" smooth="yes"/>
      <point x="546.5272" y="1423.5141999999998"/>
      <point x="534.5166799564738" y="1422.5633894968096"/>
      <point x="527.2057020350506" y="1428.8369989293822" type="curve" smooth="yes"/>
      <point x="393.0" y="1544.0"/>
      <point x="414.0" y="1552.0"/>
      <point x="344.0" y="1552.0" type="curve" smooth="yes"/>
      <point x="283.0" y="1552.0" type="line" smooth="yes"/>
      <point x="225.0" y="1552.0"/>
      <point x="174.0" y="1546.0"/>
      <point x="174.0" y="1497.0" type="curve" smooth="yes"/>
      <point x="174.0" y="1481.0"/>
      <point x="182.0" y="1460.0"/>
      <point x="205.0" y="1438.0" type="curve" smooth="yes"/>
      <point x="229.0" y="1413.0"/>
      <point x="375.0" y="1282.0"/>
      <point x="391.24" y="1269.24" type="curve" smooth="yes"/>
      <point x="397.4728" y="1264.3428"/>
      <point x="396.22206320537896" y="1258.1373608808676"/>
      <point x="388.5788578837851" y="1256.036938044399" type="curve" smooth="yes"/>
      <point x="141.0" y="1188.0"/>
      <point x="119.0" y="1036.0"/>
      <point x="119.0" y="975.0" type="curve" smooth="yes"/>
      <point x="119.0" y="905.0"/>
      <point x="166.0" y="877.0"/>
      <point x="209.0" y="877.0" type="curve" smooth="yes"/>
      <point x="256.0" y="877.0"/>
      <point x="299.0" y="913.0"/>
      <point x="299.0" y="967.0" type="curve" smooth="yes"/>
      <point x="299.0" y="991.0"/>
      <point x="291.0" y="1008.0"/>
      <point x="282.3" y="1019.6" type="curve" smooth="yes"/>
      <point x="278.961" y="1024.052"/>
      <point x="278.56919763874606" y="1032.2134841275436"/>
      <point x="281.46637795477886" y="1036.9648598458373" type="curve" smooth="yes"/>
      <point x="326.0" y="1110.0"/>
      <point x="428.0" y="1147.0"/>
      <point x="543.0" y="1147.0" type="curve" smooth="yes"/>
      <point x="766.0" y="1147.0"/>
      <point x="797.0" y="1008.0"/>
      <point x="797.0" y="934.0" type="curve" smooth="yes"/>
      <point x="797.0" y="854.0"/>
      <point x="748.0" y="713.0"/>
      <point x="551.0" y="713.0" type="curve" smooth="yes"/>
      <point x="442.0" y="713.0" type="line" smooth="yes"/>
      <point x="403.0" y="713.0"/>
      <point x="377.0" y="688.0"/>
      <point x="377.0" y="651.0" type="curve" smooth="yes"/>
      <point x="377.0" y="588.0"/>
      <point x="426.0" y="588.0"/>
      <point x="469.0" y="588.0" type="curve" smooth="yes"/>
      <point x="532.0" y="588.0" type="line" smooth="yes"/>
      <point x="809.0" y="588.0"/>
      <point x="858.0" y="438.0"/>
      <point x="858.0" y="340.0" type="curve" smooth="yes"/>
      <point x="858.0" y="199.0"/>
      <point x="768.0" y="147.0"/>
      <point x="655.0" y="104.0" type="curve" smooth="yes"/>
      <point x="494.0" y="43.0"/>
      <point x="182.0" y="-72.0"/>
      <point x="168.0" y="-78.0" type="curve" smooth="yes"/>
      <point x="102.0" y="-109.0"/>
      <point x="25.0" y="-176.0"/>
    </contour>
  </outline>
</glyph>
<glyph name="uni0473" format="2">
  <advance width="1228"/>
  <unicode hex="0473"/>
  <outline>
    <contour>
      <point x="96.0" y="440.0" type="curve" smooth="yes"/>
      <point x="96.0" y="174.0"/>
      <point x="305.0" y="-23.0"/>
      <point x="537.0" y="-23.0" type="curve" smooth="yes"/>
      <point x="788.0" y="-23.0"/>
      <point x="977.0" y="193.0"/>
      <point x="977.0" y="440.0" type="curve" smooth="yes"/>
      <point x="977.0" y="709.0"/>
      <point x="770.0" y="905.0"/>
      <point x="537.0" y="905.0" type="curve" smooth="yes"/>
      <point x="285.0" y="905.0"/>
      <point x="96.0" y="688.0"/>
    </contour>
    <contour>
      <point x="241.821471932257" y="376.03457245056603" type="curve" smooth="yes"/>
      <point x="240.85609180816078" y="401.456249051766"/>
      <point x="262.56" y="424.0"/>
      <point x="288.0" y="424.0" type="curve" smooth="yes"/>
      <point x="786.0" y="424.0" type="line" smooth="yes"/>
      <point x="811.44" y="424.0"/>
      <point x="831.8828277616462" y="401.5395640800731"/>
      <point x="829.4953782162686" y="376.21183846824056" type="curve" smooth="yes"/>
      <point x="811.0" y="180.0"/>
      <point x="647.0" y="104.0"/>
      <point x="537.0" y="104.0" type="curve" smooth="yes"/>
      <point x="360.0" y="104.0"/>
      <point x="246.0" y="266.0"/>
    </contour>
    <contour>
      <point x="302.0" y="547.0" type="line" smooth="yes"/>
      <point x="276.56" y="547.0"/>
      <point x="260.2226092287789" y="568.6848503427143"/>
      <point x="267.23959410378484" y="593.1379794525836" type="curve" smooth="yes"/>
      <point x="287.0" y="662.0"/>
      <point x="389.0" y="778.0"/>
      <point x="537.0" y="778.0" type="curve" smooth="yes"/>
      <point x="657.0" y="778.0"/>
      <point x="778.0" y="692.0"/>
      <point x="805.9396511509651" y="593.1890386124404" type="curve" smooth="yes"/>
      <point x="812.8616360409536" y="568.708848147847"/>
      <point x="796.44" y="547.0"/>
      <point x="771.0" y="547.0" type="curve" smooth="yes"/>
    </contour>
  </outline>
</glyph>
<glyph name="uni0475" format="2">
  <advance width="1228"/>
  <unicode hex="0475"/>
  <outline>
    <contour>
      <point x="43.0" y="817.0" type="curve" smooth="yes"/>
      <point x="43.0" y="764.0"/>
      <point x="84.0" y="756.0"/>
      <point x="121.0" y="756.0" type="curve" smooth="yes"/>
      <point x="155.22" y="756.0" type="line" smooth="yes"/>
      <point x="168.3534" y="756.0"/>
      <point x="183.346625884037" y="744.8445803865434"/>
      <point x="187.12048060433403" y="732.2650646522198" type="curve" smooth="yes"/>
      <point x="387.0" y="66.0" type="line" smooth="yes"/>
      <point x="401.0" y="16.0"/>
      <point x="416.0" y="-16.0"/>
      <point x="487.0" y="-16.0" type="curve" smooth="yes"/>
      <point x="535.0" y="-16.0" type="line" smooth="yes"/>
      <point x="612.0" y="-16.0"/>
      <point x="623.0" y="31.0"/>
      <point x="637.0" y="76.0" type="curve" smooth="yes"/>
      <point x="813.0" y="657.0" type="line" smooth="yes"/>
      <point x="831.0" y="717.0"/>
      <point x="831.0" y="723.0"/>
      <point x="846.66" y="739.82" type="curve" smooth="yes"/>
      <point x="852.6702" y="746.2754"/>
      <point x="859.7587666752521" y="744.378677740574"/>
      <point x="861.7420567558556" y="735.7844207246255" type="curve" smooth="yes"/>
      <point x="870.0" y="700.0"/>
      <point x="911.0" y="682.0"/>
      <point x="948.0" y="682.0" type="curve" smooth="yes"/>
      <point x="997.0" y="682.0"/>
      <point x="1038.0" y="717.0"/>
      <point x="1038.0" y="772.0" type="curve" smooth="yes"/>
      <point x="1038.0" y="844.0"/>
      <point x="969.0" y="893.0"/>
      <point x="895.0" y="893.0" type="curve" smooth="yes"/>
      <point x="782.0" y="893.0"/>
      <point x="713.0" y="799.0"/>
      <point x="686.0" y="729.0" type="curve" smooth="yes"/>
      <point x="674.0" y="700.0"/>
      <point x="524.0" y="203.0"/>
      <point x="512.0" y="143.0" type="curve"/>
      <point x="510.0" y="143.0" type="line"/>
      <point x="487.0" y="225.0" type="line"/>
      <point x="337.2641636610777" y="731.4313955157181" type="line" smooth="yes"/>
      <point x="333.41415692070655" y="744.4527558923875"/>
      <point x="342.0414" y="756.0"/>
      <point x="355.62" y="756.0" type="curve" smooth="yes"/>
      <point x="391.0" y="756.0" type="line" smooth="yes"/>
      <point x="412.0" y="756.0"/>
      <point x="463.0" y="758.0"/>
      <point x="463.0" y="819.0" type="curve" smooth="yes"/>
      <point x="463.0" y="870.0"/>
      <point x="428.0" y="881.0"/>
      <point x="387.0" y="881.0" type="curve" smooth="yes"/>
      <point x="119.0" y="881.0" type="line" smooth="yes"/>
      <point x="57.0" y="881.0"/>
      <point x="43.0" y="850.0"/>
    </contour>
  </outline>
</glyph>
<glyph name="uni047A" format="2">
  <advance width="1228"/>
  <unicode hex="047A"/>
  <outline>
    <contour>
      <point x="94.0" y="621.0" type="line" smooth="yes"/>
      <point x="94.0" y="74.0"/>
      <point x="133.0" y="-4.0"/>
      <point x="410.75199089643326" y="-20.968771148013605" type="curve" smooth="yes"/>
      <point x="428.37343572132363" y="-22.045322439566394"/>
      <point x="445.3818" y="-38.5946"/>
      <point x="446.94" y="-56.18" type="curve" smooth="yes"/>
      <point x="451.0" y="-102.0"/>
      <point x="508.0" y="-117.0"/>
      <point x="537.0" y="-117.0" type="curve" smooth="yes"/>
      <point x="561.0" y="-117.0"/>
      <point x="623.0" y="-106.0"/>
      <point x="626.48" y="-57.86" type="curve" smooth="yes"/>
      <point x="627.8156" y="-39.3842"/>
      <point x="645.3822149969848" y="-21.78845355327765"/>
      <point x="663.8557765893294" y="-20.422241602718405" type="curve" smooth="yes"/>
      <point x="940.0" y="0.0"/>
      <point x="979.0" y="61.0"/>
      <point x="979.0" y="627.0" type="curve" smooth="yes"/>
      <point x="979.0" y="1176.0"/>
      <point x="942.0" y="1255.0"/>
      <point x="662.6324593594164" y="1271.9584130101314" type="curve" smooth="yes"/>
      <point x="644.8072558989257" y="1273.0404541147618"/>
      <point x="627.8156" y="1289.792"/>
      <point x="626.48" y="1307.6" type="curve" smooth="yes"/>
      <point x="623.0" y="1354.0"/>
      <point x="565.0" y="1368.0"/>
      <point x="537.0" y="1368.0" type="curve" smooth="yes"/>
      <point x="508.0" y="1368.0"/>
      <point x="449.0" y="1352.0"/>
      <point x="446.1" y="1306.76" type="curve" smooth="yes"/>
      <point x="444.987" y="1289.3971999999999"/>
      <point x="428.6169768620658" y="1272.8123401253802"/>
      <point x="411.2701635363103" y="1271.4730640965533" type="curve" smooth="yes"/>
      <point x="172.0" y="1253.0"/>
      <point x="94.0" y="1223.0"/>
      <point x="94.0" y="682.0" type="curve" smooth="yes"/>
    </contour>
    <contour>
      <point x="238.0" y="639.0" type="curve" smooth="yes"/>
      <point x="238.0" y="655.0" type="line" smooth="yes"/>
      <point x="238.0" y="1040.0"/>
      <point x="252.0" y="1128.0"/>
      <point x="407.20887399525367" y="1142.5269389453686" type="curve" smooth="yes"/>
      <point x="432.5381707777692" y="1144.8976613043233"/>
      <point x="455.871233655991" y="1124.4568291512337"/>
      <point x="456.85368862976804" y="1099.0358067047525" type="curve" smooth="yes"/>
      <point x="463.0" y="940.0"/>
      <point x="467.0" y="903.0"/>
      <point x="535.0" y="903.0" type="curve" smooth="yes"/>
      <point x="539.0" y="903.0" type="line" smooth="yes"/>
      <point x="612.0" y="903.0"/>
      <point x="610.0" y="954.0"/>
      <point x="616.0120697593595" y="1099.0411829445477" type="curve" smooth="yes"/>
      <point x="617.065672786899" y="1124.4593559839375"/>
      <point x="640.4598789062363" y="1144.8769268695598"/>
      <point x="665.7869763962476" y="1142.482823126723" type="curve" smooth="yes"/>
      <point x="819.0" y="1128.0"/>
      <point x="834.0" y="1051.0"/>
      <point x="836.0" y="639.0" type="curve" smooth="yes"/>
      <point x="836.0" y="233.0"/>
      <point x="825.0" y="125.0"/>
      <point x="665.799070309216" y="110.38735427958986" type="curve" smooth="yes"/>
      <point x="640.4655630453315" y="108.06205651140723"/>
      <point x="617.0937972975347" y="128.54179222382385"/>
      <point x="616.0719091436908" y="153.96126005068902" type="curve" smooth="yes"/>
      <point x="610.0" y="305.0"/>
      <point x="608.0" y="348.0"/>
      <point x="539.0" y="348.0" type="curve" smooth="yes"/>
      <point x="535.0" y="348.0" type="line" smooth="yes"/>
      <point x="465.0" y="348.0"/>
      <point x="465.0" y="311.0"/>
      <point x="457.33868257824366" y="153.94299285399504" type="curve" smooth="yes"/>
      <point x="456.09918081177454" y="128.53320664137766"/>
      <point x="432.523532826251" y="107.93959361397833"/>
      <point x="407.1777294175554" y="110.12679492335816" type="curve" smooth="yes"/>
      <point x="258.0" y="123.0"/>
      <point x="238.0" y="215.0"/>
    </contour>
  </outline>
</glyph>
<glyph name="uni047E" format="2">
  <advance width="1228"/>
  <unicode hex="047E"/>
  <outline>
    <contour>
      <point x="59.0" y="623.0" type="curve" smooth="yes"/>
      <point x="59.0" y="408.0"/>
      <point x="117.0" y="-23.0"/>
      <point x="344.0" y="-23.0" type="curve" smooth="yes"/>
      <point x="377.0" y="-23.0"/>
      <point x="467.0" y="-16.0"/>
      <point x="537.0" y="78.0" type="curve"/>
      <point x="539.0" y="78.0" type="line"/>
      <point x="588.0" y="12.0"/>
      <point x="653.0" y="-23.0"/>
      <point x="731.0" y="-23.0" type="curve" smooth="yes"/>
      <point x="958.0" y="-23.0"/>
      <point x="1016.0" y="406.0"/>
      <point x="1016.0" y="623.0" type="curve" smooth="yes"/>
      <point x="1016.0" y="850.0"/>
      <point x="963.0" y="1274.0"/>
      <point x="748.0" y="1274.0" type="curve" smooth="yes"/>
      <point x="633.0" y="1274.0"/>
      <point x="616.0" y="1155.0"/>
      <point x="616.0" y="1087.0" type="curve" smooth="yes"/>
      <point x="616.0" y="1061.0"/>
      <point x="618.0" y="1042.0"/>
      <point x="618.0" y="1038.0" type="curve"/>
      <point x="627.0" y="999.0"/>
      <point x="662.0" y="967.0"/>
      <point x="709.0" y="967.0" type="curve" smooth="yes"/>
      <point x="758.0" y="967.0"/>
      <point x="799.0" y="1006.0"/>
      <point x="799.0" y="1057.0" type="curve" smooth="yes"/>
      <point x="799.0" y="1102.0"/>
      <point x="774.0" y="1120.0"/>
      <point x="766.243836804081" y="1126.4634693299324" type="curve" smooth="yes"/>
      <point x="763.994603297918" y="1128.3378305850683"/>
      <point x="762.3948" y="1132.5662"/>
      <point x="762.84" y="1135.46" type="curve" smooth="yes"/>
      <point x="763.16" y="1137.54" type="line" smooth="yes"/>
      <point x="763.6052" y="1140.4338"/>
      <point x="765.6733018500082" y="1141.0147266186343"/>
      <point x="767.5602167021451" y="1138.7760140822006" type="curve" smooth="yes"/>
      <point x="823.0" y="1073.0"/>
      <point x="872.0" y="866.0"/>
      <point x="872.0" y="627.0" type="curve" smooth="yes"/>
      <point x="872.0" y="391.0"/>
      <point x="809.0" y="104.0"/>
      <point x="717.0" y="104.0" type="curve" smooth="yes"/>
      <point x="674.0" y="104.0"/>
      <point x="608.0" y="143.0"/>
      <point x="608.0" y="215.0" type="curve" smooth="yes"/>
      <point x="608.0" y="503.00840168067236" type="line" smooth="yes"/>
      <point x="608.0" y="514.133948789916"/>
      <point x="617.2778" y="527.3558"/>
      <point x="627.74" y="531.14" type="curve" smooth="yes"/>
      <point x="655.0" y="541.0"/>
      <point x="657.0" y="573.0"/>
      <point x="657.0" y="586.0" type="curve" smooth="yes"/>
      <point x="657.0" y="645.0"/>
      <point x="610.0" y="649.0"/>
      <point x="578.0" y="649.0" type="curve" smooth="yes"/>
      <point x="504.0" y="649.0" type="line" smooth="yes"/>
      <point x="500.55059814453125" y="649.0"/>
      <point x="497.1423645019531" y="649.0823364257812"/>
      <point x="493.7836608886719" y="649.1635131835938" type="curve" smooth="yes"/>
      <point x="480.58935546875" y="649.4822387695312"/>
      <point x="468.1593017578125" y="649.7825927734375"/>
      <point x="457.0" y="645.0" type="curve"/>
      <point x="434.0" y="637.0"/>
      <point x="416.0" y="612.0"/>
      <point x="416.0" y="586.0" type="curve" smooth="yes"/>
      <point x="416.0" y="539.0"/>
      <point x="465.0" y="526.0"/>
      <point x="465.0" y="524.0" type="curve" smooth="yes"/>
      <point x="465.0" y="215.0" type="line" smooth="yes"/>
      <point x="465.0" y="145.0"/>
      <point x="403.0" y="104.0"/>
      <point x="358.0" y="104.0" type="curve" smooth="yes"/>
      <point x="264.0" y="104.0"/>
      <point x="203.0" y="399.0"/>
      <point x="203.0" y="625.0" type="curve" smooth="yes"/>
      <point x="203.0" y="860.0"/>
      <point x="250.0" y="1073.0"/>
      <point x="307.4128985859159" y="1138.8836541149856" type="curve" smooth="yes"/>
      <point x="309.31406233538047" y="1141.0653174340432"/>
      <point x="311.0" y="1140.4338"/>
      <point x="311.0" y="1137.54" type="curve" smooth="yes"/>
      <point x="311.0" y="1130.0" type="line"/>
      <point x="305.0" y="1126.0"/>
      <point x="276.0" y="1102.0"/>
      <point x="276.0" y="1057.0" type="curve" smooth="yes"/>
      <point x="276.0" y="1004.0"/>
      <point x="319.0" y="967.0"/>
      <point x="367.0" y="967.0" type="curve" smooth="yes"/>
      <point x="414.0" y="967.0"/>
      <point x="449.0" y="999.0"/>
      <point x="455.0" y="1038.0" type="curve"/>
      <point x="457.0" y="1044.0"/>
      <point x="459.0" y="1061.0"/>
      <point x="459.0" y="1083.0" type="curve" smooth="yes"/>
      <point x="459.0" y="1249.0"/>
      <point x="379.0" y="1274.0"/>
      <point x="326.0" y="1274.0" type="curve" smooth="yes"/>
      <point x="113.0" y="1274.0"/>
      <point x="59.0" y="850.0"/>
    </contour>
    <contour>
      <point x="176.0" y="1468.0" type="line" smooth="yes"/>
      <point x="176.0" y="1467.4825439453125"/>
      <point x="175.9986572265625" y="1466.9403076171875"/>
      <point x="175.9972686767578" y="1466.3748779296875" type="curve" smooth="yes"/>
      <point x="175.9447021484375" y="1445.088623046875"/>
      <point x="175.8111572265625" y="1391.0"/>
      <point x="244.0" y="1391.0" type="curve" smooth="yes"/>
      <point x="248.0" y="1391.0" type="line" smooth="yes"/>
      <point x="317.0" y="1391.0"/>
      <point x="319.0" y="1432.0"/>
      <point x="319.0" y="1475.0" type="curve" smooth="yes"/>
      <point x="319.0" y="1519.66" type="line" smooth="yes"/>
      <point x="319.0" y="1536.8002000000001"/>
      <point x="334.1998" y="1552.0"/>
      <point x="351.34" y="1552.0" type="curve" smooth="yes"/>
      <point x="445.82" y="1552.0" type="line" smooth="yes"/>
      <point x="463.4054" y="1552.0"/>
      <point x="479.0" y="1536.4053999999999"/>
      <point x="479.0" y="1518.82" type="curve" smooth="yes"/>
      <point x="479.0" y="1473.0" type="line" smooth="yes"/>
      <point x="479.0" y="1444.0"/>
      <point x="479.0" y="1391.0"/>
      <point x="539.0" y="1391.0" type="curve" smooth="yes"/>
      <point x="561.0" y="1391.0"/>
      <point x="596.0" y="1407.0"/>
      <point x="596.0" y="1462.0" type="curve" smooth="yes"/>
      <point x="596.0" y="1514.2" type="line" smooth="yes"/>
      <point x="596.0" y="1534.234"/>
      <point x="613.766" y="1552.0"/>
      <point x="633.8" y="1552.0" type="curve" smooth="yes"/>
      <point x="721.56" y="1552.0" type="line" smooth="yes"/>
      <point x="739.8131999999999" y="1552.0"/>
      <point x="756.0" y="1535.8132"/>
      <point x="756.0" y="1517.56" type="curve" smooth="yes"/>
      <point x="756.0" y="1470.0" type="line" smooth="yes"/>
      <point x="756.0" y="1427.0"/>
      <point x="758.0" y="1391.0"/>
      <point x="831.0" y="1391.0" type="curve" smooth="yes"/>
      <point x="834.0" y="1391.0" type="line" smooth="yes"/>
      <point x="895.0" y="1391.0"/>
      <point x="899.0" y="1432.0"/>
      <point x="899.0" y="1475.0" type="curve" smooth="yes"/>
      <point x="899.0" y="1608.0" type="line" smooth="yes"/>
      <point x="899.0" y="1679.0"/>
      <point x="846.0" y="1679.0"/>
      <point x="823.0" y="1679.0" type="curve" smooth="yes"/>
      <point x="254.0" y="1679.0" type="line" smooth="yes"/>
      <point x="176.0" y="1679.0"/>
      <point x="176.0" y="1636.0"/>
      <point x="176.0" y="1597.0" type="curve" smooth="yes"/>
    </contour>
  </outline>
</glyph>
<glyph name="uni0483" format="2">
  <unicode hex="0483"/>
  <outline>
    <contour>
      <point x="165.37436925037633" y="1073.0" type="line" smooth="yes"/>
      <point x="165.37436925037633" y="1071.8951416015625"/>
      <point x="165.3553213674736" y="1070.6092529296875"/>
      <point x="165.33397848146717" y="1069.1690673828125" type="curve" smooth="yes"/>
      <point x="165.00769589735376" y="1047.14599609375"/>
      <point x="164.14622116088867" y="989.0"/>
      <point x="222.67163530917003" y="989.0" type="curve" smooth="yes"/>
      <point x="286.7964263156205" y="989.0"/>
      <point x="286.7518505410517" y="1033.741455078125"/>
      <point x="286.711749058248" y="1073.9984130859375" type="curve" smooth="yes"/>
      <point x="286.7107590569092" y="1075.0020751953125"/>
      <point x="286.7097561984101" y="1076.0028076171875"/>
      <point x="286.7097561984101" y="1077.0" type="curve" smooth="yes"/>
      <point x="286.7097561984101" y="1122.24" type="line" smooth="yes"/>
      <point x="286.7097561984101" y="1139.6028000000001"/>
      <point x="299.43896417189836" y="1152.0243913565648"/>
      <point x="313.7931774185979" y="1148.668917779925" type="curve" smooth="yes"/>
      <point x="787.2182273590491" y="1038.0" type="line" smooth="yes"/>
      <point x="805.7555781427766" y="1034.0"/>
      <point x="825.1355357803097" y="1028.0"/>
      <point x="847.0433139792602" y="1028.0" type="curve" smooth="yes"/>
      <point x="881.5901949852976" y="1028.0"/>
      <point x="909.3962211608887" y="1040.0"/>
      <point x="909.3962211608887" y="1102.0" type="curve" smooth="yes"/>
      <point x="909.3962211608887" y="1260.0" type="line" smooth="yes"/>
      <point x="909.3962211608887" y="1317.0"/>
      <point x="878.2197675700745" y="1331.0"/>
      <point x="853.7841688097066" y="1331.0" type="curve" smooth="yes"/>
      <point x="847.0433139792602" y="1331.0" type="line" smooth="yes"/>
      <point x="786.984484185798" y="1331.0"/>
      <point x="787.1200500834195" y="1281.8282470703125"/>
      <point x="787.2113359211579" y="1248.719970703125" type="curve" smooth="yes"/>
      <point x="787.2147816401035" y="1247.455322265625"/>
      <point x="787.2182273590491" y="1246.214111328125"/>
      <point x="787.2182273590491" y="1245.0" type="curve" smooth="yes"/>
      <point x="787.2182273590491" y="1199.76" type="line" smooth="yes"/>
      <point x="787.2182273590491" y="1182.3971999999999"/>
      <point x="774.4890193855608" y="1169.9756086434352"/>
      <point x="760.1348061388613" y="1173.331082220075" type="curve" smooth="yes"/>
      <point x="286.7097561984101" y="1284.0" type="line" smooth="yes"/>
      <point x="267.3297985608769" y="1288.0"/>
      <point x="250.4776614847611" y="1294.0"/>
      <point x="227.72727643200477" y="1294.0" type="curve" smooth="yes"/>
      <point x="172.11522408082266" y="1294.0"/>
      <point x="165.37436925037633" y="1260.0"/>
      <point x="165.37436925037633" y="1225.0" type="curve" smooth="yes"/>
    </contour>
  </outline>
</glyph>
<glyph name="uni048A" format="2">
  <advance width="1228"/>
  <unicode hex="048A"/>
  <outline>
    <contour>
      <point x="37.0" y="61.0" type="curve" smooth="yes"/>
      <point x="37.0" y="41.0"/>
      <point x="47.0" y="0.0"/>
      <point x="109.0" y="0.0" type="curve" smooth="yes"/>
      <point x="336.0" y="0.0" type="line" smooth="yes"/>
      <point x="389.0" y="0.0"/>
      <point x="410.0" y="27.0"/>
      <point x="410.0" y="63.0" type="curve" smooth="yes"/>
      <point x="410.0" y="115.0"/>
      <point x="375.0" y="127.0"/>
      <point x="334.0" y="127.0" type="curve" smooth="yes"/>
      <point x="293.5" y="127.0" type="line" smooth="yes"/>
      <point x="287.935" y="127.0"/>
      <point x="283.0" y="131.935"/>
      <point x="283.0" y="137.5" type="curve" smooth="yes"/>
      <point x="283.0" y="147.8" type="line" smooth="yes"/>
      <point x="283.0" y="150.026"/>
      <point x="284.5792" y="153.1844"/>
      <point x="286.36" y="154.52" type="curve" smooth="yes"/>
      <point x="291.0" y="158.0"/>
      <point x="301.0" y="164.0"/>
      <point x="307.0" y="172.0" type="curve"/>
      <point x="309.0" y="172.0"/>
      <point x="766.0" y="854.0"/>
      <point x="788.0" y="981.0" type="curve"/>
      <point x="788.0" y="150.1" type="line" smooth="yes"/>
      <point x="788.0" y="137.857"/>
      <point x="777.143" y="127.0"/>
      <point x="764.9" y="127.0" type="curve" smooth="yes"/>
      <point x="733.0" y="127.0" type="line" smooth="yes"/>
      <point x="713.0" y="127.0"/>
      <point x="662.0" y="123.0"/>
      <point x="662.0" y="61.0" type="curve" smooth="yes"/>
      <point x="662.0" y="41.0"/>
      <point x="670.0" y="0.0"/>
      <point x="733.0" y="0.0" type="curve" smooth="yes"/>
      <point x="884.0" y="0.0" type="line" smooth="yes"/>
      <point x="909.44" y="0.0"/>
      <point x="932.0" y="-22.56"/>
      <point x="932.0" y="-48.0" type="curve" smooth="yes"/>
      <point x="932.0" y="-272.0" type="line" smooth="yes"/>
      <point x="934.0" y="-330.0"/>
      <point x="971.0" y="-340.0"/>
      <point x="989.0" y="-340.0" type="curve" smooth="yes"/>
      <point x="1014.0" y="-340.0"/>
      <point x="1047.0" y="-330.0"/>
      <point x="1047.0" y="-262.0" type="curve" smooth="yes"/>
      <point x="1047.0" y="47.0" type="line" smooth="yes"/>
      <point x="1047.0" y="48.419700622558594"/>
      <point x="1047.0194091796875" y="49.93614959716797"/>
      <point x="1047.039794921875" y="51.533775329589844" type="curve" smooth="yes"/>
      <point x="1047.3782958984375" y="78.0693130493164"/>
      <point x="1048.002685546875" y="127.0"/>
      <point x="965.0" y="127.0" type="curve" smooth="yes"/>
      <point x="930.2" y="127.0" type="line" smooth="yes"/>
      <point x="916.844" y="127.0"/>
      <point x="905.0" y="138.844"/>
      <point x="905.0" y="152.2" type="curve" smooth="yes"/>
      <point x="905.0" y="1101.74" type="line" smooth="yes"/>
      <point x="905.0" y="1113.5378"/>
      <point x="915.4621999999999" y="1124.0"/>
      <point x="927.26" y="1124.0" type="curve" smooth="yes"/>
      <point x="958.0" y="1124.0" type="line" smooth="yes"/>
      <point x="995.0" y="1124.0"/>
      <point x="1034.0" y="1135.0"/>
      <point x="1034.0" y="1188.0" type="curve" smooth="yes"/>
      <point x="1034.0" y="1210.0"/>
      <point x="1026.0" y="1251.0"/>
      <point x="961.0" y="1251.0" type="curve" smooth="yes"/>
      <point x="733.0" y="1251.0" type="line" smooth="yes"/>
      <point x="676.0" y="1251.0"/>
      <point x="662.0" y="1219.0"/>
      <point x="662.0" y="1186.0" type="curve" smooth="yes"/>
      <point x="662.0" y="1137.0"/>
      <point x="696.0" y="1124.0"/>
      <point x="737.0" y="1124.0" type="curve" smooth="yes"/>
      <point x="777.92" y="1124.0" type="line" smooth="yes"/>
      <point x="783.2624" y="1124.0"/>
      <point x="788.0" y="1119.2624"/>
      <point x="788.0" y="1113.92" type="curve" smooth="yes"/>
      <point x="788.0" y="1110.08" type="line" smooth="yes"/>
      <point x="788.0" y="1104.7376"/>
      <point x="784.085665340715" y="1097.3311354595785"/>
      <point x="779.6716283845" y="1094.3215648076136" type="curve" smooth="yes"/>
      <point x="766.0" y="1085.0"/>
      <point x="760.0" y="1079.0"/>
      <point x="741.0" y="1049.0" type="curve" smooth="yes"/>
      <point x="461.0" y="623.0"/>
      <point x="297.0" y="348.0"/>
      <point x="283.0" y="270.0" type="curve"/>
      <point x="283.0" y="1100.9" type="line" smooth="yes"/>
      <point x="283.0" y="1113.143"/>
      <point x="293.857" y="1124.0"/>
      <point x="306.1" y="1124.0" type="curve" smooth="yes"/>
      <point x="338.0" y="1124.0" type="line" smooth="yes"/>
      <point x="358.0" y="1124.0"/>
      <point x="410.0" y="1128.0"/>
      <point x="410.0" y="1188.0" type="curve" smooth="yes"/>
      <point x="410.0" y="1210.0"/>
      <point x="401.0" y="1251.0"/>
      <point x="336.0" y="1251.0" type="curve" smooth="yes"/>
      <point x="109.0" y="1251.0" type="line" smooth="yes"/>
      <point x="51.0" y="1251.0"/>
      <point x="37.0" y="1219.0"/>
      <point x="37.0" y="1186.0" type="curve" smooth="yes"/>
      <point x="37.0" y="1137.0"/>
      <point x="74.0" y="1124.0"/>
      <point x="113.0" y="1124.0" type="curve" smooth="yes"/>
      <point x="143.74" y="1124.0" type="line" smooth="yes"/>
      <point x="155.5378" y="1124.0"/>
      <point x="166.0" y="1113.5378"/>
      <point x="166.0" y="1101.74" type="curve" smooth="yes"/>
      <point x="166.0" y="150.94" type="line" smooth="yes"/>
      <point x="166.0" y="138.2518"/>
      <point x="154.7482" y="127.0"/>
      <point x="142.06" y="127.0" type="curve" smooth="yes"/>
      <point x="109.0" y="127.0" type="line" smooth="yes"/>
      <point x="90.0" y="127.0"/>
      <point x="37.0" y="123.0"/>
    </contour>
    <contour>
      <point x="225.0" y="1548.0" type="curve" smooth="yes"/>
      <point x="225.0" y="1403.0"/>
      <point x="395.0" y="1378.0"/>
      <point x="535.0" y="1378.0" type="curve" smooth="yes"/>
      <point x="645.0" y="1378.0"/>
      <point x="745.0" y="1391.0"/>
      <point x="803.0" y="1448.0" type="curve" smooth="yes"/>
      <point x="840.0" y="1483.0"/>
      <point x="846.0" y="1528.0"/>
      <point x="846.0" y="1548.0" type="curve" smooth="yes"/>
      <point x="846.0" y="1561.0"/>
      <point x="846.0" y="1565.0"/>
      <point x="843.68" y="1571.96" type="curve" smooth="yes"/>
      <point x="842.7896" y="1574.6312"/>
      <point x="842.6859606457714" y="1579.4008622602"/>
      <point x="843.4594907356839" y="1582.1082175748936" type="curve" smooth="yes"/>
      <point x="846.0" y="1591.0"/>
      <point x="846.0" y="1597.0"/>
      <point x="846.0" y="1612.0" type="curve" smooth="yes"/>
      <point x="846.0" y="1671.0"/>
      <point x="797.0" y="1714.0"/>
      <point x="745.0" y="1714.0" type="curve" smooth="yes"/>
      <point x="682.0" y="1714.0"/>
      <point x="643.0" y="1663.0"/>
      <point x="643.0" y="1612.0" type="curve" smooth="yes"/>
      <point x="643.0" y="1579.0"/>
      <point x="657.0" y="1546.0"/>
      <point x="677.3" y="1533.24" type="curve" smooth="yes"/>
      <point x="685.091" y="1528.3428"/>
      <point x="684.3362630737523" y="1521.1961938074703"/>
      <point x="675.6941767526645" y="1518.0344549095114" type="curve" smooth="yes"/>
      <point x="651.0" y="1509.0"/>
      <point x="598.0" y="1509.0"/>
      <point x="545.0" y="1509.0" type="curve" smooth="yes"/>
      <point x="537.0" y="1509.0" type="line" smooth="yes"/>
      <point x="479.0" y="1509.0"/>
      <point x="424.0" y="1509.0"/>
      <point x="397.9" y="1517.7" type="curve" smooth="yes"/>
      <point x="387.883" y="1521.039"/>
      <point x="386.79090638550434" y="1529.1939375903362"/>
      <point x="395.57639656490284" y="1535.0509310432685" type="curve" smooth="yes"/>
      <point x="424.0" y="1554.0"/>
      <point x="428.0" y="1593.0"/>
      <point x="428.0" y="1612.0" type="curve" smooth="yes"/>
      <point x="428.0" y="1671.0"/>
      <point x="381.0" y="1714.0"/>
      <point x="326.0" y="1714.0" type="curve" smooth="yes"/>
      <point x="266.0" y="1714.0"/>
      <point x="225.0" y="1663.0"/>
      <point x="225.0" y="1612.0" type="curve" smooth="yes"/>
      <point x="225.0" y="1599.0"/>
      <point x="227.0" y="1587.0"/>
      <point x="229.0" y="1577.0" type="curve"/>
      <point x="227.0" y="1569.0"/>
      <point x="225.0" y="1563.0"/>
    </contour>
  </outline>
</glyph>
<glyph name="uni049C" format="2">
  <advance width="1228"/>
  <unicode hex="049C"/>
  <outline>
    <contour>
      <point x="41.0" y="63.0" type="curve" smooth="yes"/>
      <point x="41.0" y="31.0"/>
      <point x="57.0" y="0.0"/>
      <point x="115.0" y="0.0" type="curve" smooth="yes"/>
      <point x="317.0" y="0.0" type="line" smooth="yes"/>
      <point x="379.0" y="0.0"/>
      <point x="389.0" y="39.0"/>
      <point x="389.0" y="61.0" type="curve" smooth="yes"/>
      <point x="389.0" y="113.0"/>
      <point x="354.0" y="127.0"/>
      <point x="313.0" y="127.0" type="curve" smooth="yes"/>
      <point x="289.22" y="127.0" type="line" smooth="yes"/>
      <point x="280.09340000000003" y="127.0"/>
      <point x="272.0" y="135.0934"/>
      <point x="272.0" y="144.22" type="curve" smooth="yes"/>
      <point x="272.0" y="643.04" type="line" smooth="yes"/>
      <point x="272.0" y="662.6288"/>
      <point x="289.3712" y="680.0"/>
      <point x="308.96" y="680.0" type="curve" smooth="yes"/>
      <point x="323.04" y="680.0" type="line" smooth="yes"/>
      <point x="342.6288" y="680.0"/>
      <point x="360.0" y="662.6288"/>
      <point x="360.0" y="643.04" type="curve" smooth="yes"/>
      <point x="360.0" y="494.0" type="line" smooth="yes"/>
      <point x="360.0" y="430.0"/>
      <point x="399.0" y="420.0"/>
      <point x="424.0" y="420.0" type="curve" smooth="yes"/>
      <point x="440.0" y="420.0"/>
      <point x="485.0" y="426.0"/>
      <point x="485.0" y="492.0" type="curve" smooth="yes"/>
      <point x="485.0" y="624.0" type="line" smooth="yes"/>
      <point x="485.0" y="649.44"/>
      <point x="495.9622476054691" y="652.2824259241562"/>
      <point x="508.3239310754662" y="630.0477147322473" type="curve" smooth="yes"/>
      <point x="776.7753581699319" y="147.18953728510598" type="line" smooth="yes"/>
      <point x="782.724418339868" y="136.4890825239998"/>
      <point x="777.143" y="127.0"/>
      <point x="764.9" y="127.0" type="curve" smooth="yes"/>
      <point x="733.0" y="127.0"/>
      <point x="721.0" y="90.0"/>
      <point x="721.0" y="61.0" type="curve" smooth="yes"/>
      <point x="721.0" y="31.0"/>
      <point x="737.0" y="0.0"/>
      <point x="791.0" y="0.0" type="curve" smooth="yes"/>
      <point x="952.0" y="0.0" type="line" smooth="yes"/>
      <point x="1008.0" y="2.0"/>
      <point x="1020.0" y="37.0"/>
      <point x="1020.0" y="63.0" type="curve" smooth="yes"/>
      <point x="1020.0" y="88.0"/>
      <point x="1010.0" y="127.0"/>
      <point x="950.0" y="127.0" type="curve" smooth="yes"/>
      <point x="933.76" y="127.0" type="line" smooth="yes"/>
      <point x="927.5272" y="127.0"/>
      <point x="919.3198189569542" y="131.833897952636"/>
      <point x="916.2974871424559" y="137.28488926092766" type="curve" smooth="yes"/>
      <point x="609.2755626838532" y="691.020860159479" type="line" smooth="yes"/>
      <point x="596.939514461411" y="713.2698042749552"/>
      <point x="599.9879799298922" y="750.7000004938118"/>
      <point x="615.7616594253024" y="770.6595755187484" type="curve" smooth="yes"/>
      <point x="886.9271498808868" y="1113.7848401405395" type="line" smooth="yes"/>
      <point x="891.2057604440167" y="1119.1988748660535"/>
      <point x="901.1194" y="1124.0"/>
      <point x="908.02" y="1124.0" type="curve" smooth="yes"/>
      <point x="926.0" y="1124.0" type="line" smooth="yes"/>
      <point x="958.0" y="1124.0"/>
      <point x="1004.0" y="1130.0"/>
      <point x="1004.0" y="1190.0" type="curve" smooth="yes"/>
      <point x="1004.0" y="1221.0"/>
      <point x="983.0" y="1251.0"/>
      <point x="938.0" y="1251.0" type="curve" smooth="yes"/>
      <point x="752.0" y="1251.0" type="line" smooth="yes"/>
      <point x="688.0" y="1251.0"/>
      <point x="678.0" y="1210.0"/>
      <point x="678.0" y="1186.0" type="curve" smooth="yes"/>
      <point x="678.0" y="1155.0"/>
      <point x="698.0" y="1124.0"/>
      <point x="727.0" y="1124.0" type="curve" smooth="yes"/>
      <point x="738.13" y="1124.0"/>
      <point x="741.8680036543567" y="1116.2659505550444"/>
      <point x="734.9531992645886" y="1107.5445756490308" type="curve" smooth="yes"/>
      <point x="526.0" y="844.0" type="line"/>
      <point x="502.0307562551634" y="817.462622996788" type="line" smooth="yes"/>
      <point x="499.8944554399268" y="815.0974328084903"/>
      <point x="495.4338" y="811.8156"/>
      <point x="492.54" y="810.48" type="curve" smooth="yes"/>
      <point x="490.46" y="809.52" type="line" smooth="yes"/>
      <point x="487.5662" y="808.1844"/>
      <point x="485.0" y="809.8263378778908"/>
      <point x="485.0" y="813.013484846576" type="curve" smooth="yes"/>
      <point x="485.0" y="975.0" type="line" smooth="yes"/>
      <point x="485.0" y="1030.0"/>
      <point x="453.0" y="1044.0"/>
      <point x="422.0" y="1044.0" type="curve" smooth="yes"/>
      <point x="395.0" y="1044.0"/>
      <point x="360.0" y="1032.0"/>
      <point x="360.0" y="973.0" type="curve" smooth="yes"/>
      <point x="360.0" y="843.96" type="line" smooth="yes"/>
      <point x="360.0" y="824.3712"/>
      <point x="342.6288" y="807.0"/>
      <point x="323.04" y="807.0" type="curve" smooth="yes"/>
      <point x="308.96" y="807.0" type="line" smooth="yes"/>
      <point x="289.3712" y="807.0"/>
      <point x="272.0" y="824.3712"/>
      <point x="272.0" y="843.96" type="curve" smooth="yes"/>
      <point x="272.0" y="1106.78" type="line" smooth="yes"/>
      <point x="272.0" y="1115.9066"/>
      <point x="280.09340000000003" y="1124.0"/>
      <point x="289.22" y="1124.0" type="curve" smooth="yes"/>
      <point x="313.0" y="1124.0" type="line" smooth="yes"/>
      <point x="381.0" y="1124.0"/>
      <point x="389.0" y="1163.0"/>
      <point x="389.0" y="1188.0" type="curve" smooth="yes"/>
      <point x="389.0" y="1210.0"/>
      <point x="379.0" y="1251.0"/>
      <point x="315.0" y="1251.0" type="curve" smooth="yes"/>
      <point x="113.0" y="1251.0" type="line" smooth="yes"/>
      <point x="51.0" y="1251.0"/>
      <point x="41.0" y="1212.0"/>
      <point x="41.0" y="1188.0" type="curve" smooth="yes"/>
      <point x="41.0" y="1155.0"/>
      <point x="57.0" y="1124.0"/>
      <point x="117.0" y="1124.0" type="curve" smooth="yes"/>
      <point x="140.78" y="1124.0" type="line" smooth="yes"/>
      <point x="149.9066" y="1124.0"/>
      <point x="158.0" y="1115.9066"/>
      <point x="158.0" y="1106.78" type="curve" smooth="yes"/>
      <point x="158.0" y="144.22" type="line" smooth="yes"/>
      <point x="158.0" y="135.0934"/>
      <point x="149.9066" y="127.0"/>
      <point x="140.78" y="127.0" type="curve" smooth="yes"/>
      <point x="117.0" y="127.0" type="line" smooth="yes"/>
      <point x="92.0" y="127.0"/>
      <point x="41.0" y="123.0"/>
    </contour>
  </outline>
</glyph>
<glyph name="uni04B3" format="2">
  <advance width="1228"/>
  <unicode hex="04B3"/>
  <outline>
    <contour>
      <point x="55.0" y="63.0" type="curve" smooth="yes"/>
      <point x="55.0" y="33.0"/>
      <point x="70.0" y="0.0"/>
      <point x="127.0" y="0.0" type="curve" smooth="yes"/>
      <point x="383.0" y="0.0" type="line" smooth="yes"/>
      <point x="410.0" y="0.0"/>
      <point x="461.0" y="2.0"/>
      <point x="461.0" y="66.0" type="curve" smooth="yes"/>
      <point x="461.0" y="96.0"/>
      <point x="440.0" y="127.0"/>
      <point x="389.0" y="127.0" type="curve" smooth="yes"/>
      <point x="369.86" y="127.0" type="line" smooth="yes"/>
      <point x="362.5142" y="127.0"/>
      <point x="359.72128141876595" y="132.3466687051235"/>
      <point x="363.9176200399276" y="138.37589086196493" type="curve" smooth="yes"/>
      <point x="502.57967085739364" y="337.60297536981847" type="line" smooth="yes"/>
      <point x="517.1124453029751" y="358.48339842381466"/>
      <point x="543.2300078563226" y="358.7265084857424"/>
      <point x="558.1489528857926" y="338.12023082072847" type="curve" smooth="yes"/>
      <point x="703.8572032052301" y="136.86574142924013" type="line" smooth="yes"/>
      <point x="707.6428855064581" y="131.63689847174285"/>
      <point x="705.2754" y="127.0"/>
      <point x="698.82" y="127.0" type="curve" smooth="yes"/>
      <point x="682.0" y="127.0" type="line" smooth="yes"/>
      <point x="623.0" y="127.0"/>
      <point x="608.0" y="94.0"/>
      <point x="608.0" y="63.0" type="curve" smooth="yes"/>
      <point x="608.0" y="37.0"/>
      <point x="618.0" y="0.0"/>
      <point x="682.0" y="0.0" type="curve" smooth="yes"/>
      <point x="861.0" y="0.0" type="line" smooth="yes"/>
      <point x="886.44" y="0.0"/>
      <point x="909.0" y="-22.56"/>
      <point x="909.0" y="-48.0" type="curve" smooth="yes"/>
      <point x="909.0" y="-201.0" type="line" smooth="yes"/>
      <point x="909.0" y="-201.92393493652344"/>
      <point x="908.9894409179688" y="-202.9690704345703"/>
      <point x="908.9778442382812" y="-204.1205291748047" type="curve" smooth="yes"/>
      <point x="908.7632446289062" y="-225.40158081054688"/>
      <point x="908.1824340820312" y="-283.0"/>
      <point x="967.0" y="-283.0" type="curve" smooth="yes"/>
      <point x="991.0" y="-283.0"/>
      <point x="1026.0" y="-272.0"/>
      <point x="1026.0" y="-209.0" type="curve" smooth="yes"/>
      <point x="1026.0" y="51.0" type="line" smooth="yes"/>
      <point x="1026.0" y="84.0"/>
      <point x="1020.0" y="127.0"/>
      <point x="952.0" y="127.0" type="curve" smooth="yes"/>
      <point x="874.0" y="127.0" type="line" smooth="yes"/>
      <point x="868.6256103515625" y="127.0"/>
      <point x="864.5438842773438" y="126.6434097290039"/>
      <point x="860.5836181640625" y="127.1812515258789" type="curve" smooth="yes"/>
      <point x="838.0162963867188" y="130.24612426757812"/>
      <point x="819.3934936523438" y="162.3553009033203"/>
      <point x="606.1117036963714" y="432.0940228495956" type="curve" smooth="yes"/>
      <point x="596.5125007372945" y="444.23419073930995"/>
      <point x="596.883" y="465.4622"/>
      <point x="606.9" y="477.26" type="curve" smooth="yes"/>
      <point x="633.0" y="508.0"/>
      <point x="797.0" y="731.0"/>
      <point x="817.0" y="748.0" type="curve" smooth="yes"/>
      <point x="827.3170166015625" y="756.5975341796875"/>
      <point x="841.3298950195312" y="756.324951171875"/>
      <point x="853.9546508789062" y="756.0794067382812" type="curve" smooth="yes"/>
      <point x="856.0140380859375" y="756.0393676757812"/>
      <point x="858.0364990234375" y="756.0"/>
      <point x="860.0" y="756.0" type="curve" smooth="yes"/>
      <point x="909.0" y="756.0" type="line" smooth="yes"/>
      <point x="936.0" y="756.0"/>
      <point x="985.0" y="758.0"/>
      <point x="985.0" y="819.0" type="curve" smooth="yes"/>
      <point x="985.0" y="850.0"/>
      <point x="969.0" y="881.0"/>
      <point x="911.0" y="881.0" type="curve" smooth="yes"/>
      <point x="647.0" y="881.0" type="line" smooth="yes"/>
      <point x="604.0" y="881.0"/>
      <point x="580.0" y="854.0"/>
      <point x="580.0" y="817.0" type="curve" smooth="yes"/>
      <point x="580.0" y="786.0"/>
      <point x="596.0" y="756.0"/>
      <point x="649.0" y="756.0" type="curve" smooth="yes"/>
      <point x="666.98" y="756.0" type="line" smooth="yes"/>
      <point x="673.8806" y="756.0"/>
      <point x="676.3633650595126" y="751.0784207138738"/>
      <point x="672.2624788500269" y="745.5285547103698" type="curve" smooth="yes"/>
      <point x="558.5254235943707" y="591.6044065977152" type="line" smooth="yes"/>
      <point x="543.4069490893543" y="571.1440711009261"/>
      <point x="516.3090435550606" y="570.9307365053077"/>
      <point x="500.87030543629925" y="591.1505032027823" type="curve" smooth="yes"/>
      <point x="381.6270055132419" y="747.320760521367" type="line" smooth="yes"/>
      <point x="378.1146925912237" y="751.9207574450425"/>
      <point x="380.1324" y="756.0"/>
      <point x="385.92" y="756.0" type="curve" smooth="yes"/>
      <point x="401.0" y="756.0" type="line" smooth="yes"/>
      <point x="463.0" y="756.0"/>
      <point x="473.0" y="795.0"/>
      <point x="473.0" y="817.0" type="curve" smooth="yes"/>
      <point x="473.0" y="850.0"/>
      <point x="457.0" y="881.0"/>
      <point x="399.0" y="881.0" type="curve" smooth="yes"/>
      <point x="139.0" y="881.0" type="line" smooth="yes"/>
      <point x="82.0" y="881.0"/>
      <point x="68.0" y="848.0"/>
      <point x="68.0" y="817.0" type="curve" smooth="yes"/>
      <point x="68.0" y="760.0"/>
      <point x="113.0" y="756.0"/>
      <point x="152.0" y="756.0" type="curve" smooth="yes"/>
      <point x="198.98000000000002" y="756.0" type="line" smooth="yes"/>
      <point x="217.0106" y="756.0"/>
      <point x="242.96822522209547" y="743.498184200622"/>
      <point x="254.2089898342457" y="729.4003919162169" type="curve" smooth="yes"/>
      <point x="443.0754993520343" y="492.5303112293237" type="line" smooth="yes"/>
      <point x="458.9354846954561" y="472.63924627778215"/>
      <point x="459.18717922485" y="437.16297159744414"/>
      <point x="443.61101962734045" y="417.0488757392428" type="curve" smooth="yes"/>
      <point x="240.0865934173832" y="154.2299316570933" type="line" smooth="yes"/>
      <point x="228.9106989061701" y="139.79806787883385"/>
      <point x="202.8132" y="127.0"/>
      <point x="184.56" y="127.0" type="curve" smooth="yes"/>
      <point x="137.0" y="127.0" type="line" smooth="yes"/>
      <point x="104.0" y="127.0"/>
      <point x="55.0" y="125.0"/>
    </contour>
  </outline>
</glyph>
<glyph name="uni04C7" format="2">
  <advance width="1228"/>
  <unicode hex="04C7"/>
  <outline>
    <contour>
      <point x="37.0" y="61.0" type="curve" smooth="yes"/>
      <point x="37.0" y="39.0"/>
      <point x="45.0" y="0.0"/>
      <point x="111.0" y="0.0" type="curve" smooth="yes"/>
      <point x="365.0" y="0.0" type="line" smooth="yes"/>
      <point x="365.2570495605469" y="0.0"/>
      <point x="365.54913330078125" y="-0.0013215532526373863"/>
      <point x="365.874267578125" y="-0.002792650368064642" type="curve" smooth="yes"/>
      <point x="378.197265625" y="-0.05855026841163635"/>
      <point x="438.0" y="-0.32913756370544434"/>
      <point x="438.0" y="63.0" type="curve" smooth="yes"/>
      <point x="438.0" y="115.0"/>
      <point x="401.0" y="127.0"/>
      <point x="360.0" y="127.0" type="curve" smooth="yes"/>
      <point x="330.42" y="127.0" type="line" smooth="yes"/>
      <point x="319.0674" y="127.0"/>
      <point x="309.0" y="137.0674"/>
      <point x="309.0" y="148.42" type="curve" smooth="yes"/>
      <point x="309.0" y="540.0" type="line" smooth="yes"/>
      <point x="309.0" y="565.44"/>
      <point x="331.56" y="588.0"/>
      <point x="357.0" y="588.0" type="curve" smooth="yes"/>
      <point x="714.0" y="588.0" type="line" smooth="yes"/>
      <point x="739.44" y="588.0"/>
      <point x="762.0" y="565.44"/>
      <point x="762.0" y="540.0" type="curve" smooth="yes"/>
      <point x="762.0" y="-72.0" type="line" smooth="yes"/>
      <point x="762.0" y="-274.0"/>
      <point x="678.0" y="-340.0"/>
      <point x="608.0" y="-340.0" type="curve" smooth="yes"/>
      <point x="586.0" y="-340.0"/>
      <point x="561.0" y="-336.0"/>
      <point x="532.7775898150207" y="-329.1582035915202" type="curve" smooth="yes"/>
      <point x="530.2454672130598" y="-328.5443556880145"/>
      <point x="528.7896" y="-325.8286"/>
      <point x="529.68" y="-323.38" type="curve" smooth="yes"/>
      <point x="532.0" y="-317.0"/>
      <point x="535.0" y="-309.0"/>
      <point x="535.0" y="-295.0" type="curve" smooth="yes"/>
      <point x="535.0" y="-240.0"/>
      <point x="492.0" y="-205.0"/>
      <point x="444.0" y="-205.0" type="curve" smooth="yes"/>
      <point x="389.0" y="-205.0"/>
      <point x="352.0" y="-246.0"/>
      <point x="352.0" y="-299.0" type="curve" smooth="yes"/>
      <point x="352.0" y="-367.0"/>
      <point x="403.0" y="-465.0"/>
      <point x="614.0" y="-465.0" type="curve" smooth="yes"/>
      <point x="788.0" y="-465.0"/>
      <point x="905.0" y="-299.0"/>
      <point x="905.0" y="-76.0" type="curve" smooth="yes"/>
      <point x="905.0" y="1101.74" type="line" smooth="yes"/>
      <point x="905.0" y="1113.5378"/>
      <point x="915.4621999999999" y="1124.0"/>
      <point x="927.26" y="1124.0" type="curve" smooth="yes"/>
      <point x="958.0" y="1124.0" type="line" smooth="yes"/>
      <point x="991.0" y="1124.0"/>
      <point x="1034.0" y="1130.0"/>
      <point x="1034.0" y="1188.0" type="curve" smooth="yes"/>
      <point x="1034.0" y="1212.0"/>
      <point x="1026.0" y="1251.0"/>
      <point x="958.0" y="1251.0" type="curve" smooth="yes"/>
      <point x="709.0" y="1251.0" type="line" smooth="yes"/>
      <point x="643.0" y="1251.0"/>
      <point x="633.0" y="1210.0"/>
      <point x="633.0" y="1188.0" type="curve" smooth="yes"/>
      <point x="633.0" y="1137.0"/>
      <point x="670.0" y="1124.0"/>
      <point x="711.0" y="1124.0" type="curve" smooth="yes"/>
      <point x="740.58" y="1124.0" type="line" smooth="yes"/>
      <point x="751.9326" y="1124.0"/>
      <point x="762.0" y="1113.9325999999999"/>
      <point x="762.0" y="1102.58" type="curve" smooth="yes"/>
      <point x="762.0" y="761.0" type="line" smooth="yes"/>
      <point x="762.0" y="735.56"/>
      <point x="739.44" y="713.0"/>
      <point x="714.0" y="713.0" type="curve" smooth="yes"/>
      <point x="357.0" y="713.0" type="line" smooth="yes"/>
      <point x="331.56" y="713.0"/>
      <point x="309.0" y="735.56"/>
      <point x="309.0" y="761.0" type="curve" smooth="yes"/>
      <point x="309.0" y="1100.48" type="line" smooth="yes"/>
      <point x="309.0" y="1112.9456"/>
      <point x="320.0544" y="1124.0"/>
      <point x="332.52" y="1124.0" type="curve" smooth="yes"/>
      <point x="365.0" y="1124.0" type="line" smooth="yes"/>
      <point x="385.0" y="1124.0"/>
      <point x="438.0" y="1126.0"/>
      <point x="438.0" y="1188.0" type="curve" smooth="yes"/>
      <point x="438.0" y="1212.0"/>
      <point x="428.0" y="1251.0"/>
      <point x="362.0" y="1251.0" type="curve" smooth="yes"/>
      <point x="111.0" y="1251.0" type="line" smooth="yes"/>
      <point x="80.0" y="1251.0"/>
      <point x="37.0" y="1243.0"/>
      <point x="37.0" y="1186.0" type="curve" smooth="yes"/>
      <point x="37.0" y="1137.0"/>
      <point x="74.0" y="1124.0"/>
      <point x="115.0" y="1124.0" type="curve" smooth="yes"/>
      <point x="144.58" y="1124.0" type="line" smooth="yes"/>
      <point x="155.9326" y="1124.0"/>
      <point x="166.0" y="1113.9325999999999"/>
      <point x="166.0" y="1102.58" type="curve" smooth="yes"/>
      <point x="166.0" y="150.94" type="line" smooth="yes"/>
      <point x="166.0" y="138.2518"/>
      <point x="154.7482" y="127.0"/>
      <point x="142.06" y="127.0" type="curve" smooth="yes"/>
      <point x="109.0" y="127.0" type="line" smooth="yes"/>
      <point x="90.0" y="127.0"/>
      <point x="37.0" y="125.0"/>
    </contour>
  </outline>
</glyph>
<glyph name="uni04C9" format="2">
  <advance width="1228"/>
  <unicode hex="04C9"/>
  <outline>
    <contour>
      <point x="37.0" y="61.0" type="curve" smooth="yes"/>
      <point x="37.0" y="39.0"/>
      <point x="45.0" y="0.0"/>
      <point x="111.0" y="0.0" type="curve" smooth="yes"/>
      <point x="362.0" y="0.0" type="line" smooth="yes"/>
      <point x="397.0" y="0.0"/>
      <point x="438.0" y="10.0"/>
      <point x="438.0" y="63.0" type="curve" smooth="yes"/>
      <point x="438.0" y="115.0"/>
      <point x="401.0" y="127.0"/>
      <point x="360.0" y="127.0" type="curve" smooth="yes"/>
      <point x="330.42" y="127.0" type="line" smooth="yes"/>
      <point x="319.0674" y="127.0"/>
      <point x="309.0" y="137.0674"/>
      <point x="309.0" y="148.42" type="curve" smooth="yes"/>
      <point x="309.0" y="540.0" type="line" smooth="yes"/>
      <point x="309.0" y="565.44"/>
      <point x="331.56" y="588.0"/>
      <point x="357.0" y="588.0" type="curve" smooth="yes"/>
      <point x="714.0" y="588.0" type="line" smooth="yes"/>
      <point x="739.44" y="588.0"/>
      <point x="762.0" y="565.44"/>
      <point x="762.0" y="540.0" type="curve" smooth="yes"/>
      <point x="762.0" y="150.94" type="line" smooth="yes"/>
      <point x="762.0" y="138.2518"/>
      <point x="750.7482" y="127.0"/>
      <point x="738.06" y="127.0" type="curve" smooth="yes"/>
      <point x="705.0" y="127.0" type="line" smooth="yes"/>
      <point x="686.0" y="127.0"/>
      <point x="633.0" y="123.0"/>
      <point x="633.0" y="61.0" type="curve" smooth="yes"/>
      <point x="633.0" y="39.0"/>
      <point x="643.0" y="0.0"/>
      <point x="705.0" y="0.0" type="curve" smooth="yes"/>
      <point x="835.0" y="0.0" type="line" smooth="yes"/>
      <point x="860.44" y="0.0"/>
      <point x="871.9096310570571" y="-19.64579641321293"/>
      <point x="859.4034703341642" y="-41.799566836623264" type="curve" smooth="yes"/>
      <point x="743.0" y="-248.0"/>
      <point x="733.0" y="-258.0"/>
      <point x="733.0" y="-283.0" type="curve" smooth="yes"/>
      <point x="733.0" y="-313.0"/>
      <point x="756.0" y="-340.0"/>
      <point x="788.0" y="-340.0" type="curve" smooth="yes"/>
      <point x="827.0" y="-340.0"/>
      <point x="842.0" y="-309.0"/>
      <point x="852.0" y="-291.0" type="curve" smooth="yes"/>
      <point x="1038.0" y="43.0"/>
      <point x="1047.0" y="47.0"/>
      <point x="1047.0" y="63.0" type="curve" smooth="yes"/>
      <point x="1047.0" y="125.0"/>
      <point x="999.0" y="127.0"/>
      <point x="965.0" y="127.0" type="curve" smooth="yes"/>
      <point x="930.2" y="127.0" type="line" smooth="yes"/>
      <point x="916.844" y="127.0"/>
      <point x="905.0" y="138.844"/>
      <point x="905.0" y="152.2" type="curve" smooth="yes"/>
      <point x="905.0" y="1100.48" type="line" smooth="yes"/>
      <point x="905.0" y="1112.9456"/>
      <point x="916.0544" y="1124.0"/>
      <point x="928.52" y="1124.0" type="curve" smooth="yes"/>
      <point x="961.0" y="1124.0" type="line" smooth="yes"/>
      <point x="981.0" y="1124.0"/>
      <point x="1034.0" y="1126.0"/>
      <point x="1034.0" y="1188.0" type="curve" smooth="yes"/>
      <point x="1034.0" y="1210.0"/>
      <point x="1026.0" y="1251.0"/>
      <point x="961.0" y="1251.0" type="curve" smooth="yes"/>
      <point x="709.0" y="1251.0" type="line" smooth="yes"/>
      <point x="643.0" y="1251.0"/>
      <point x="633.0" y="1210.0"/>
      <point x="633.0" y="1188.0" type="curve" smooth="yes"/>
      <point x="633.0" y="1137.0"/>
      <point x="670.0" y="1124.0"/>
      <point x="711.0" y="1124.0" type="curve" smooth="yes"/>
      <point x="740.58" y="1124.0" type="line" smooth="yes"/>
      <point x="751.9326" y="1124.0"/>
      <point x="762.0" y="1113.9325999999999"/>
      <point x="762.0" y="1102.58" type="curve" smooth="yes"/>
      <point x="762.0" y="761.0" type="line" smooth="yes"/>
      <point x="762.0" y="735.56"/>
      <point x="739.44" y="713.0"/>
      <point x="714.0" y="713.0" type="curve" smooth="yes"/>
      <point x="357.0" y="713.0" type="line" smooth="yes"/>
      <point x="331.56" y="713.0"/>
      <point x="309.0" y="735.56"/>
      <point x="309.0" y="761.0" type="curve" smooth="yes"/>
      <point x="309.0" y="1099.64" type="line" smooth="yes"/>
      <point x="309.0" y="1112.5508"/>
      <point x="320.4492" y="1124.0"/>
      <point x="333.36" y="1124.0" type="curve" smooth="yes"/>
      <point x="367.0" y="1124.0" type="line" smooth="yes"/>
      <point x="385.0" y="1124.0"/>
      <point x="438.0" y="1128.0"/>
      <point x="438.0" y="1188.0" type="curve" smooth="yes"/>
      <point x="438.0" y="1212.0"/>
      <point x="428.0" y="1251.0"/>
      <point x="365.0" y="1251.0" type="curve" smooth="yes"/>
      <point x="113.0" y="1251.0" type="line" smooth="yes"/>
      <point x="80.0" y="1251.0"/>
      <point x="37.0" y="1243.0"/>
      <point x="37.0" y="1186.0" type="curve" smooth="yes"/>
      <point x="37.0" y="1137.0"/>
      <point x="74.0" y="1124.0"/>
      <point x="115.0" y="1124.0" type="curve" smooth="yes"/>
      <point x="144.58" y="1124.0" type="line" smooth="yes"/>
      <point x="155.9326" y="1124.0"/>
      <point x="166.0" y="1113.9325999999999"/>
      <point x="166.0" y="1102.58" type="curve" smooth="yes"/>
      <point x="166.0" y="150.94" type="line" smooth="yes"/>
      <point x="166.0" y="138.2518"/>
      <point x="154.7482" y="127.0"/>
      <point x="142.06" y="127.0" type="curve" smooth="yes"/>
      <point x="109.0" y="127.0" type="line" smooth="yes"/>
      <point x="90.0" y="127.0"/>
      <point x="37.0" y="125.0"/>
    </contour>
  </outline>
</glyph>
<glyph name="uni04D4" format="2">
  <advance width="1228"/>
  <unicode hex="04D4"/>
  <outline>
    <contour>
      <point x="45.0" y="63.0" type="curve" smooth="yes"/>
      <point x="45.0" y="37.0"/>
      <point x="57.0" y="2.0"/>
      <point x="117.0" y="0.0" type="curve" smooth="yes"/>
      <point x="287.0" y="0.0" type="line" smooth="yes"/>
      <point x="344.0" y="0.0"/>
      <point x="356.0" y="35.0"/>
      <point x="356.0" y="63.0" type="curve" smooth="yes"/>
      <point x="356.0" y="86.0"/>
      <point x="348.0" y="127.0"/>
      <point x="283.0" y="127.0" type="curve" smooth="yes"/>
      <point x="271.98" y="127.0" type="line" smooth="yes"/>
      <point x="267.7506" y="127.0"/>
      <point x="264.72699162825063" y="130.67946783277873"/>
      <point x="265.54679069840563" y="134.828654963359" type="curve" smooth="yes"/>
      <point x="303.695995799064" y="327.9103460850585" type="line" smooth="yes"/>
      <point x="308.6271180255601" y="352.8678626599775"/>
      <point x="335.56" y="375.0"/>
      <point x="361.0" y="375.0" type="curve" smooth="yes"/>
      <point x="491.0" y="375.0" type="line" smooth="yes"/>
      <point x="516.44" y="375.0"/>
      <point x="539.0" y="352.44"/>
      <point x="539.0" y="327.0" type="curve" smooth="yes"/>
      <point x="539.0" y="127.0" type="line"/>
      <point x="532.0" y="127.0" type="line" smooth="yes"/>
      <point x="510.0" y="127.0"/>
      <point x="457.0" y="123.0"/>
      <point x="457.0" y="61.0" type="curve" smooth="yes"/>
      <point x="457.0" y="31.0"/>
      <point x="479.0" y="0.0"/>
      <point x="530.0" y="0.0" type="curve" smooth="yes"/>
      <point x="952.0" y="0.0" type="line" smooth="yes"/>
      <point x="1010.0" y="0.0"/>
      <point x="1024.0" y="33.0"/>
      <point x="1024.0" y="74.0" type="curve" smooth="yes"/>
      <point x="1024.0" y="274.0" type="line" smooth="yes"/>
      <point x="1024.0" y="301.0"/>
      <point x="1020.0" y="350.0"/>
      <point x="965.0" y="350.0" type="curve" smooth="yes"/>
      <point x="936.0" y="350.0"/>
      <point x="907.0" y="328.0"/>
      <point x="907.0" y="279.0" type="curve" smooth="yes"/>
      <point x="907.0" y="175.0" type="line" smooth="yes"/>
      <point x="907.0" y="149.56"/>
      <point x="884.44" y="127.0"/>
      <point x="859.0" y="127.0" type="curve" smooth="yes"/>
      <point x="703.0" y="127.0" type="line" smooth="yes"/>
      <point x="677.56" y="127.0"/>
      <point x="655.0" y="149.56"/>
      <point x="655.0" y="175.0" type="curve" smooth="yes"/>
      <point x="655.0" y="538.0" type="line" smooth="yes"/>
      <point x="655.0" y="563.44"/>
      <point x="677.56" y="586.0"/>
      <point x="703.0" y="586.0" type="curve" smooth="yes"/>
      <point x="899.0" y="586.0" type="line" smooth="yes"/>
      <point x="924.0" y="586.0"/>
      <point x="973.0" y="590.0"/>
      <point x="973.0" y="649.0" type="curve" smooth="yes"/>
      <point x="973.0" y="680.0"/>
      <point x="954.0" y="713.0"/>
      <point x="901.0" y="713.0" type="curve" smooth="yes"/>
      <point x="703.0" y="713.0" type="line" smooth="yes"/>
      <point x="677.56" y="713.0"/>
      <point x="655.0" y="735.56"/>
      <point x="655.0" y="761.0" type="curve" smooth="yes"/>
      <point x="655.0" y="1076.0" type="line" smooth="yes"/>
      <point x="655.0" y="1101.44"/>
      <point x="677.56" y="1124.0"/>
      <point x="703.0" y="1124.0" type="curve" smooth="yes"/>
      <point x="843.0" y="1124.0" type="line" smooth="yes"/>
      <point x="868.44" y="1124.0"/>
      <point x="891.0" y="1101.44"/>
      <point x="891.0" y="1076.0" type="curve" smooth="yes"/>
      <point x="891.0" y="999.0" type="line" smooth="yes"/>
      <point x="891.0" y="944.0"/>
      <point x="926.0" y="932.0"/>
      <point x="950.0" y="932.0" type="curve" smooth="yes"/>
      <point x="977.0" y="932.0"/>
      <point x="1006.0" y="952.0"/>
      <point x="1006.0" y="999.0" type="curve" smooth="yes"/>
      <point x="1006.0" y="1176.0" type="line" smooth="yes"/>
      <point x="1006.0" y="1176.6187744140625"/>
      <point x="1006.0078125" y="1177.329345703125"/>
      <point x="1006.0165405273438" y="1178.122314453125" type="curve" smooth="yes"/>
      <point x="1006.2051391601562" y="1195.272705078125"/>
      <point x="1006.81787109375" y="1251.0"/>
      <point x="938.0" y="1251.0" type="curve" smooth="yes"/>
      <point x="336.0" y="1251.0" type="line" smooth="yes"/>
      <point x="274.0" y="1251.0"/>
      <point x="264.0" y="1210.0"/>
      <point x="264.0" y="1188.0" type="curve" smooth="yes"/>
      <point x="264.0" y="1135.0"/>
      <point x="301.0" y="1124.0"/>
      <point x="327.1" y="1124.0" type="curve" smooth="yes"/>
      <point x="337.117" y="1124.0"/>
      <point x="344.2444655175971" y="1115.292199607186"/>
      <point x="342.2648202502067" y="1105.472765121672" type="curve" smooth="yes"/>
      <point x="147.15810385543614" y="137.7046245963673" type="line" smooth="yes"/>
      <point x="146.014308812055" y="132.03117356029264"/>
      <point x="139.8676" y="127.0"/>
      <point x="134.08" y="127.0" type="curve" smooth="yes"/>
      <point x="119.0" y="127.0" type="line" smooth="yes"/>
      <point x="57.0" y="127.0"/>
      <point x="45.0" y="88.0"/>
    </contour>
    <contour>
      <point x="386.0" y="500.0" type="line" smooth="yes"/>
      <point x="360.56" y="500.0"/>
      <point x="342.49929749168075" y="522.1067845260535"/>
      <point x="347.5729733865548" y="547.0357117575605" type="curve" smooth="yes"/>
      <point x="458.8014997322058" y="1093.5443766369797" type="line" smooth="yes"/>
      <point x="462.08670487413673" y="1109.6858570193804"/>
      <point x="479.6076" y="1124.0"/>
      <point x="496.08" y="1124.0" type="curve" smooth="yes"/>
      <point x="507.92" y="1124.0" type="line" smooth="yes"/>
      <point x="524.3924" y="1124.0"/>
      <point x="539.0" y="1109.3924"/>
      <point x="539.0" y="1092.92" type="curve" smooth="yes"/>
      <point x="539.0" y="548.0" type="line" smooth="yes"/>
      <point x="539.0" y="522.56"/>
      <point x="516.44" y="500.0"/>
      <point x="491.0" y="500.0" type="curve" smooth="yes"/>
    </contour>
  </outline>
</glyph>
<glyph name="uni04F1" format="2">
  <advance width="1228"/>
  <unicode hex="04F1"/>
  <outline>
    <contour>
      <point x="1115.0" y="924.0" type="curve" smooth="yes"/>
      <point x="801.0" y="924.0" type="line" smooth="yes"/>
      <point x="778.3330078125" y="924.0"/>
      <point x="762.1669921875" y="919.0"/>
      <point x="752.5" y="909.0" type="curve" smooth="yes"/>
      <point x="742.8330078125" y="899.0"/>
      <point x="738.0" y="881.3330078125"/>
      <point x="738.0" y="856.0" type="curve" smooth="yes"/>
      <point x="738.0" y="830.6669921875"/>
      <point x="742.8330078125" y="813.0"/>
      <point x="752.5" y="803.0" type="curve" smooth="yes"/>
      <point x="762.1669921875" y="793.0"/>
      <point x="778.3330078125" y="788.0"/>
      <point x="801.0" y="788.0" type="curve" smooth="yes"/>
      <point x="852.62" y="788.0" type="line" smooth="yes"/>
      <point x="872.4314" y="788.0"/>
      <point x="882.4149425831964" y="772.1531514191687"/>
      <point x="873.8615799642478" y="754.2833008918484" type="curve" smooth="yes"/>
      <point x="641.7234928227958" y="269.2959218082203" type="line" smooth="yes"/>
      <point x="630.7400416267141" y="246.34908324986355"/>
      <point x="610.8821684245667" y="246.16390548011879"/>
      <point x="599.4726987756738" y="268.90192655344424" type="curve" smooth="yes"/>
      <point x="360.52730122432615" y="745.0980734465558" type="line" smooth="yes"/>
      <point x="349.1178315754333" y="767.8360945198812"/>
      <point x="361.56" y="788.0"/>
      <point x="387.0" y="788.0" type="curve" smooth="yes"/>
      <point x="467.0" y="788.0" type="line" smooth="yes"/>
      <point x="489.6669921875" y="788.0"/>
      <point x="505.8330078125" y="793.0"/>
      <point x="515.5" y="803.0" type="curve" smooth="yes"/>
      <point x="525.1669921875" y="813.0"/>
      <point x="530.0" y="830.6669921875"/>
      <point x="530.0" y="856.0" type="curve" smooth="yes"/>
      <point x="530.0" y="881.3330078125"/>
      <point x="525.1669921875" y="899.0"/>
      <point x="515.5" y="909.0" type="curve" smooth="yes"/>
      <point x="505.8330078125" y="919.0"/>
      <point x="489.6669921875" y="924.0"/>
      <point x="467.0" y="924.0" type="curve" smooth="yes"/>
      <point x="113.0" y="924.0" type="line" smooth="yes"/>
      <point x="90.33300018310547" y="924.0"/>
      <point x="74.16699981689453" y="919.0"/>
      <point x="64.5" y="909.0" type="curve" smooth="yes"/>
      <point x="54.83300018310547" y="899.0"/>
      <point x="50.0" y="881.3330078125"/>
      <point x="50.0" y="856.0" type="curve" smooth="yes"/>
      <point x="50.0" y="830.6669921875"/>
      <point x="54.83300018310547" y="813.0"/>
      <point x="64.5" y="803.0" type="curve" smooth="yes"/>
      <point x="74.16699981689453" y="793.0"/>
      <point x="90.33300018310547" y="788.0"/>
      <point x="113.0" y="788.0" type="curve" smooth="yes"/>
      <point x="149.54" y="788.0" type="line" smooth="yes"/>
      <point x="163.5638" y="788.0"/>
      <point x="181.64788561090785" y="776.9202681184922"/>
      <point x="188.01677789554864" y="764.4261023797707" type="curve" smooth="yes"/>
      <point x="527.6691261279672" y="98.11357224076394" type="line" smooth="yes"/>
      <point x="535.2644892801445" y="83.21337895315905"/>
      <point x="535.4200642578126" y="56.70846383423805"/>
      <point x="528.00013671875" y="41.720135817527776" type="curve" smooth="yes"/>
      <point x="508.6669921875" y="2.666990041732788"/>
      <point x="479.1669921875" y="-52.16699981689453"/>
      <point x="453.5" y="-94.5" type="curve" smooth="yes"/>
      <point x="427.8330078125" y="-136.83299255371094"/>
      <point x="401.6669921875" y="-170.0"/>
      <point x="375.0" y="-194.0" type="curve" smooth="yes"/>
      <point x="348.3330078125" y="-218.0"/>
      <point x="318.8330078125" y="-234.83299255371094"/>
      <point x="286.5" y="-244.5" type="curve" smooth="yes"/>
      <point x="254.16700744628906" y="-254.16700744628906"/>
      <point x="215.0" y="-260.3330078125"/>
      <point x="169.0" y="-263.0" type="curve" smooth="yes"/>
      <point x="151.0" y="-264.3330078125"/>
      <point x="137.16700744628906" y="-271.1669921875"/>
      <point x="127.5" y="-283.5" type="curve" smooth="yes"/>
      <point x="117.83300018310547" y="-295.8330078125"/>
      <point x="114.33300018310547" y="-317.0"/>
      <point x="117.0" y="-347.0" type="curve" smooth="yes"/>
      <point x="119.66699981689453" y="-373.6669921875"/>
      <point x="127.5" y="-391.6669921875"/>
      <point x="140.5" y="-401.0" type="curve" smooth="yes"/>
      <point x="153.5" y="-410.3330078125"/>
      <point x="169.66700744628906" y="-414.6669921875"/>
      <point x="189.0" y="-414.0" type="curve" smooth="yes"/>
      <point x="243.66700744628906" y="-412.0"/>
      <point x="292.1669921875" y="-404.1669921875"/>
      <point x="334.5" y="-390.5" type="curve" smooth="yes"/>
      <point x="376.8330078125" y="-376.8330078125"/>
      <point x="415.5" y="-355.6669921875"/>
      <point x="450.5" y="-327.0" type="curve" smooth="yes"/>
      <point x="485.5" y="-298.3330078125"/>
      <point x="518.5" y="-261.3330078125"/>
      <point x="549.5" y="-216.0" type="curve" smooth="yes"/>
      <point x="580.5" y="-170.66700744628906"/>
      <point x="612.0" y="-115.33300018310547"/>
      <point x="644.0" y="-50.0" type="curve" smooth="yes"/>
      <point x="1041.5784971787793" y="764.5984856621446" type="line" smooth="yes"/>
      <point x="1047.6318936740263" y="777.001288261208"/>
      <point x="1065.2388" y="788.0"/>
      <point x="1079.04" y="788.0" type="curve" smooth="yes"/>
      <point x="1115.0" y="788.0" type="line" smooth="yes"/>
      <point x="1137.6700439453125" y="788.0"/>
      <point x="1153.8299560546875" y="793.0"/>
      <point x="1163.5" y="803.0" type="curve" smooth="yes"/>
      <point x="1173.1700439453125" y="813.0"/>
      <point x="1178.0" y="830.6669921875"/>
      <point x="1178.0" y="856.0" type="curve" smooth="yes"/>
      <point x="1178.0" y="881.3330078125"/>
      <point x="1173.1700439453125" y="899.0"/>
      <point x="1163.5" y="909.0" type="curve" smooth="yes"/>
      <point x="1153.8299560546875" y="919.0"/>
      <point x="1137.6700439453125" y="924.0"/>
    </contour>
    <contour>
      <point x="302.5" y="1149.0" type="curve" smooth="yes"/>
      <point x="302.5" y="1087.0"/>
      <point x="351.5" y="1047.0"/>
      <point x="405.5" y="1047.0" type="curve" smooth="yes"/>
      <point x="458.5" y="1047.0"/>
      <point x="507.5" y="1090.0"/>
      <point x="507.5" y="1149.0" type="curve" smooth="yes"/>
      <point x="507.5" y="1208.0"/>
      <point x="458.5" y="1251.0"/>
      <point x="405.5" y="1251.0" type="curve" smooth="yes"/>
      <point x="351.5" y="1251.0"/>
      <point x="302.5" y="1208.0"/>
    </contour>
    <contour>
      <point x="720.5" y="1149.0" type="curve" smooth="yes"/>
      <point x="720.5" y="1087.0"/>
      <point x="769.5" y="1047.0"/>
      <point x="822.5" y="1047.0" type="curve" smooth="yes"/>
      <point x="876.5" y="1047.0"/>
      <point x="925.5" y="1090.0"/>
      <point x="925.5" y="1149.0" type="curve" smooth="yes"/>
      <point x="925.5" y="1208.0"/>
      <point x="876.5" y="1251.0"/>
      <point x="822.5" y="1251.0" type="curve" smooth="yes"/>
      <point x="769.5" y="1251.0"/>
      <point x="720.5" y="1208.0"/>
    </contour>
  </outline>
</glyph>
<glyph name="uni0600" format="2">
  <advance width="1228"/>
  <unicode hex="0600"/>
  <outline>
    <contour>
      <point x="1049.0" y="723.0" type="curve" smooth="yes"/>
      <point x="1049.0" y="801.0"/>
      <point x="975.0" y="838.0"/>
      <point x="883.0" y="838.0" type="curve" smooth="yes"/>
      <point x="729.0" y="838.0"/>
      <point x="535.0" y="733.0"/>
      <point x="535.0" y="532.0" type="curve" smooth="yes"/>
      <point x="535.0" y="483.0"/>
      <point x="543.0" y="442.0"/>
      <point x="549.96" y="422.28" type="curve" smooth="yes"/>
      <point x="552.6312" y="414.7116"/>
      <point x="547.8826417822341" y="408.0"/>
      <point x="539.8566846430513" y="408.0" type="curve" smooth="yes"/>
      <point x="49.0" y="408.0" type="line" smooth="yes"/>
      <point x="29.0" y="408.0"/>
      <point x="29.0" y="342.0"/>
      <point x="29.0" y="319.0" type="curve" smooth="yes"/>
      <point x="29.0" y="295.0"/>
      <point x="29.0" y="225.0"/>
      <point x="49.0" y="225.0" type="curve" smooth="yes"/>
      <point x="1028.0" y="225.0" type="line" smooth="yes"/>
      <point x="1049.0" y="225.0"/>
      <point x="1049.0" y="289.0"/>
      <point x="1049.0" y="311.0" type="curve" smooth="yes"/>
      <point x="1049.0" y="336.0"/>
      <point x="1049.0" y="408.0"/>
      <point x="1028.0" y="408.0" type="curve" smooth="yes"/>
      <point x="725.9931397922809" y="408.0" type="line" smooth="yes"/>
      <point x="716.986775702372" y="408.0"/>
      <point x="702.8806" y="413.1324"/>
      <point x="695.98" y="418.92" type="curve" smooth="yes"/>
      <point x="678.0" y="434.0"/>
      <point x="659.0" y="473.0"/>
      <point x="659.0" y="530.0" type="curve" smooth="yes"/>
      <point x="659.0" y="643.0"/>
      <point x="741.0" y="698.0"/>
      <point x="778.0" y="698.0" type="curve" smooth="yes"/>
      <point x="911.0" y="698.0"/>
      <point x="897.0" y="635.0"/>
      <point x="963.0" y="635.0" type="curve" smooth="yes"/>
      <point x="1008.0" y="635.0"/>
      <point x="1049.0" y="668.0"/>
    </contour>
  </outline>
</glyph>
<glyph name="uni0612" format="2">
  <unicode hex="0612"/>
  <outline>
    <contour>
      <point x="178.0" y="1593.0" type="line" smooth="yes"/>
      <point x="76.0" y="1593.0"/>
      <point x="61.0" y="1479.0"/>
      <point x="61.0" y="1427.0" type="curve" smooth="yes"/>
      <point x="61.0" y="1389.0"/>
      <point x="76.0" y="1362.0"/>
      <point x="115.0" y="1362.0" type="curve" smooth="yes"/>
      <point x="154.0" y="1362.0"/>
      <point x="168.0" y="1389.0"/>
      <point x="168.0" y="1427.0" type="curve" smooth="yes"/>
      <point x="168.0" y="1442.0"/>
      <point x="170.0" y="1454.0"/>
      <point x="174.64" y="1463.28" type="curve" smooth="yes"/>
      <point x="176.42079999999999" y="1466.8416"/>
      <point x="181.53119855006767" y="1470.0"/>
      <point x="185.5131884043993" y="1470.0" type="curve" smooth="yes"/>
      <point x="298.0" y="1470.0" type="line" smooth="yes"/>
      <point x="323.44" y="1470.0"/>
      <point x="328.46757489495417" y="1455.8025470616749"/>
      <point x="308.69696786160455" y="1439.7926533227123" type="curve" smooth="yes"/>
      <point x="162.0" y="1321.0"/>
      <point x="76.0" y="1194.0"/>
      <point x="76.0" y="1061.0" type="curve" smooth="yes"/>
      <point x="76.0" y="1034.0"/>
      <point x="76.0" y="991.0"/>
      <point x="131.0" y="991.0" type="curve" smooth="yes"/>
      <point x="156.0" y="991.0"/>
      <point x="178.0" y="1010.0"/>
      <point x="180.0" y="1061.0" type="curve" smooth="yes"/>
      <point x="186.0" y="1198.0"/>
      <point x="342.0" y="1331.0"/>
      <point x="453.0" y="1415.0" type="curve" smooth="yes"/>
      <point x="494.18" y="1446.9" type="line" smooth="yes"/>
      <point x="509.9846" y="1459.143"/>
      <point x="541.7286741230132" y="1470.0"/>
      <point x="561.7205832404537" y="1470.0" type="curve" smooth="yes"/>
      <point x="655.0" y="1470.0" type="line" smooth="yes"/>
      <point x="702.0" y="1470.0"/>
      <point x="717.0" y="1481.0"/>
      <point x="717.0" y="1532.0" type="curve" smooth="yes"/>
      <point x="717.0" y="1583.0"/>
      <point x="702.0" y="1593.0"/>
      <point x="655.0" y="1593.0" type="curve" smooth="yes"/>
    </contour>
    <contour>
      <point x="905.0" y="1343.0" type="curve" smooth="yes"/>
      <point x="905.0" y="1190.0"/>
      <point x="819.0" y="1053.0"/>
      <point x="606.0" y="1053.0" type="curve" smooth="yes"/>
      <point x="475.0" y="1053.0"/>
      <point x="518.0" y="1122.0"/>
      <point x="445.0" y="1122.0" type="curve" smooth="yes"/>
      <point x="414.0" y="1122.0"/>
      <point x="383.0" y="1096.0"/>
      <point x="383.0" y="1053.0" type="curve" smooth="yes"/>
      <point x="383.0" y="995.0"/>
      <point x="473.0" y="938.0"/>
      <point x="606.0" y="938.0" type="curve" smooth="yes"/>
      <point x="822.0" y="938.0"/>
      <point x="1026.0" y="1092.0"/>
      <point x="1026.0" y="1343.0" type="curve" smooth="yes"/>
      <point x="1026.0" y="1475.0"/>
      <point x="985.0" y="1595.0"/>
      <point x="875.0" y="1595.0" type="curve" smooth="yes"/>
      <point x="834.0" y="1595.0"/>
      <point x="811.0" y="1563.0"/>
      <point x="811.0" y="1526.0" type="curve" smooth="yes"/>
      <point x="811.0" y="1485.0"/>
      <point x="828.0" y="1472.0"/>
      <point x="848.0" y="1462.0" type="curve"/>
      <point x="875.0" y="1446.0"/>
      <point x="905.0" y="1425.0"/>
    </contour>
  </outline>
</glyph>
<glyph name="uni0615" format="2">
  <unicode hex="0615"/>
  <outline>
    <contour>
      <point x="203.0" y="1137.0" type="curve" smooth="yes"/>
      <point x="203.0" y="1059.0"/>
      <point x="319.0" y="1012.0"/>
      <point x="403.0" y="1012.0" type="curve" smooth="yes"/>
      <point x="504.0" y="1012.0" type="line" smooth="yes"/>
      <point x="748.0" y="1012.0"/>
      <point x="872.0" y="1137.0"/>
      <point x="872.0" y="1276.0" type="curve" smooth="yes"/>
      <point x="872.0" y="1337.0"/>
      <point x="838.0" y="1438.0"/>
      <point x="735.0" y="1438.0" type="curve" smooth="yes"/>
      <point x="641.0" y="1438.0"/>
      <point x="573.0" y="1376.0"/>
      <point x="528.5387196517106" y="1301.2534997043251" type="curve" smooth="yes"/>
      <point x="515.533198236304" y="1279.3891448610327"/>
      <point x="504.0" y="1282.56"/>
      <point x="504.0" y="1308.0" type="curve" smooth="yes"/>
      <point x="504.0" y="1620.0" type="line" smooth="yes"/>
      <point x="504.0" y="1665.0"/>
      <point x="494.0" y="1679.0"/>
      <point x="455.0" y="1679.0" type="curve" smooth="yes"/>
      <point x="414.0" y="1679.0"/>
      <point x="403.0" y="1665.0"/>
      <point x="403.0" y="1620.0" type="curve" smooth="yes"/>
      <point x="403.0" y="1147.18" type="line" smooth="yes"/>
      <point x="403.0" y="1129.5946000000001"/>
      <point x="387.4054" y="1114.0"/>
      <point x="369.82" y="1114.0" type="curve" smooth="yes"/>
      <point x="324.0" y="1114.0"/>
      <point x="334.0" y="1198.0"/>
      <point x="264.0" y="1198.0" type="curve" smooth="yes"/>
      <point x="231.0" y="1198.0"/>
      <point x="203.0" y="1176.0"/>
    </contour>
    <contour>
      <point x="552.0" y="1114.0" type="curve" smooth="yes"/>
      <point x="526.56" y="1114.0"/>
      <point x="512.9751638328942" y="1134.6978267983068"/>
      <point x="523.0960932614769" y="1158.0379293580997" type="curve" smooth="yes"/>
      <point x="553.0" y="1227.0"/>
      <point x="639.0" y="1325.0"/>
      <point x="717.0" y="1325.0" type="curve" smooth="yes"/>
      <point x="770.0" y="1325.0"/>
      <point x="774.0" y="1272.0"/>
      <point x="774.0" y="1247.0" type="curve" smooth="yes"/>
      <point x="774.0" y="1178.0"/>
      <point x="682.0" y="1114.0"/>
    </contour>
  </outline>
</glyph>
<glyph name="uni0653" format="2">
  <unicode hex="0653"/>
  <outline>
    <contour>
      <point x="253.2168961864407" y="1641.0" type="curve" smooth="yes"/>
      <point x="241.375" y="1616.0"/>
      <point x="248.48013771186442" y="1587.0"/>
      <point x="272.9533898305085" y="1564.0" type="curve" smooth="yes"/>
      <point x="298.21610169491527" y="1540.0"/>
      <point x="321.11043432203394" y="1542.0"/>
      <point x="336.89962923728814" y="1566.0" type="curve" smooth="yes"/>
      <point x="373.2147775423729" y="1621.0"/>
      <point x="412.6877648305085" y="1650.0"/>
      <point x="459.2658898305085" y="1650.0" type="curve" smooth="yes"/>
      <point x="556.369438559322" y="1650.0"/>
      <point x="640.0521716101695" y="1502.0"/>
      <point x="768.7341101694915" y="1502.0" type="curve" smooth="yes"/>
      <point x="853.2063029661017" y="1502.0"/>
      <point x="927.4155190677966" y="1571.0"/>
      <point x="974.7831038135594" y="1669.0" type="curve" smooth="yes"/>
      <point x="986.625" y="1694.0"/>
      <point x="979.5198622881355" y="1723.0"/>
      <point x="955.0466101694915" y="1746.0" type="curve" smooth="yes"/>
      <point x="929.7838983050847" y="1770.0"/>
      <point x="906.8895656779661" y="1768.0"/>
      <point x="891.1003707627119" y="1744.0" type="curve" smooth="yes"/>
      <point x="854.7852224576271" y="1689.0"/>
      <point x="815.3122351694915" y="1660.0"/>
      <point x="768.7341101694915" y="1660.0" type="curve" smooth="yes"/>
      <point x="670.8411016949152" y="1660.0"/>
      <point x="587.9478283898305" y="1808.0"/>
      <point x="459.2658898305085" y="1808.0" type="curve" smooth="yes"/>
      <point x="374.7936970338983" y="1808.0"/>
      <point x="300.5844809322034" y="1739.0"/>
    </contour>
  </outline>
</glyph>
<glyph name="uni0669" format="2">
  <advance width="1228"/>
  <unicode hex="0669"/>
  <unicode hex="06F9"/>
  <outline>
    <contour>
      <point x="791.0" y="1012.0" type="line" smooth="yes"/>
      <point x="791.0" y="1180.0"/>
      <point x="715.0" y="1251.0"/>
      <point x="514.0" y="1251.0" type="curve" smooth="yes"/>
      <point x="303.0" y="1251.0"/>
      <point x="178.0" y="1130.0"/>
      <point x="178.0" y="930.0" type="curve" smooth="yes"/>
      <point x="178.0" y="727.0"/>
      <point x="309.0" y="610.0"/>
      <point x="467.0" y="610.0" type="curve" smooth="yes"/>
      <point x="563.0" y="610.0"/>
      <point x="588.0" y="612.0"/>
      <point x="624.54" y="621.86" type="curve" smooth="yes"/>
      <point x="638.5638" y="625.6442"/>
      <point x="651.5719248264044" y="616.1316914059017"/>
      <point x="652.2168613327752" y="601.620620012557" type="curve" smooth="yes"/>
      <point x="659.0" y="449.0"/>
      <point x="690.0" y="272.0"/>
      <point x="754.0" y="61.0" type="curve" smooth="yes"/>
      <point x="768.0" y="16.0"/>
      <point x="797.0" y="0.0"/>
      <point x="825.0" y="0.0" type="curve" smooth="yes"/>
      <point x="870.0" y="0.0"/>
      <point x="895.0" y="31.0"/>
      <point x="895.0" y="72.0" type="curve" smooth="yes"/>
      <point x="895.0" y="92.0"/>
      <point x="858.0" y="195.0"/>
      <point x="846.0" y="250.0" type="curve" smooth="yes"/>
      <point x="805.0" y="420.0"/>
      <point x="791.0" y="563.0"/>
      <point x="791.0" y="686.0" type="curve" smooth="yes"/>
    </contour>
    <contour>
      <point x="649.0" y="1012.0" type="curve" smooth="yes"/>
      <point x="649.0" y="802.0576058659211" type="line" smooth="yes"/>
      <point x="649.0" y="789.307074756983"/>
      <point x="638.143" y="774.8416"/>
      <point x="625.9" y="771.28" type="curve" smooth="yes"/>
      <point x="594.0" y="762.0"/>
      <point x="563.0" y="758.0"/>
      <point x="467.0" y="758.0" type="curve" smooth="yes"/>
      <point x="371.0" y="758.0"/>
      <point x="303.0" y="811.0"/>
      <point x="303.0" y="928.0" type="curve" smooth="yes"/>
      <point x="303.0" y="1092.0"/>
      <point x="395.0" y="1104.0"/>
      <point x="514.0" y="1104.0" type="curve" smooth="yes"/>
      <point x="606.0" y="1104.0"/>
      <point x="649.0" y="1083.0"/>
    </contour>
  </outline>
</glyph>
<glyph name="uni0691" format="2">
  <advance width="1228"/>
  <unicode hex="0691"/>
  <unicode hex="FB8C"/>
  <outline>
    <contour>
      <point x="805.0" y="424.0" type="curve" smooth="yes"/>
      <point x="805.0" y="197.0"/>
      <point x="692.0" y="-29.0"/>
      <point x="387.0" y="-29.0" type="curve" smooth="yes"/>
      <point x="201.0" y="-29.0"/>
      <point x="244.0" y="94.0"/>
      <point x="143.0" y="94.0" type="curve" smooth="yes"/>
      <point x="98.0" y="94.0"/>
      <point x="57.0" y="61.0"/>
      <point x="57.0" y="6.0" type="curve" smooth="yes"/>
      <point x="57.0" y="-80.0"/>
      <point x="182.0" y="-170.0"/>
      <point x="387.0" y="-170.0" type="curve" smooth="yes"/>
      <point x="707.0" y="-170.0"/>
      <point x="952.0" y="74.0"/>
      <point x="952.0" y="424.0" type="curve" smooth="yes"/>
      <point x="952.0" y="602.0"/>
      <point x="893.0" y="768.0"/>
      <point x="758.0" y="768.0" type="curve" smooth="yes"/>
      <point x="702.0" y="768.0"/>
      <point x="670.0" y="727.0"/>
      <point x="670.0" y="682.0" type="curve" smooth="yes"/>
      <point x="670.0" y="567.0"/>
      <point x="805.0" y="645.0"/>
    </contour>
    <contour>
      <point x="203.0" y="1119.0" type="curve" smooth="yes"/>
      <point x="203.0" y="1041.0"/>
      <point x="319.0" y="994.0"/>
      <point x="403.0" y="994.0" type="curve" smooth="yes"/>
      <point x="504.0" y="994.0" type="line" smooth="yes"/>
      <point x="748.0" y="994.0"/>
      <point x="872.0" y="1119.0"/>
      <point x="872.0" y="1258.0" type="curve" smooth="yes"/>
      <point x="872.0" y="1319.0"/>
      <point x="838.0" y="1420.0"/>
      <point x="735.0" y="1420.0" type="curve" smooth="yes"/>
      <point x="641.0" y="1420.0"/>
      <point x="573.0" y="1358.0"/>
      <point x="528.5387196517106" y="1283.2534997043251" type="curve" smooth="yes"/>
      <point x="515.533198236304" y="1261.3891448610327"/>
      <point x="504.0" y="1264.56"/>
      <point x="504.0" y="1290.0" type="curve" smooth="yes"/>
      <point x="504.0" y="1602.0" type="line" smooth="yes"/>
      <point x="504.0" y="1647.0"/>
      <point x="494.0" y="1661.0"/>
      <point x="455.0" y="1661.0" type="curve" smooth="yes"/>
      <point x="414.0" y="1661.0"/>
      <point x="403.0" y="1647.0"/>
      <point x="403.0" y="1602.0" type="curve" smooth="yes"/>
      <point x="403.0" y="1129.18" type="line" smooth="yes"/>
      <point x="403.0" y="1111.5946000000001"/>
      <point x="387.4054" y="1096.0"/>
      <point x="369.82" y="1096.0" type="curve" smooth="yes"/>
      <point x="324.0" y="1096.0"/>
      <point x="334.0" y="1180.0"/>
      <point x="264.0" y="1180.0" type="curve" smooth="yes"/>
      <point x="231.0" y="1180.0"/>
      <point x="203.0" y="1158.0"/>
    </contour>
    <contour>
      <point x="552.0" y="1096.0" type="curve" smooth="yes"/>
      <point x="526.56" y="1096.0"/>
      <point x="512.9751638328942" y="1116.6978267983068"/>
      <point x="523.0960932614769" y="1140.0379293580997" type="curve" smooth="yes"/>
      <point x="553.0" y="1209.0"/>
      <point x="639.0" y="1307.0"/>
      <point x="717.0" y="1307.0" type="curve" smooth="yes"/>
      <point x="770.0" y="1307.0"/>
      <point x="774.0" y="1254.0"/>
      <point x="774.0" y="1229.0" type="curve" smooth="yes"/>
      <point x="774.0" y="1160.0"/>
      <point x="682.0" y="1096.0"/>
    </contour>
  </outline>
</glyph>
<glyph name="uni06C4" format="2">
  <advance width="1228"/>
  <unicode hex="06C4"/>
  <outline>
    <contour>
      <point x="608.0" y="30.0" type="curve" smooth="yes"/>
      <point x="608.0" y="190.0"/>
      <point x="514.0" y="305.0"/>
      <point x="416.0" y="305.0" type="curve" smooth="yes"/>
      <point x="315.0" y="305.0"/>
      <point x="223.0" y="186.0"/>
      <point x="223.0" y="32.0" type="curve" smooth="yes"/>
      <point x="223.0" y="15.414186477661133"/>
      <point x="224.02284240722656" y="-0.6928513646125793"/>
      <point x="225.15074310302734" y="-9.710501662492753" type="curve" smooth="yes"/>
      <point x="225.58362361145018" y="-13.171413656127454"/>
      <point x="223.60568301346228" y="-14.243369684075603"/>
      <point x="220.9423588519892" y="-11.991259168765412" type="curve" smooth="yes"/>
      <point x="213.02272033691406" y="-5.294402122497559"/>
      <point x="196.9690399169922" y="2.0"/>
      <point x="172.0" y="2.0" type="curve" smooth="yes"/>
      <point x="127.0" y="2.0"/>
      <point x="86.0" y="-31.0"/>
      <point x="86.0" y="-86.0" type="curve" smooth="yes"/>
      <point x="86.0" y="-172.0"/>
      <point x="211.0" y="-258.0"/>
      <point x="416.0" y="-258.0" type="curve" smooth="yes"/>
      <point x="702.0" y="-258.0"/>
      <point x="932.0" y="-66.0"/>
      <point x="977.0" y="225.0" type="curve" smooth="yes"/>
      <point x="987.0" y="287.0"/>
      <point x="995.0" y="352.0"/>
      <point x="995.0" y="424.0" type="curve" smooth="yes"/>
      <point x="995.0" y="584.0" type="line" smooth="yes"/>
      <point x="995.0" y="762.0"/>
      <point x="907.0" y="815.0"/>
      <point x="811.0" y="815.0" type="curve" smooth="yes"/>
      <point x="539.0" y="815.0"/>
      <point x="463.0" y="588.0"/>
      <point x="463.0" y="455.0" type="curve" smooth="yes"/>
      <point x="463.0" y="256.0"/>
      <point x="565.0" y="221.0"/>
      <point x="713.0" y="221.0" type="curve" smooth="yes"/>
      <point x="735.0" y="221.0"/>
      <point x="803.0" y="223.0"/>
      <point x="815.76" y="224.16" type="curve" smooth="yes"/>
      <point x="820.6572" y="224.6052"/>
      <point x="824.2982811213277" y="220.69612157521675"/>
      <point x="823.5069811092078" y="215.84281186216327" type="curve" smooth="yes"/>
      <point x="802.7910766601562" y="88.78518676757812"/>
      <point x="729.6143188476562" y="-32.08448791503906"/>
      <point x="603.7131456575519" y="-80.15241246185893" type="curve" smooth="yes"/>
      <point x="596.0430202559244" y="-83.08079668361178"/>
      <point x="591.5983601928712" y="-78.78911099014283"/>
      <point x="594.2564221191407" y="-71.021166305542" type="curve" smooth="yes"/>
      <point x="601.1821899414062" y="-50.7812385559082"/>
      <point x="608.0" y="-11.650426864624023"/>
    </contour>
    <contour>
      <point x="854.0" y="584.0" type="curve" smooth="yes"/>
      <point x="854.0" y="406.0" type="line" smooth="yes"/>
      <point x="854.0" y="385.0"/>
      <point x="829.0" y="371.0"/>
      <point x="795.0" y="367.0" type="curve" smooth="yes"/>
      <point x="778.0" y="365.0"/>
      <point x="750.0" y="365.0"/>
      <point x="737.0" y="365.0" type="curve" smooth="yes"/>
      <point x="651.0" y="365.0"/>
      <point x="598.0" y="377.0"/>
      <point x="598.0" y="455.0" type="curve" smooth="yes"/>
      <point x="598.0" y="547.0"/>
      <point x="631.0" y="690.0"/>
      <point x="811.0" y="690.0" type="curve" smooth="yes"/>
      <point x="844.0" y="690.0"/>
      <point x="854.0" y="651.0"/>
    </contour>
    <contour>
      <point x="493.0" y="32.0" type="curve" smooth="yes"/>
      <point x="493.0" y="-58.0"/>
      <point x="454.0" y="-115.0"/>
      <point x="416.0" y="-115.0" type="curve" smooth="yes"/>
      <point x="377.0" y="-115.0"/>
      <point x="338.0" y="-58.0"/>
      <point x="338.0" y="32.0" type="curve" smooth="yes"/>
      <point x="338.0" y="116.0"/>
      <point x="375.0" y="178.0"/>
      <point x="416.0" y="178.0" type="curve" smooth="yes"/>
      <point x="457.0" y="178.0"/>
      <point x="493.0" y="116.0"/>
    </contour>
  </outline>
</glyph>
<glyph name="uni06D4" format="2">
  <advance width="1228"/>
  <unicode hex="06D4"/>
  <outline>
    <contour>
      <point x="850.0" y="376.0" type="line" smooth="yes"/>
      <point x="850.0" y="401.44"/>
      <point x="827.44" y="424.0"/>
      <point x="802.0" y="424.0" type="curve" smooth="yes"/>
      <point x="273.0" y="424.0" type="line" smooth="yes"/>
      <point x="247.56" y="424.0"/>
      <point x="225.0" y="401.44"/>
      <point x="225.0" y="376.0" type="curve" smooth="yes"/>
      <point x="225.0" y="273.0" type="line" smooth="yes"/>
      <point x="225.0" y="247.56"/>
      <point x="247.56" y="225.0"/>
      <point x="273.0" y="225.0" type="curve" smooth="yes"/>
      <point x="802.0" y="225.0" type="line" smooth="yes"/>
      <point x="827.44" y="225.0"/>
      <point x="850.0" y="247.56"/>
      <point x="850.0" y="273.0" type="curve" smooth="yes"/>
    </contour>
  </outline>
</glyph>
<glyph name="uni06D5" format="2">
  <advance width="1228"/>
  <unicode hex="06D5"/>
  <outline>
    <contour>
      <point x="655.0" y="1030.0" type="curve" smooth="yes"/>
      <point x="623.0" y="1030.0"/>
      <point x="494.0" y="936.0"/>
      <point x="418.0" y="856.0" type="curve" smooth="yes"/>
      <point x="315.0" y="750.0"/>
      <point x="205.0" y="600.0"/>
      <point x="205.0" y="455.0" type="curve" smooth="yes"/>
      <point x="205.0" y="248.0"/>
      <point x="352.0" y="186.0"/>
      <point x="500.0" y="186.0" type="curve" smooth="yes"/>
      <point x="846.0" y="186.0"/>
      <point x="870.0" y="424.0"/>
      <point x="870.0" y="512.0" type="curve" smooth="yes"/>
      <point x="870.0" y="840.0"/>
      <point x="690.0" y="1030.0"/>
    </contour>
    <contour>
      <point x="578.8738951637963" y="833.8813404176086" type="curve" smooth="yes"/>
      <point x="596.4307307269843" y="847.724229996276"/>
      <point x="623.4492" y="843.8131999999999"/>
      <point x="636.36" y="825.56" type="curve" smooth="yes"/>
      <point x="670.0" y="778.0"/>
      <point x="729.0" y="672.0"/>
      <point x="729.0" y="512.0" type="curve" smooth="yes"/>
      <point x="729.0" y="416.0"/>
      <point x="680.0" y="330.0"/>
      <point x="500.0" y="330.0" type="curve" smooth="yes"/>
      <point x="383.0" y="330.0"/>
      <point x="330.0" y="371.0"/>
      <point x="330.0" y="455.0" type="curve" smooth="yes"/>
      <point x="330.0" y="633.0"/>
      <point x="508.0" y="778.0"/>
    </contour>
  </outline>
</glyph>
<glyph name="uni06E2" format="2">
  <unicode hex="06E2"/>
  <outline>
    <contour>
      <point x="330.0" y="1484.0" type="line" smooth="yes"/>
      <point x="330.0" y="1509.44"/>
      <point x="352.56" y="1532.0"/>
      <point x="378.0" y="1532.0" type="curve" smooth="yes"/>
      <point x="450.1878775512806" y="1532.0" type="line" smooth="yes"/>
      <point x="465.4583024491019" y="1532.0"/>
      <point x="487.09340000000003" y="1521.143"/>
      <point x="496.22" y="1508.9" type="curve" smooth="yes"/>
      <point x="520.0" y="1477.0"/>
      <point x="598.0" y="1405.0"/>
      <point x="657.0" y="1405.0" type="curve" smooth="yes"/>
      <point x="758.0" y="1405.0"/>
      <point x="846.0" y="1505.0"/>
      <point x="846.0" y="1614.0" type="curve" smooth="yes"/>
      <point x="846.0" y="1729.0"/>
      <point x="762.0" y="1823.0"/>
      <point x="659.0" y="1823.0" type="curve" smooth="yes"/>
      <point x="578.0" y="1823.0"/>
      <point x="465.0" y="1698.0"/>
      <point x="458.04" y="1656.24" type="curve" smooth="yes"/>
      <point x="455.3688" y="1640.2128"/>
      <point x="438.59115211822956" y="1626.0"/>
      <point x="422.34287684729696" y="1626.0" type="curve" smooth="yes"/>
      <point x="283.0" y="1626.0" type="line" smooth="yes"/>
      <point x="244.0" y="1626.0"/>
      <point x="233.0" y="1614.0"/>
      <point x="233.0" y="1571.0" type="curve" smooth="yes"/>
      <point x="233.0" y="1100.0" type="line" smooth="yes"/>
      <point x="233.0" y="1059.0"/>
      <point x="244.0" y="1047.0"/>
      <point x="281.0" y="1047.0" type="curve" smooth="yes"/>
      <point x="319.0" y="1047.0"/>
      <point x="330.0" y="1059.0"/>
      <point x="330.0" y="1100.0" type="curve" smooth="yes"/>
    </contour>
    <contour>
      <point x="659.0" y="1722.0" type="curve" smooth="yes"/>
      <point x="694.0" y="1722.0"/>
      <point x="748.0" y="1673.0"/>
      <point x="748.0" y="1614.0" type="curve" smooth="yes"/>
      <point x="748.0" y="1554.0"/>
      <point x="694.0" y="1507.0"/>
      <point x="657.0" y="1507.0" type="curve" smooth="yes"/>
      <point x="614.0" y="1507.0"/>
      <point x="551.0" y="1579.0"/>
      <point x="551.0" y="1614.0" type="curve" smooth="yes"/>
      <point x="551.0" y="1651.0"/>
      <point x="614.0" y="1722.0"/>
    </contour>
  </outline>
</glyph>
